<mxfile host="app.diagrams.net" agent="Mozilla/5.0 (Macintosh; Intel Mac OS X 10_15_7) AppleWebKit/537.36 (KHTML, like Gecko) Chrome/128.0.0.0 YaBrowser/24.10.0.0 Safari/537.36" version="24.8.4">
  <diagram name="DF" id="BleSmaJVXqo2yb7Co1eL">
    <mxGraphModel dx="3660" dy="2818" grid="0" gridSize="10" guides="0" tooltips="0" connect="1" arrows="1" fold="1" page="0" pageScale="1" pageWidth="827" pageHeight="1169" math="0" shadow="0">
      <root>
        <mxCell id="0" />
        <mxCell id="1" parent="0" />
        <mxCell id="kQWFD41fJFxlXKQhT5sF-2" value="" style="group" parent="1" vertex="1" connectable="0">
          <mxGeometry x="1124" y="410" width="151" height="36" as="geometry" />
        </mxCell>
        <mxCell id="cKbgiC5qh_IXnBO1eU4K-91" value="&lt;p style=&quot;margin: 0px 0px 0px 13px; text-indent: -13px; font-variant-numeric: normal; font-variant-east-asian: normal; font-variant-alternates: normal; font-kerning: auto; font-optical-sizing: auto; font-feature-settings: normal; font-variation-settings: normal; font-variant-position: normal; font-stretch: normal; font-size: 14px; line-height: normal; color: rgb(14, 14, 14); text-align: start;&quot; class=&quot;p1&quot;&gt;&lt;br&gt;&lt;/p&gt;" style="rounded=1;whiteSpace=wrap;html=1;fillColor=#FF77BF;strokeColor=none;arcSize=50;" parent="kQWFD41fJFxlXKQhT5sF-2" vertex="1">
          <mxGeometry y="5" width="151" height="31" as="geometry" />
        </mxCell>
        <mxCell id="cKbgiC5qh_IXnBO1eU4K-92" value="&lt;font style=&quot;font-size: 18px;&quot;&gt;&lt;i&gt;Django/Python&lt;/i&gt;&lt;/font&gt;" style="text;html=1;align=center;verticalAlign=middle;whiteSpace=wrap;rounded=1;shadow=0;fontSize=23;fontStyle=1;arcSize=50;" parent="kQWFD41fJFxlXKQhT5sF-2" vertex="1">
          <mxGeometry x="30" width="89" height="36" as="geometry" />
        </mxCell>
        <mxCell id="ISwjRsLXD4yoOcMXPSiY-8" value="" style="group" parent="1" vertex="1" connectable="0">
          <mxGeometry x="2770" y="-580" width="535" height="220" as="geometry" />
        </mxCell>
        <mxCell id="Tz6aEU4ManMyac2rpAqn-102" value="" style="rounded=1;whiteSpace=wrap;html=1;arcSize=5;fillColor=#fff2cc;strokeColor=#d6b656;" parent="ISwjRsLXD4yoOcMXPSiY-8" vertex="1">
          <mxGeometry x="17" width="518" height="220" as="geometry" />
        </mxCell>
        <mxCell id="Tz6aEU4ManMyac2rpAqn-103" value="TurboPay" style="text;html=1;align=center;verticalAlign=middle;whiteSpace=wrap;rounded=1;shadow=0;fontSize=23;fontStyle=1" parent="ISwjRsLXD4yoOcMXPSiY-8" vertex="1">
          <mxGeometry width="177" height="49" as="geometry" />
        </mxCell>
        <mxCell id="ISwjRsLXD4yoOcMXPSiY-9" value="" style="group" parent="1" vertex="1" connectable="0">
          <mxGeometry x="2820" y="-520" width="518" height="224" as="geometry" />
        </mxCell>
        <mxCell id="Tz6aEU4ManMyac2rpAqn-100" value="" style="rounded=1;whiteSpace=wrap;html=1;arcSize=5;fillColor=#fff2cc;strokeColor=#d6b656;" parent="ISwjRsLXD4yoOcMXPSiY-9" vertex="1">
          <mxGeometry width="518" height="224" as="geometry" />
        </mxCell>
        <mxCell id="Tz6aEU4ManMyac2rpAqn-101" value="FastMoney" style="text;html=1;align=center;verticalAlign=middle;whiteSpace=wrap;rounded=1;shadow=0;fontSize=23;fontStyle=1" parent="ISwjRsLXD4yoOcMXPSiY-9" vertex="1">
          <mxGeometry x="2" width="141" height="49" as="geometry" />
        </mxCell>
        <mxCell id="ISwjRsLXD4yoOcMXPSiY-10" value="" style="group" parent="1" vertex="1" connectable="0">
          <mxGeometry x="2850" y="-460" width="514" height="244" as="geometry" />
        </mxCell>
        <mxCell id="Tz6aEU4ManMyac2rpAqn-104" value="" style="rounded=1;whiteSpace=wrap;html=1;arcSize=5;fillColor=#fff2cc;strokeColor=#d6b656;" parent="ISwjRsLXD4yoOcMXPSiY-10" vertex="1">
          <mxGeometry width="514" height="244" as="geometry" />
        </mxCell>
        <mxCell id="Tz6aEU4ManMyac2rpAqn-105" value="Яндекс.Pay" style="text;html=1;align=center;verticalAlign=middle;whiteSpace=wrap;rounded=1;shadow=0;fontSize=23;fontStyle=1" parent="ISwjRsLXD4yoOcMXPSiY-10" vertex="1">
          <mxGeometry width="150" height="49" as="geometry" />
        </mxCell>
        <mxCell id="D1CTnjmkYU0Mq4A9S6dc-23" value="" style="rounded=1;whiteSpace=wrap;html=1;arcSize=0;" parent="1" vertex="1">
          <mxGeometry x="822" y="1365" width="1128" height="343" as="geometry" />
        </mxCell>
        <mxCell id="aNh6FEuhw9lsT8rE3H5J-120" value="" style="rounded=1;whiteSpace=wrap;html=1;arcSize=3;movable=1;resizable=1;rotatable=1;deletable=1;editable=1;locked=0;connectable=1;fillColor=#f5f5f5;strokeColor=#FF0000;strokeWidth=3;fontColor=#333333;" parent="1" vertex="1">
          <mxGeometry x="1930" y="109" width="805" height="665" as="geometry" />
        </mxCell>
        <mxCell id="aNh6FEuhw9lsT8rE3H5J-121" value="Платежная система" style="text;html=1;align=center;verticalAlign=middle;whiteSpace=wrap;rounded=1;shadow=0;fontSize=23;fontStyle=1" parent="1" vertex="1">
          <mxGeometry x="1947" y="122" width="249" height="49" as="geometry" />
        </mxCell>
        <mxCell id="aNh6FEuhw9lsT8rE3H5J-60" value="" style="strokeWidth=2;html=1;shape=mxgraph.flowchart.database;whiteSpace=wrap;rounded=1;movable=1;resizable=1;rotatable=1;deletable=1;editable=1;locked=0;connectable=1;" parent="1" vertex="1">
          <mxGeometry x="2290" y="187" width="396" height="413" as="geometry" />
        </mxCell>
        <mxCell id="cKbgiC5qh_IXnBO1eU4K-95" value="Администратор" style="shape=umlActor;verticalLabelPosition=bottom;verticalAlign=top;html=1;outlineConnect=0;rounded=1;" parent="1" vertex="1">
          <mxGeometry x="-660" y="133" width="65" height="141" as="geometry" />
        </mxCell>
        <mxCell id="cKbgiC5qh_IXnBO1eU4K-96" value="" style="endArrow=classic;html=1;rounded=1;dashed=1;entryX=0;entryY=0.5;entryDx=0;entryDy=0;" parent="1" source="cKbgiC5qh_IXnBO1eU4K-95" target="PlenrtrV-lZkWa3VHan3-1" edge="1">
          <mxGeometry width="50" height="50" relative="1" as="geometry">
            <mxPoint x="151" y="579" as="sourcePoint" />
            <mxPoint x="147" y="1014" as="targetPoint" />
            <Array as="points" />
          </mxGeometry>
        </mxCell>
        <mxCell id="cKbgiC5qh_IXnBO1eU4K-103" value="" style="endArrow=classic;html=1;rounded=1;curved=0;entryX=0.998;entryY=0.169;entryDx=0;entryDy=0;entryPerimeter=0;" parent="1" edge="1">
          <mxGeometry width="50" height="50" relative="1" as="geometry">
            <mxPoint x="3120" y="-217" as="sourcePoint" />
            <mxPoint x="2733.39" y="219.96200000000022" as="targetPoint" />
            <Array as="points">
              <mxPoint x="3116" y="213" />
            </Array>
          </mxGeometry>
        </mxCell>
        <mxCell id="cKbgiC5qh_IXnBO1eU4K-104" value="&lt;p style=&quot;margin: 0px 0px 0px 21px; text-indent: -21px; font-variant-numeric: normal; font-variant-east-asian: normal; font-variant-alternates: normal; font-kerning: auto; font-optical-sizing: auto; font-feature-settings: normal; font-variation-settings: normal; font-variant-position: normal; font-stretch: normal; line-height: normal; color: rgb(14, 14, 14); text-align: start; text-wrap: wrap;&quot; class=&quot;p1&quot;&gt;&lt;font style=&quot;font-size: 12px;&quot; face=&quot;Helvetica&quot;&gt;Подтверждение платежа&lt;/font&gt;&lt;/p&gt;" style="edgeLabel;html=1;align=center;verticalAlign=middle;resizable=0;points=[];rounded=1;" parent="cKbgiC5qh_IXnBO1eU4K-103" vertex="1" connectable="0">
          <mxGeometry x="0.1936" y="1" relative="1" as="geometry">
            <mxPoint x="-269" y="39" as="offset" />
          </mxGeometry>
        </mxCell>
        <mxCell id="cKbgiC5qh_IXnBO1eU4K-105" value="" style="endArrow=classic;html=1;rounded=1;exitX=0.997;exitY=0.267;exitDx=0;exitDy=0;exitPerimeter=0;curved=0;entryX=0.68;entryY=1.001;entryDx=0;entryDy=0;entryPerimeter=0;" parent="1" source="aNh6FEuhw9lsT8rE3H5J-120" target="Tz6aEU4ManMyac2rpAqn-104" edge="1">
          <mxGeometry width="50" height="50" relative="1" as="geometry">
            <mxPoint x="2900" y="486" as="sourcePoint" />
            <mxPoint x="3200" y="-20" as="targetPoint" />
            <Array as="points">
              <mxPoint x="3193" y="295" />
            </Array>
          </mxGeometry>
        </mxCell>
        <mxCell id="cKbgiC5qh_IXnBO1eU4K-106" value="&lt;font style=&quot;font-size: 12px;&quot;&gt;Предоставить статус платежа&lt;/font&gt;" style="edgeLabel;html=1;align=center;verticalAlign=middle;resizable=0;points=[];rounded=1;" parent="cKbgiC5qh_IXnBO1eU4K-105" vertex="1" connectable="0">
          <mxGeometry x="0.1936" y="1" relative="1" as="geometry">
            <mxPoint x="-209" y="46" as="offset" />
          </mxGeometry>
        </mxCell>
        <mxCell id="cKbgiC5qh_IXnBO1eU4K-107" value="" style="endArrow=classic;html=1;rounded=1;curved=0;entryX=1;entryY=0.426;entryDx=0;entryDy=0;entryPerimeter=0;" parent="1" target="aNh6FEuhw9lsT8rE3H5J-120" edge="1">
          <mxGeometry width="50" height="50" relative="1" as="geometry">
            <mxPoint x="3360" y="-210" as="sourcePoint" />
            <mxPoint x="2740" y="520" as="targetPoint" />
            <Array as="points">
              <mxPoint x="3355" y="392" />
            </Array>
          </mxGeometry>
        </mxCell>
        <mxCell id="cKbgiC5qh_IXnBO1eU4K-108" value="&lt;font style=&quot;font-size: 12px;&quot;&gt;Подтверждение отмены&amp;nbsp;&lt;/font&gt;&lt;div&gt;&lt;font style=&quot;font-size: 12px;&quot;&gt;платежа&lt;/font&gt;&lt;/div&gt;" style="edgeLabel;html=1;align=center;verticalAlign=middle;resizable=0;points=[];rounded=1;" parent="cKbgiC5qh_IXnBO1eU4K-107" vertex="1" connectable="0">
          <mxGeometry x="0.1936" y="1" relative="1" as="geometry">
            <mxPoint x="-262" y="-41" as="offset" />
          </mxGeometry>
        </mxCell>
        <mxCell id="cKbgiC5qh_IXnBO1eU4K-109" value="" style="endArrow=classic;html=1;rounded=1;exitX=0.998;exitY=0.071;exitDx=0;exitDy=0;exitPerimeter=0;curved=0;entryX=0.214;entryY=1.007;entryDx=0;entryDy=0;entryPerimeter=0;" parent="1" source="aNh6FEuhw9lsT8rE3H5J-120" target="Tz6aEU4ManMyac2rpAqn-104" edge="1">
          <mxGeometry width="50" height="50" relative="1" as="geometry">
            <mxPoint x="2610" y="206" as="sourcePoint" />
            <mxPoint x="2955" y="-179" as="targetPoint" />
            <Array as="points">
              <mxPoint x="2963" y="161" />
            </Array>
          </mxGeometry>
        </mxCell>
        <mxCell id="cKbgiC5qh_IXnBO1eU4K-114" value="&lt;font style=&quot;font-size: 12px;&quot;&gt;[Транзакция.ID]&lt;/font&gt;" style="text;html=1;align=center;verticalAlign=middle;whiteSpace=wrap;rounded=1;fontSize=13;labelBackgroundColor=none;fontColor=#B8B8B8;" parent="1" vertex="1">
          <mxGeometry x="2890" y="250" width="100" height="30" as="geometry" />
        </mxCell>
        <mxCell id="cKbgiC5qh_IXnBO1eU4K-120" value="&lt;font style=&quot;font-size: 12px;&quot;&gt;[Транзакция.Статус]&lt;/font&gt;" style="text;html=1;align=center;verticalAlign=middle;whiteSpace=wrap;rounded=1;fontSize=13;labelBackgroundColor=none;fontColor=#B8B8B8;" parent="1" vertex="1">
          <mxGeometry x="2970" y="250" width="160" height="30" as="geometry" />
        </mxCell>
        <mxCell id="cKbgiC5qh_IXnBO1eU4K-121" value="&lt;font style=&quot;font-size: 12px;&quot;&gt;[Пользователь.ID]&lt;/font&gt;" style="text;html=1;align=center;verticalAlign=middle;whiteSpace=wrap;rounded=1;fontSize=13;labelBackgroundColor=none;fontColor=#007575;" parent="1" vertex="1">
          <mxGeometry x="2760" y="150" width="160" height="30" as="geometry" />
        </mxCell>
        <mxCell id="cKbgiC5qh_IXnBO1eU4K-122" value="&lt;font style=&quot;font-size: 12px;&quot;&gt;[Заказ.ID]&lt;/font&gt;" style="text;html=1;align=center;verticalAlign=middle;whiteSpace=wrap;rounded=1;fontSize=13;labelBackgroundColor=none;fontColor=#007575;" parent="1" vertex="1">
          <mxGeometry x="2720" y="170" width="160" height="30" as="geometry" />
        </mxCell>
        <mxCell id="cKbgiC5qh_IXnBO1eU4K-123" value="&lt;font style=&quot;font-size: 12px;&quot;&gt;[Заказ.Сумма]&lt;/font&gt;" style="text;html=1;align=center;verticalAlign=middle;whiteSpace=wrap;rounded=1;fontSize=13;labelBackgroundColor=none;fontColor=#007575;" parent="1" vertex="1">
          <mxGeometry x="2790" y="170" width="160" height="30" as="geometry" />
        </mxCell>
        <mxCell id="cKbgiC5qh_IXnBO1eU4K-124" value="&lt;font style=&quot;font-size: 12px;&quot;&gt;[Транзакция.ID]&lt;/font&gt;" style="text;html=1;align=center;verticalAlign=middle;whiteSpace=wrap;rounded=1;fontSize=13;labelBackgroundColor=none;fontColor=#B8B8B8;" parent="1" vertex="1">
          <mxGeometry x="2770" y="302" width="100" height="30" as="geometry" />
        </mxCell>
        <mxCell id="cKbgiC5qh_IXnBO1eU4K-125" value="" style="endArrow=classic;html=1;rounded=1;curved=0;entryX=0.837;entryY=1.005;entryDx=0;entryDy=0;entryPerimeter=0;exitX=1;exitY=0.363;exitDx=0;exitDy=0;exitPerimeter=0;" parent="1" source="aNh6FEuhw9lsT8rE3H5J-120" target="Tz6aEU4ManMyac2rpAqn-104" edge="1">
          <mxGeometry width="50" height="50" relative="1" as="geometry">
            <mxPoint x="2743" y="418" as="sourcePoint" />
            <mxPoint x="3204" y="60" as="targetPoint" />
            <Array as="points">
              <mxPoint x="3262" y="354" />
            </Array>
          </mxGeometry>
        </mxCell>
        <mxCell id="cKbgiC5qh_IXnBO1eU4K-169" value="&lt;font style=&quot;font-size: 12px;&quot;&gt;Запросить статус платежа&lt;/font&gt;" style="edgeLabel;html=1;align=center;verticalAlign=middle;resizable=0;points=[];rounded=1;" parent="cKbgiC5qh_IXnBO1eU4K-125" vertex="1" connectable="0">
          <mxGeometry x="-0.4407" y="-1" relative="1" as="geometry">
            <mxPoint x="-246" y="-31" as="offset" />
          </mxGeometry>
        </mxCell>
        <mxCell id="cKbgiC5qh_IXnBO1eU4K-127" value="&lt;font style=&quot;font-size: 12px;&quot;&gt;[Транзакция.ID]&lt;/font&gt;" style="text;html=1;align=center;verticalAlign=middle;whiteSpace=wrap;rounded=1;fontSize=13;labelBackgroundColor=none;fontColor=#B8B8B8;" parent="1" vertex="1">
          <mxGeometry x="2762" y="365" width="100" height="30" as="geometry" />
        </mxCell>
        <mxCell id="cKbgiC5qh_IXnBO1eU4K-128" value="&lt;font style=&quot;font-size: 12px;&quot;&gt;[Транзакция.Статус]&lt;/font&gt;" style="text;html=1;align=center;verticalAlign=middle;whiteSpace=wrap;rounded=1;fontSize=13;labelBackgroundColor=none;fontColor=#B8B8B8;" parent="1" vertex="1">
          <mxGeometry x="2805" y="411" width="160" height="30" as="geometry" />
        </mxCell>
        <mxCell id="aNh6FEuhw9lsT8rE3H5J-66" value="1" style="ellipse;whiteSpace=wrap;html=1;aspect=fixed;rounded=1;fillColor=#FF77BF;" parent="1" vertex="1">
          <mxGeometry x="2720" y="169" width="23" height="23" as="geometry" />
        </mxCell>
        <mxCell id="cKbgiC5qh_IXnBO1eU4K-138" value="2" style="ellipse;whiteSpace=wrap;html=1;aspect=fixed;rounded=1;fillColor=#FF77BF;" parent="1" vertex="1">
          <mxGeometry x="3110" y="-230" width="23" height="23" as="geometry" />
        </mxCell>
        <mxCell id="cKbgiC5qh_IXnBO1eU4K-139" value="3" style="ellipse;whiteSpace=wrap;html=1;aspect=fixed;rounded=1;fillColor=#ff77bf;" parent="1" vertex="1">
          <mxGeometry x="2720" y="301" width="23" height="23" as="geometry" />
        </mxCell>
        <mxCell id="cKbgiC5qh_IXnBO1eU4K-141" value="" style="endArrow=classic;html=1;rounded=1;exitX=1;exitY=0.429;exitDx=0;exitDy=0;exitPerimeter=0;curved=0;entryX=0.837;entryY=1.005;entryDx=0;entryDy=0;entryPerimeter=0;" parent="1" source="aNh6FEuhw9lsT8rE3H5J-120" target="cKbgiC5qh_IXnBO1eU4K-140" edge="1">
          <mxGeometry width="50" height="50" relative="1" as="geometry">
            <mxPoint x="2735" y="440" as="sourcePoint" />
            <mxPoint x="3280" y="-25" as="targetPoint" />
            <Array as="points" />
          </mxGeometry>
        </mxCell>
        <mxCell id="cKbgiC5qh_IXnBO1eU4K-140" value="4" style="ellipse;whiteSpace=wrap;html=1;aspect=fixed;rounded=1;fillColor=#FF77BF;" parent="1" vertex="1">
          <mxGeometry x="2720" y="411" width="23" height="23" as="geometry" />
        </mxCell>
        <mxCell id="cKbgiC5qh_IXnBO1eU4K-143" value="5" style="ellipse;whiteSpace=wrap;html=1;aspect=fixed;rounded=1;fillColor=#FF77BF;" parent="1" vertex="1">
          <mxGeometry x="3350" y="-230" width="23" height="23" as="geometry" />
        </mxCell>
        <mxCell id="cKbgiC5qh_IXnBO1eU4K-146" value="" style="strokeWidth=2;html=1;shape=mxgraph.flowchart.database;whiteSpace=wrap;rounded=1;movable=1;resizable=1;rotatable=1;deletable=1;editable=1;locked=0;connectable=1;" parent="1" vertex="1">
          <mxGeometry x="3130" y="-400" width="220" height="171" as="geometry" />
        </mxCell>
        <mxCell id="cKbgiC5qh_IXnBO1eU4K-150" value="&lt;p style=&quot;margin: 0px 0px 0px 13px; text-indent: -13px; font-variant-numeric: normal; font-variant-east-asian: normal; font-variant-alternates: normal; font-kerning: auto; font-optical-sizing: auto; font-feature-settings: normal; font-variation-settings: normal; font-variant-position: normal; font-stretch: normal; line-height: normal; text-align: start;&quot; class=&quot;p1&quot;&gt;&lt;span style=&quot;text-align: center; text-indent: 0px;&quot;&gt;&lt;font style=&quot;font-size: 14px;&quot; face=&quot;Times New Roman&quot;&gt;[Транзакция.ID]&lt;/font&gt;&lt;/span&gt;&lt;br&gt;&lt;/p&gt;" style="rounded=1;whiteSpace=wrap;html=1;fillColor=#B8B8B8;strokeColor=#FFD966;" parent="1" vertex="1">
          <mxGeometry x="2541" y="424" width="104" height="21" as="geometry" />
        </mxCell>
        <mxCell id="cKbgiC5qh_IXnBO1eU4K-151" value="&lt;p style=&quot;margin: 0px 0px 0px 13px; text-indent: -13px; font-variant-numeric: normal; font-variant-east-asian: normal; font-variant-alternates: normal; font-kerning: auto; font-optical-sizing: auto; font-feature-settings: normal; font-variation-settings: normal; font-variant-position: normal; font-stretch: normal; line-height: normal; text-align: start;&quot; class=&quot;p1&quot;&gt;&lt;span style=&quot;text-align: center; text-indent: 0px;&quot;&gt;&lt;font style=&quot;font-size: 14px;&quot; face=&quot;Times New Roman&quot;&gt;[Транзакция.Статус]&lt;/font&gt;&lt;/span&gt;&lt;br&gt;&lt;/p&gt;" style="rounded=1;whiteSpace=wrap;html=1;fillColor=#B8B8B8;strokeColor=#FFD966;" parent="1" vertex="1">
          <mxGeometry x="2509" y="366" width="125" height="21" as="geometry" />
        </mxCell>
        <mxCell id="cKbgiC5qh_IXnBO1eU4K-152" value="&lt;p style=&quot;margin: 0px 0px 0px 13px; text-indent: -13px; font-variant-numeric: normal; font-variant-east-asian: normal; font-variant-alternates: normal; font-kerning: auto; font-optical-sizing: auto; font-feature-settings: normal; font-variation-settings: normal; font-variant-position: normal; font-stretch: normal; font-size: 14px; line-height: normal; text-align: start;&quot; class=&quot;p1&quot;&gt;&lt;span style=&quot;font-size: 12px; text-align: center; text-indent: 0px;&quot;&gt;[Транзакция.Статус]&lt;/span&gt;&lt;br&gt;&lt;/p&gt;" style="rounded=1;whiteSpace=wrap;html=1;fillColor=#B8B8B8;strokeColor=#FFD966;" parent="1" vertex="1">
          <mxGeometry x="3180" y="-310" width="119" height="21" as="geometry" />
        </mxCell>
        <mxCell id="cKbgiC5qh_IXnBO1eU4K-153" value="&lt;p style=&quot;margin: 0px 0px 0px 13px; text-indent: -13px; font-variant-numeric: normal; font-variant-east-asian: normal; font-variant-alternates: normal; font-kerning: auto; font-optical-sizing: auto; font-feature-settings: normal; font-variation-settings: normal; font-variant-position: normal; font-stretch: normal; font-size: 14px; line-height: normal; text-align: start;&quot; class=&quot;p1&quot;&gt;&lt;span style=&quot;font-size: 12px; text-align: center; text-indent: 0px;&quot;&gt;[Транзакция.ID]&lt;/span&gt;&lt;br&gt;&lt;/p&gt;" style="rounded=1;whiteSpace=wrap;html=1;fillColor=#B8B8B8;strokeColor=#FFD966;" parent="1" vertex="1">
          <mxGeometry x="3180" y="-280" width="119" height="21" as="geometry" />
        </mxCell>
        <mxCell id="cKbgiC5qh_IXnBO1eU4K-154" value="Редактировать аукцион" style="text;html=1;align=center;verticalAlign=middle;whiteSpace=wrap;rounded=1;fontSize=13;" parent="1" vertex="1">
          <mxGeometry x="-634" y="70" width="243" height="30" as="geometry" />
        </mxCell>
        <mxCell id="cKbgiC5qh_IXnBO1eU4K-157" value="Специалист поддержки" style="shape=umlActor;verticalLabelPosition=bottom;verticalAlign=top;html=1;outlineConnect=0;rounded=1;" parent="1" vertex="1">
          <mxGeometry x="-875" y="643" width="65" height="141" as="geometry" />
        </mxCell>
        <mxCell id="cKbgiC5qh_IXnBO1eU4K-160" value="" style="endArrow=classic;html=1;rounded=1;dashed=1;entryX=0.001;entryY=0.613;entryDx=0;entryDy=0;entryPerimeter=0;" parent="1" source="cKbgiC5qh_IXnBO1eU4K-157" target="PlenrtrV-lZkWa3VHan3-21" edge="1">
          <mxGeometry width="50" height="50" relative="1" as="geometry">
            <mxPoint x="55" y="705.4343434343436" as="sourcePoint" />
            <mxPoint x="270" y="705" as="targetPoint" />
            <Array as="points" />
          </mxGeometry>
        </mxCell>
        <mxCell id="cKbgiC5qh_IXnBO1eU4K-162" value="&lt;div&gt;Изменить статус заявки&lt;/div&gt;&lt;div&gt;на поддержку&lt;/div&gt;" style="text;html=1;align=center;verticalAlign=middle;whiteSpace=wrap;rounded=1;fontSize=13;" parent="1" vertex="1">
          <mxGeometry x="-756" y="863" width="243" height="30" as="geometry" />
        </mxCell>
        <mxCell id="D1CTnjmkYU0Mq4A9S6dc-4" value="&lt;p style=&quot;margin: 0px 0px 0px 13px; text-indent: -13px; font-variant-numeric: normal; font-variant-east-asian: normal; font-variant-alternates: normal; font-kerning: auto; font-optical-sizing: auto; font-feature-settings: normal; font-variation-settings: normal; font-variant-position: normal; font-stretch: normal; font-size: 14px; line-height: normal; color: rgb(14, 14, 14); text-align: start;&quot; class=&quot;p1&quot;&gt;&lt;font face=&quot;Times New Roman&quot;&gt;Объект данных&lt;/font&gt;&lt;/p&gt;" style="rounded=1;whiteSpace=wrap;html=1;fillColor=#b1ddf0;strokeColor=#10739e;" parent="1" vertex="1">
          <mxGeometry x="1242" y="1602" width="101" height="21" as="geometry" />
        </mxCell>
        <mxCell id="D1CTnjmkYU0Mq4A9S6dc-11" value="&lt;font style=&quot;font-size: 14px;&quot;&gt;СУБД&lt;/font&gt;" style="strokeWidth=2;html=1;shape=mxgraph.flowchart.database;whiteSpace=wrap;rounded=1;movable=1;resizable=1;rotatable=1;deletable=1;editable=1;locked=0;connectable=1;" parent="1" vertex="1">
          <mxGeometry x="1231" y="1467" width="137" height="87" as="geometry" />
        </mxCell>
        <mxCell id="D1CTnjmkYU0Mq4A9S6dc-14" value="Пользователь (Роль)" style="shape=umlActor;verticalLabelPosition=bottom;verticalAlign=top;html=1;outlineConnect=0;rounded=1;" parent="1" vertex="1">
          <mxGeometry x="1834" y="1434" width="65" height="141" as="geometry" />
        </mxCell>
        <mxCell id="D1CTnjmkYU0Mq4A9S6dc-16" value="&lt;p style=&quot;margin: 0px 0px 0px 13px; text-indent: -13px; font-variant-numeric: normal; font-variant-east-asian: normal; font-variant-alternates: normal; font-kerning: auto; font-optical-sizing: auto; font-feature-settings: normal; font-variation-settings: normal; font-variant-position: normal; font-stretch: normal; line-height: normal; text-align: start;&quot; class=&quot;p1&quot;&gt;&lt;span style=&quot;text-align: center; text-indent: 0px;&quot;&gt;&lt;font style=&quot;font-size: 14px;&quot; face=&quot;Times New Roman&quot;&gt;Объект даных внешних сервисов&lt;/font&gt;&lt;/span&gt;&lt;br&gt;&lt;/p&gt;" style="rounded=1;whiteSpace=wrap;html=1;fillColor=#B8B8B8;strokeColor=#FFD966;" parent="1" vertex="1">
          <mxGeometry x="1240" y="1636" width="204" height="21" as="geometry" />
        </mxCell>
        <mxCell id="D1CTnjmkYU0Mq4A9S6dc-17" value="" style="endArrow=classic;html=1;rounded=1;curved=0;strokeWidth=2;" parent="1" edge="1">
          <mxGeometry width="50" height="50" relative="1" as="geometry">
            <mxPoint x="1531" y="1548" as="sourcePoint" />
            <mxPoint x="1741" y="1548" as="targetPoint" />
            <Array as="points">
              <mxPoint x="1531" y="1548" />
            </Array>
          </mxGeometry>
        </mxCell>
        <mxCell id="D1CTnjmkYU0Mq4A9S6dc-18" value="&lt;font style=&quot;font-size: 12px;&quot;&gt;Подтверждение отмены&amp;nbsp;&lt;/font&gt;&lt;div&gt;&lt;font style=&quot;font-size: 12px;&quot;&gt;платежа&lt;/font&gt;&lt;/div&gt;" style="edgeLabel;html=1;align=center;verticalAlign=middle;resizable=0;points=[];rounded=1;" parent="D1CTnjmkYU0Mq4A9S6dc-17" vertex="1" connectable="0">
          <mxGeometry x="0.1936" y="1" relative="1" as="geometry">
            <mxPoint x="-24" y="-39" as="offset" />
          </mxGeometry>
        </mxCell>
        <mxCell id="D1CTnjmkYU0Mq4A9S6dc-19" value="&lt;font style=&quot;font-size: 12px;&quot;&gt;[Транзакция.Статус]&lt;/font&gt;" style="text;html=1;align=center;verticalAlign=middle;whiteSpace=wrap;rounded=1;fontSize=13;labelBackgroundColor=none;fontColor=#B8B8B8;" parent="1" vertex="1">
          <mxGeometry x="1546" y="1518" width="160" height="30" as="geometry" />
        </mxCell>
        <mxCell id="D1CTnjmkYU0Mq4A9S6dc-20" value="" style="endArrow=classic;html=1;rounded=1;dashed=1;strokeWidth=2;" parent="1" edge="1">
          <mxGeometry width="50" height="50" relative="1" as="geometry">
            <mxPoint x="1530" y="1598" as="sourcePoint" />
            <mxPoint x="1745" y="1598" as="targetPoint" />
            <Array as="points" />
          </mxGeometry>
        </mxCell>
        <mxCell id="D1CTnjmkYU0Mq4A9S6dc-21" value="&lt;span style=&quot;font-size: 12px;&quot;&gt;Пользовательский поток&lt;/span&gt;" style="edgeLabel;html=1;align=center;verticalAlign=middle;resizable=0;points=[];rounded=1;" parent="1" vertex="1" connectable="0">
          <mxGeometry x="1631.9951851851852" y="1627" as="geometry">
            <mxPoint x="-2" y="-47" as="offset" />
          </mxGeometry>
        </mxCell>
        <mxCell id="jEkXnfsxQ-_I6rloK0n_-4" value="1" style="ellipse;whiteSpace=wrap;html=1;aspect=fixed;rounded=1;fillColor=#FF77BF;" parent="1" vertex="1">
          <mxGeometry x="1539" y="1652" width="23" height="23" as="geometry" />
        </mxCell>
        <mxCell id="jEkXnfsxQ-_I6rloK0n_-9" value="&lt;span style=&quot;font-size: 18px;&quot;&gt;&lt;i&gt;Номер потока&lt;/i&gt;&lt;/span&gt;" style="text;html=1;align=center;verticalAlign=middle;whiteSpace=wrap;rounded=1;shadow=0;fontSize=23;fontStyle=0" parent="1" vertex="1">
          <mxGeometry x="1550" y="1639" width="161" height="49" as="geometry" />
        </mxCell>
        <mxCell id="d3r_7VUgfL_-Ddzbqp2A-3" value="&lt;h1 style=&quot;margin-top: 0px; font-size: 15px;&quot;&gt;&lt;p class=&quot;p1&quot; style=&quot;margin: 0px 0px 0px 21px; text-indent: -21px; font-variant-numeric: normal; font-variant-east-asian: normal; font-variant-alternates: normal; font-kerning: auto; font-optical-sizing: auto; font-feature-settings: normal; font-variation-settings: normal; font-variant-position: normal; font-stretch: normal; font-size: 15px; line-height: normal; color: rgb(14, 14, 14);&quot;&gt;&lt;span class=&quot;s1&quot; style=&quot;font-weight: 400; font-variant-numeric: normal; font-variant-east-asian: normal; font-variant-alternates: normal; font-kerning: auto; font-optical-sizing: auto; font-feature-settings: normal; font-variation-settings: normal; font-variant-position: normal; font-stretch: normal; line-height: normal; font-family: &amp;quot;Times New Roman&amp;quot;; font-size: 15px;&quot;&gt;1.&amp;nbsp;&lt;/span&gt;&lt;b style=&quot;font-size: 15px;&quot;&gt;Инициировать платёж&lt;/b&gt;&lt;b style=&quot;font-weight: 400; font-size: 15px;&quot;&gt;&amp;nbsp;&lt;/b&gt;&lt;span style=&quot;background-color: initial; color: rgb(51, 51, 51); font-family: &amp;quot;YS Text&amp;quot;, -apple-system, BlinkMacSystemFont, Arial, Helvetica, sans-serif; font-size: 16px; font-weight: 400;&quot;&gt;—&lt;/span&gt;&lt;span style=&quot;background-color: initial; color: rgb(0, 0, 0); font-weight: normal;&quot;&gt;&amp;nbsp;т&lt;/span&gt;&lt;span style=&quot;background-color: initial; font-weight: 400;&quot;&gt;орговая площадка инициирует платёж, отправив необходимые данные (ID пользователя, ID заказа, сумма заказа) в платёжный сервис.&lt;/span&gt;&lt;/p&gt;&lt;p class=&quot;p1&quot; style=&quot;margin: 0px 0px 0px 21px; text-indent: -21px; font-variant-numeric: normal; font-variant-east-asian: normal; font-variant-alternates: normal; font-kerning: auto; font-optical-sizing: auto; font-feature-settings: normal; font-variation-settings: normal; font-variant-position: normal; font-weight: 400; font-stretch: normal; font-size: 15px; line-height: normal; color: rgb(14, 14, 14);&quot;&gt;&lt;span class=&quot;s1&quot; style=&quot;font-variant-numeric: normal; font-variant-east-asian: normal; font-variant-alternates: normal; font-kerning: auto; font-optical-sizing: auto; font-feature-settings: normal; font-variation-settings: normal; font-variant-position: normal; font-stretch: normal; line-height: normal; font-family: &amp;quot;Times New Roman&amp;quot;; font-size: 15px;&quot;&gt;2.&amp;nbsp;&lt;/span&gt;&lt;b style=&quot;font-size: 15px;&quot;&gt;Предоставить статус платежа&amp;nbsp;&lt;/b&gt;&lt;span style=&quot;background-color: initial; color: rgb(51, 51, 51); font-family: &amp;quot;YS Text&amp;quot;, -apple-system, BlinkMacSystemFont, Arial, Helvetica, sans-serif; font-size: 16px;&quot;&gt;— п&lt;/span&gt;&lt;span style=&quot;background-color: initial; color: rgb(0, 0, 0);&quot;&gt;латё&lt;/span&gt;&lt;span style=&quot;background-color: initial; color: rgb(0, 0, 0);&quot;&gt;жный сервис принял запрос на проведение оплаты,&lt;/span&gt;&lt;span style=&quot;background-color: initial;&quot; class=&quot;Apple-converted-space&quot;&gt;&amp;nbsp;&lt;/span&gt;&lt;span style=&quot;background-color: initial;&quot;&gt;подтвердил возможность проведения платежа со счёта клиента, назначил идентификатор для этой транзакции и установил статус.&lt;/span&gt;&lt;/p&gt;&lt;p class=&quot;p1&quot; style=&quot;margin: 0px 0px 0px 21px; text-indent: -21px; font-variant-numeric: normal; font-variant-east-asian: normal; font-variant-alternates: normal; font-kerning: auto; font-optical-sizing: auto; font-feature-settings: normal; font-variation-settings: normal; font-variant-position: normal; font-weight: 400; font-stretch: normal; font-size: 15px; line-height: normal; color: rgb(14, 14, 14);&quot;&gt;&lt;span class=&quot;s1&quot; style=&quot;font-variant-numeric: normal; font-variant-east-asian: normal; font-variant-alternates: normal; font-kerning: auto; font-optical-sizing: auto; font-feature-settings: normal; font-variation-settings: normal; font-variant-position: normal; font-stretch: normal; line-height: normal; font-family: &amp;quot;Times New Roman&amp;quot;; font-size: 15px;&quot;&gt;3.&amp;nbsp;&lt;/span&gt;&lt;b style=&quot;font-size: 15px;&quot;&gt;Подтверждение платежа&amp;nbsp;&lt;/b&gt;&lt;span style=&quot;background-color: initial; color: rgb(51, 51, 51); font-family: &amp;quot;YS Text&amp;quot;, -apple-system, BlinkMacSystemFont, Arial, Helvetica, sans-serif; font-size: 16px;&quot;&gt;— т&lt;/span&gt;&lt;span style=&quot;background-color: initial; color: rgb(0, 0, 0);&quot;&gt;орговая площадка уведомляет платёжный сервис о подтверждении операции, отправляя ID транзакции.&lt;/span&gt;&lt;/p&gt;&lt;p class=&quot;p1&quot; style=&quot;margin: 0px 0px 0px 21px; text-indent: -21px; font-variant-numeric: normal; font-variant-east-asian: normal; font-variant-alternates: normal; font-kerning: auto; font-optical-sizing: auto; font-feature-settings: normal; font-variation-settings: normal; font-variant-position: normal; font-weight: 400; font-stretch: normal; font-size: 15px; line-height: normal; color: rgb(14, 14, 14);&quot;&gt;&lt;span class=&quot;s1&quot; style=&quot;font-variant-numeric: normal; font-variant-east-asian: normal; font-variant-alternates: normal; font-kerning: auto; font-optical-sizing: auto; font-feature-settings: normal; font-variation-settings: normal; font-variant-position: normal; font-stretch: normal; line-height: normal; font-family: &amp;quot;Times New Roman&amp;quot;; font-size: 15px;&quot;&gt;4.&amp;nbsp;&lt;/span&gt;&lt;b style=&quot;font-size: 15px;&quot;&gt;Запросить статус платежа&lt;/b&gt;&amp;nbsp;&lt;span style=&quot;background-color: initial; color: rgb(51, 51, 51); font-family: &amp;quot;YS Text&amp;quot;, -apple-system, BlinkMacSystemFont, Arial, Helvetica, sans-serif; font-size: 16px;&quot;&gt;— т&lt;/span&gt;&lt;span style=&quot;background-color: initial; color: rgb(0, 0, 0);&quot;&gt;орговая площадка отправляет запрос в платёжный сервис для получения текущего статуса обработки транзакции по ID.&lt;/span&gt;&lt;/p&gt;&lt;p class=&quot;p1&quot; style=&quot;margin: 0px 0px 0px 21px; text-indent: -21px; font-variant-numeric: normal; font-variant-east-asian: normal; font-variant-alternates: normal; font-kerning: auto; font-optical-sizing: auto; font-feature-settings: normal; font-variation-settings: normal; font-variant-position: normal; font-weight: 400; font-stretch: normal; font-size: 15px; line-height: normal; color: rgb(14, 14, 14);&quot;&gt;&lt;span class=&quot;s1&quot; style=&quot;font-variant-numeric: normal; font-variant-east-asian: normal; font-variant-alternates: normal; font-kerning: auto; font-optical-sizing: auto; font-feature-settings: normal; font-variation-settings: normal; font-variant-position: normal; font-stretch: normal; line-height: normal; font-family: &amp;quot;Times New Roman&amp;quot;; font-size: 15px;&quot;&gt;5.&amp;nbsp;&lt;/span&gt;&lt;b style=&quot;font-size: 15px;&quot;&gt;Подтверждение отмены платежа (альтернативный сценарий)&amp;nbsp;&lt;/b&gt;&lt;span style=&quot;background-color: initial; color: rgb(51, 51, 51); font-family: &amp;quot;YS Text&amp;quot;, -apple-system, BlinkMacSystemFont, Arial, Helvetica, sans-serif; font-size: 16px;&quot;&gt;— п&lt;/span&gt;&lt;span style=&quot;background-color: initial; color: rgb(0, 0, 0);&quot;&gt;латёжный сервис уведомляет систему об успешной отмене платежа, предоставляя статус отменённой транзакции.&lt;/span&gt;&lt;/p&gt;&lt;/h1&gt;" style="text;html=1;whiteSpace=wrap;overflow=hidden;rounded=0;fontSize=15;" parent="1" vertex="1">
          <mxGeometry x="1964" y="1421" width="904" height="189" as="geometry" />
        </mxCell>
        <mxCell id="ro2GFgqDV0QlA6Vm-lQV-1" value="&lt;font style=&quot;font-size: 20px;&quot;&gt;Описание взаимодействий&lt;/font&gt;" style="text;html=1;align=center;verticalAlign=middle;whiteSpace=wrap;rounded=0;" parent="1" vertex="1">
          <mxGeometry x="2231" y="1352" width="310" height="30" as="geometry" />
        </mxCell>
        <mxCell id="BZBJQn5B5M7l6MrAMs_o-22" value="" style="group" parent="1" vertex="1" connectable="0">
          <mxGeometry x="1947" y="676" width="309" height="39" as="geometry" />
        </mxCell>
        <mxCell id="Tz6aEU4ManMyac2rpAqn-106" value="" style="rounded=1;whiteSpace=wrap;html=1;fillColor=#1C57CD;strokeColor=none;" parent="BZBJQn5B5M7l6MrAMs_o-22" vertex="1">
          <mxGeometry width="309" height="39" as="geometry" />
        </mxCell>
        <mxCell id="Tz6aEU4ManMyac2rpAqn-107" value="" style="sketch=0;outlineConnect=0;fontColor=#232F3E;gradientColor=none;fillColor=#FFFFFF;strokeColor=none;dashed=0;verticalLabelPosition=bottom;verticalAlign=top;align=center;html=1;fontSize=12;fontStyle=0;aspect=fixed;pointerEvents=1;shape=mxgraph.aws4.gear;rounded=1;" parent="BZBJQn5B5M7l6MrAMs_o-22" vertex="1">
          <mxGeometry x="286" y="11" width="17" height="17" as="geometry" />
        </mxCell>
        <mxCell id="Tz6aEU4ManMyac2rpAqn-108" value="Определить способ оплаты" style="text;html=1;align=center;verticalAlign=middle;whiteSpace=wrap;rounded=1;fontSize=13;fontColor=#FFFFFF;strokeColor=none;" parent="BZBJQn5B5M7l6MrAMs_o-22" vertex="1">
          <mxGeometry x="7" y="4.5" width="173" height="30" as="geometry" />
        </mxCell>
        <mxCell id="BZBJQn5B5M7l6MrAMs_o-46" value="" style="group" parent="1" vertex="1" connectable="0">
          <mxGeometry x="1948" y="613" width="309" height="39" as="geometry" />
        </mxCell>
        <mxCell id="Tz6aEU4ManMyac2rpAqn-130" value="" style="rounded=1;whiteSpace=wrap;html=1;fillColor=#1C57CD;strokeColor=none;" parent="BZBJQn5B5M7l6MrAMs_o-46" vertex="1">
          <mxGeometry width="309" height="39" as="geometry" />
        </mxCell>
        <mxCell id="Tz6aEU4ManMyac2rpAqn-131" value="" style="sketch=0;outlineConnect=0;fontColor=#232F3E;gradientColor=none;fillColor=#FFFFFF;strokeColor=none;dashed=0;verticalLabelPosition=bottom;verticalAlign=top;align=center;html=1;fontSize=12;fontStyle=0;aspect=fixed;pointerEvents=1;shape=mxgraph.aws4.gear;rounded=1;" parent="BZBJQn5B5M7l6MrAMs_o-46" vertex="1">
          <mxGeometry x="280" y="11" width="17" height="17" as="geometry" />
        </mxCell>
        <mxCell id="Tz6aEU4ManMyac2rpAqn-132" value="Предоставить статус операции" style="text;html=1;align=center;verticalAlign=middle;whiteSpace=wrap;rounded=1;fontSize=13;fontColor=#FFFFFF;strokeColor=none;" parent="BZBJQn5B5M7l6MrAMs_o-46" vertex="1">
          <mxGeometry y="4.5" width="207" height="30" as="geometry" />
        </mxCell>
        <mxCell id="BZBJQn5B5M7l6MrAMs_o-47" value="" style="group" parent="1" vertex="1" connectable="0">
          <mxGeometry x="1948" y="494" width="309" height="39" as="geometry" />
        </mxCell>
        <mxCell id="Tz6aEU4ManMyac2rpAqn-127" value="" style="rounded=1;whiteSpace=wrap;html=1;fillColor=#1C57CD;strokeColor=none;" parent="BZBJQn5B5M7l6MrAMs_o-47" vertex="1">
          <mxGeometry width="309" height="39" as="geometry" />
        </mxCell>
        <mxCell id="Tz6aEU4ManMyac2rpAqn-128" value="" style="sketch=0;outlineConnect=0;fontColor=#232F3E;gradientColor=none;fillColor=#FFFFFF;strokeColor=none;dashed=0;verticalLabelPosition=bottom;verticalAlign=top;align=center;html=1;fontSize=12;fontStyle=0;aspect=fixed;pointerEvents=1;shape=mxgraph.aws4.gear;rounded=1;" parent="BZBJQn5B5M7l6MrAMs_o-47" vertex="1">
          <mxGeometry x="280" y="11" width="17" height="17" as="geometry" />
        </mxCell>
        <mxCell id="Tz6aEU4ManMyac2rpAqn-129" value="Запросить статус операции" style="text;html=1;align=center;verticalAlign=middle;whiteSpace=wrap;rounded=1;fontSize=13;fontColor=#FFFFFF;strokeColor=none;" parent="BZBJQn5B5M7l6MrAMs_o-47" vertex="1">
          <mxGeometry x="3" y="6" width="179" height="30" as="geometry" />
        </mxCell>
        <mxCell id="BZBJQn5B5M7l6MrAMs_o-48" value="" style="group" parent="1" vertex="1" connectable="0">
          <mxGeometry x="1948" y="408" width="309" height="39" as="geometry" />
        </mxCell>
        <mxCell id="Tz6aEU4ManMyac2rpAqn-124" value="" style="rounded=1;whiteSpace=wrap;html=1;fillColor=#1C57CD;strokeColor=none;" parent="BZBJQn5B5M7l6MrAMs_o-48" vertex="1">
          <mxGeometry width="309" height="39" as="geometry" />
        </mxCell>
        <mxCell id="Tz6aEU4ManMyac2rpAqn-125" value="" style="sketch=0;outlineConnect=0;fontColor=#232F3E;gradientColor=none;fillColor=#FFFFFF;strokeColor=none;dashed=0;verticalLabelPosition=bottom;verticalAlign=top;align=center;html=1;fontSize=12;fontStyle=0;aspect=fixed;pointerEvents=1;shape=mxgraph.aws4.gear;rounded=1;" parent="BZBJQn5B5M7l6MrAMs_o-48" vertex="1">
          <mxGeometry x="280" y="11" width="17" height="17" as="geometry" />
        </mxCell>
        <mxCell id="Tz6aEU4ManMyac2rpAqn-126" value="Инициировать отмену транзакции" style="text;html=1;align=center;verticalAlign=middle;whiteSpace=wrap;rounded=1;fontSize=13;fontColor=#FFFFFF;strokeColor=none;" parent="BZBJQn5B5M7l6MrAMs_o-48" vertex="1">
          <mxGeometry x="2" y="4" width="223" height="30" as="geometry" />
        </mxCell>
        <mxCell id="BZBJQn5B5M7l6MrAMs_o-49" value="" style="group" parent="1" vertex="1" connectable="0">
          <mxGeometry x="1948" y="341" width="309" height="39" as="geometry" />
        </mxCell>
        <mxCell id="Tz6aEU4ManMyac2rpAqn-121" value="" style="rounded=1;whiteSpace=wrap;html=1;fillColor=#1C57CD;strokeColor=none;" parent="BZBJQn5B5M7l6MrAMs_o-49" vertex="1">
          <mxGeometry width="309" height="39" as="geometry" />
        </mxCell>
        <mxCell id="Tz6aEU4ManMyac2rpAqn-122" value="" style="sketch=0;outlineConnect=0;fontColor=#232F3E;gradientColor=none;fillColor=#FFFFFF;strokeColor=none;dashed=0;verticalLabelPosition=bottom;verticalAlign=top;align=center;html=1;fontSize=12;fontStyle=0;aspect=fixed;pointerEvents=1;shape=mxgraph.aws4.gear;rounded=1;" parent="BZBJQn5B5M7l6MrAMs_o-49" vertex="1">
          <mxGeometry x="280" y="11" width="17" height="17" as="geometry" />
        </mxCell>
        <mxCell id="Tz6aEU4ManMyac2rpAqn-123" value="Предоставить список и статус операций" style="text;html=1;align=center;verticalAlign=middle;whiteSpace=wrap;rounded=1;fontSize=13;fontColor=#FFFFFF;strokeColor=none;" parent="BZBJQn5B5M7l6MrAMs_o-49" vertex="1">
          <mxGeometry y="4.5" width="263" height="30" as="geometry" />
        </mxCell>
        <mxCell id="BZBJQn5B5M7l6MrAMs_o-50" value="" style="group" parent="1" vertex="1" connectable="0">
          <mxGeometry x="1940.5" y="275" width="316" height="39" as="geometry" />
        </mxCell>
        <mxCell id="Tz6aEU4ManMyac2rpAqn-118" value="" style="rounded=1;whiteSpace=wrap;html=1;fillColor=#1C57CD;strokeColor=none;" parent="BZBJQn5B5M7l6MrAMs_o-50" vertex="1">
          <mxGeometry x="7" width="309" height="39" as="geometry" />
        </mxCell>
        <mxCell id="Tz6aEU4ManMyac2rpAqn-119" value="" style="sketch=0;outlineConnect=0;fontColor=#232F3E;gradientColor=none;fillColor=#FFFFFF;strokeColor=none;dashed=0;verticalLabelPosition=bottom;verticalAlign=top;align=center;html=1;fontSize=12;fontStyle=0;aspect=fixed;pointerEvents=1;shape=mxgraph.aws4.gear;rounded=1;" parent="BZBJQn5B5M7l6MrAMs_o-50" vertex="1">
          <mxGeometry x="287" y="11" width="17" height="17" as="geometry" />
        </mxCell>
        <mxCell id="Tz6aEU4ManMyac2rpAqn-120" value="Авторизация платёжной операции" style="text;html=1;align=center;verticalAlign=middle;whiteSpace=wrap;rounded=1;fontSize=13;fontColor=#FFFFFF;strokeColor=none;" parent="BZBJQn5B5M7l6MrAMs_o-50" vertex="1">
          <mxGeometry y="4.5" width="243" height="30" as="geometry" />
        </mxCell>
        <mxCell id="BZBJQn5B5M7l6MrAMs_o-51" value="" style="group" parent="1" vertex="1" connectable="0">
          <mxGeometry x="1950" y="218" width="309" height="39" as="geometry" />
        </mxCell>
        <mxCell id="Tz6aEU4ManMyac2rpAqn-115" value="" style="rounded=1;whiteSpace=wrap;html=1;fillColor=#1C57CD;strokeColor=none;" parent="BZBJQn5B5M7l6MrAMs_o-51" vertex="1">
          <mxGeometry width="309" height="39" as="geometry" />
        </mxCell>
        <mxCell id="Tz6aEU4ManMyac2rpAqn-116" value="" style="sketch=0;outlineConnect=0;fontColor=#232F3E;gradientColor=none;fillColor=#FFFFFF;strokeColor=none;dashed=0;verticalLabelPosition=bottom;verticalAlign=top;align=center;html=1;fontSize=12;fontStyle=0;aspect=fixed;pointerEvents=1;shape=mxgraph.aws4.gear;rounded=1;" parent="BZBJQn5B5M7l6MrAMs_o-51" vertex="1">
          <mxGeometry x="280" y="11" width="17" height="17" as="geometry" />
        </mxCell>
        <mxCell id="Tz6aEU4ManMyac2rpAqn-117" value="Учёт платёжной операции" style="text;html=1;align=center;verticalAlign=middle;whiteSpace=wrap;rounded=1;fontSize=13;fontColor=#FFFFFF;strokeColor=none;" parent="BZBJQn5B5M7l6MrAMs_o-51" vertex="1">
          <mxGeometry x="5" y="4.5" width="173" height="30" as="geometry" />
        </mxCell>
        <mxCell id="BZBJQn5B5M7l6MrAMs_o-52" value="" style="group" parent="1" vertex="1" connectable="0">
          <mxGeometry x="1949" y="544" width="309" height="39" as="geometry" />
        </mxCell>
        <mxCell id="Tz6aEU4ManMyac2rpAqn-109" value="" style="rounded=1;whiteSpace=wrap;html=1;fillColor=#1C57CD;strokeColor=none;" parent="BZBJQn5B5M7l6MrAMs_o-52" vertex="1">
          <mxGeometry x="-3.5" width="309" height="39" as="geometry" />
        </mxCell>
        <mxCell id="Tz6aEU4ManMyac2rpAqn-110" value="" style="sketch=0;outlineConnect=0;fontColor=#232F3E;gradientColor=none;fillColor=#FFFFFF;strokeColor=none;dashed=0;verticalLabelPosition=bottom;verticalAlign=top;align=center;html=1;fontSize=12;fontStyle=0;aspect=fixed;pointerEvents=1;shape=mxgraph.aws4.gear;rounded=1;" parent="BZBJQn5B5M7l6MrAMs_o-52" vertex="1">
          <mxGeometry x="280" y="11" width="17" height="17" as="geometry" />
        </mxCell>
        <mxCell id="Tz6aEU4ManMyac2rpAqn-111" value="Инициировать платёжную операцию" style="text;html=1;align=center;verticalAlign=middle;whiteSpace=wrap;rounded=1;fontSize=13;fontColor=#FFFFFF;strokeColor=none;" parent="BZBJQn5B5M7l6MrAMs_o-52" vertex="1">
          <mxGeometry y="4.5" width="243" height="30" as="geometry" />
        </mxCell>
        <mxCell id="ISwjRsLXD4yoOcMXPSiY-1" value="" style="group" parent="1" vertex="1" connectable="0">
          <mxGeometry x="2840" y="-410" width="260" height="39" as="geometry" />
        </mxCell>
        <mxCell id="cKbgiC5qh_IXnBO1eU4K-172" value="" style="rounded=1;whiteSpace=wrap;html=1;fillColor=#ffe6cc;strokeColor=#d79b00;" parent="ISwjRsLXD4yoOcMXPSiY-1" vertex="1">
          <mxGeometry x="10" width="250" height="39" as="geometry" />
        </mxCell>
        <mxCell id="cKbgiC5qh_IXnBO1eU4K-173" value="" style="sketch=0;outlineConnect=0;fontColor=#232F3E;gradientColor=none;fillColor=#232F3D;strokeColor=none;dashed=0;verticalLabelPosition=bottom;verticalAlign=top;align=center;html=1;fontSize=12;fontStyle=0;aspect=fixed;pointerEvents=1;shape=mxgraph.aws4.gear;rounded=1;" parent="ISwjRsLXD4yoOcMXPSiY-1" vertex="1">
          <mxGeometry x="230" y="11" width="17" height="17" as="geometry" />
        </mxCell>
        <mxCell id="cKbgiC5qh_IXnBO1eU4K-174" value="Инициировать платёж" style="text;html=1;align=center;verticalAlign=middle;whiteSpace=wrap;rounded=1;fontSize=13;" parent="ISwjRsLXD4yoOcMXPSiY-1" vertex="1">
          <mxGeometry y="4.5" width="170" height="30" as="geometry" />
        </mxCell>
        <mxCell id="ISwjRsLXD4yoOcMXPSiY-2" value="" style="group" parent="1" vertex="1" connectable="0">
          <mxGeometry x="2840" y="-360" width="260" height="39" as="geometry" />
        </mxCell>
        <mxCell id="cKbgiC5qh_IXnBO1eU4K-129" value="" style="rounded=1;whiteSpace=wrap;html=1;fillColor=#ffe6cc;strokeColor=#d79b00;" parent="ISwjRsLXD4yoOcMXPSiY-2" vertex="1">
          <mxGeometry x="10" width="250" height="39" as="geometry" />
        </mxCell>
        <mxCell id="cKbgiC5qh_IXnBO1eU4K-130" value="" style="sketch=0;outlineConnect=0;fontColor=#232F3E;gradientColor=none;fillColor=#232F3D;strokeColor=none;dashed=0;verticalLabelPosition=bottom;verticalAlign=top;align=center;html=1;fontSize=12;fontStyle=0;aspect=fixed;pointerEvents=1;shape=mxgraph.aws4.gear;rounded=1;" parent="ISwjRsLXD4yoOcMXPSiY-2" vertex="1">
          <mxGeometry x="230" y="11" width="17" height="17" as="geometry" />
        </mxCell>
        <mxCell id="cKbgiC5qh_IXnBO1eU4K-131" value="Подтвердить платёж" style="text;html=1;align=center;verticalAlign=middle;whiteSpace=wrap;rounded=1;fontSize=13;" parent="ISwjRsLXD4yoOcMXPSiY-2" vertex="1">
          <mxGeometry y="4.5" width="170" height="30" as="geometry" />
        </mxCell>
        <mxCell id="ISwjRsLXD4yoOcMXPSiY-3" value="" style="group" parent="1" vertex="1" connectable="0">
          <mxGeometry x="2850" y="-310" width="250" height="39" as="geometry" />
        </mxCell>
        <mxCell id="cKbgiC5qh_IXnBO1eU4K-132" value="" style="rounded=1;whiteSpace=wrap;html=1;fillColor=#ffe6cc;strokeColor=#d79b00;" parent="ISwjRsLXD4yoOcMXPSiY-3" vertex="1">
          <mxGeometry width="250" height="39" as="geometry" />
        </mxCell>
        <mxCell id="cKbgiC5qh_IXnBO1eU4K-133" value="" style="sketch=0;outlineConnect=0;fontColor=#232F3E;gradientColor=none;fillColor=#232F3D;strokeColor=none;dashed=0;verticalLabelPosition=bottom;verticalAlign=top;align=center;html=1;fontSize=12;fontStyle=0;aspect=fixed;pointerEvents=1;shape=mxgraph.aws4.gear;rounded=1;" parent="ISwjRsLXD4yoOcMXPSiY-3" vertex="1">
          <mxGeometry x="220" y="11" width="17" height="17" as="geometry" />
        </mxCell>
        <mxCell id="cKbgiC5qh_IXnBO1eU4K-134" value="Предоставить статус платежа" style="text;html=1;align=center;verticalAlign=middle;whiteSpace=wrap;rounded=1;fontSize=13;" parent="ISwjRsLXD4yoOcMXPSiY-3" vertex="1">
          <mxGeometry y="4.5" width="200" height="30" as="geometry" />
        </mxCell>
        <mxCell id="ISwjRsLXD4yoOcMXPSiY-4" value="" style="group" parent="1" vertex="1" connectable="0">
          <mxGeometry x="2840" y="-260" width="260" height="39" as="geometry" />
        </mxCell>
        <mxCell id="cKbgiC5qh_IXnBO1eU4K-135" value="" style="rounded=1;whiteSpace=wrap;html=1;fillColor=#ffe6cc;strokeColor=#d79b00;" parent="ISwjRsLXD4yoOcMXPSiY-4" vertex="1">
          <mxGeometry x="10" width="250" height="39" as="geometry" />
        </mxCell>
        <mxCell id="cKbgiC5qh_IXnBO1eU4K-136" value="" style="sketch=0;outlineConnect=0;fontColor=#232F3E;gradientColor=none;fillColor=#232F3D;strokeColor=none;dashed=0;verticalLabelPosition=bottom;verticalAlign=top;align=center;html=1;fontSize=12;fontStyle=0;aspect=fixed;pointerEvents=1;shape=mxgraph.aws4.gear;rounded=1;" parent="ISwjRsLXD4yoOcMXPSiY-4" vertex="1">
          <mxGeometry x="230" y="11" width="17" height="17" as="geometry" />
        </mxCell>
        <mxCell id="cKbgiC5qh_IXnBO1eU4K-137" value="Подтвердить отмену платежа" style="text;html=1;align=center;verticalAlign=middle;whiteSpace=wrap;rounded=1;fontSize=13;" parent="ISwjRsLXD4yoOcMXPSiY-4" vertex="1">
          <mxGeometry y="4.5" width="210" height="30" as="geometry" />
        </mxCell>
        <mxCell id="ISwjRsLXD4yoOcMXPSiY-5" value="" style="group" parent="1" vertex="1" connectable="0">
          <mxGeometry x="2420" y="236" width="151" height="49" as="geometry" />
        </mxCell>
        <mxCell id="cKbgiC5qh_IXnBO1eU4K-93" value="&lt;p style=&quot;margin: 0px 0px 0px 13px; text-indent: -13px; font-variant-numeric: normal; font-variant-east-asian: normal; font-variant-alternates: normal; font-kerning: auto; font-optical-sizing: auto; font-feature-settings: normal; font-variation-settings: normal; font-variant-position: normal; font-stretch: normal; font-size: 14px; line-height: normal; color: rgb(14, 14, 14); text-align: start;&quot; class=&quot;p1&quot;&gt;&lt;br&gt;&lt;/p&gt;" style="rounded=1;whiteSpace=wrap;html=1;fillColor=#FF77BF;strokeColor=none;arcSize=50;" parent="ISwjRsLXD4yoOcMXPSiY-5" vertex="1">
          <mxGeometry y="9" width="151" height="33" as="geometry" />
        </mxCell>
        <mxCell id="ISwjRsLXD4yoOcMXPSiY-11" value="" style="group" parent="1" vertex="1" connectable="0">
          <mxGeometry x="1228" y="1394" width="270" height="39" as="geometry" />
        </mxCell>
        <mxCell id="D1CTnjmkYU0Mq4A9S6dc-1" value="" style="rounded=1;whiteSpace=wrap;html=1;strokeColor=none;fillColor=#1C57CD;" parent="ISwjRsLXD4yoOcMXPSiY-11" vertex="1">
          <mxGeometry width="270" height="39" as="geometry" />
        </mxCell>
        <mxCell id="D1CTnjmkYU0Mq4A9S6dc-2" value="" style="sketch=0;outlineConnect=0;fontColor=#FFFFFF;gradientColor=none;fillColor=#FFFFFF;strokeColor=none;dashed=0;verticalLabelPosition=bottom;verticalAlign=top;align=center;html=1;fontSize=12;fontStyle=0;aspect=fixed;pointerEvents=1;shape=mxgraph.aws4.gear;rounded=1;" parent="ISwjRsLXD4yoOcMXPSiY-11" vertex="1">
          <mxGeometry x="238" y="12" width="17" height="17" as="geometry" />
        </mxCell>
        <mxCell id="D1CTnjmkYU0Mq4A9S6dc-3" value="&lt;font style=&quot;font-size: 18px;&quot;&gt;Функция&lt;/font&gt;" style="text;html=1;align=center;verticalAlign=middle;whiteSpace=wrap;rounded=1;fontSize=13;fontColor=#FFFFFF;" parent="ISwjRsLXD4yoOcMXPSiY-11" vertex="1">
          <mxGeometry x="22" y="5" width="78" height="30" as="geometry" />
        </mxCell>
        <mxCell id="ISwjRsLXD4yoOcMXPSiY-12" value="" style="group" parent="1" vertex="1" connectable="0">
          <mxGeometry x="1544" y="1401" width="157" height="25" as="geometry" />
        </mxCell>
        <mxCell id="D1CTnjmkYU0Mq4A9S6dc-12" value="&lt;p style=&quot;margin: 0px 0px 0px 13px; text-indent: -13px; font-variant-numeric: normal; font-variant-east-asian: normal; font-variant-alternates: normal; font-kerning: auto; font-optical-sizing: auto; font-feature-settings: normal; font-variation-settings: normal; font-variant-position: normal; font-stretch: normal; font-size: 14px; line-height: normal; color: rgb(14, 14, 14); text-align: start;&quot; class=&quot;p1&quot;&gt;&lt;br&gt;&lt;/p&gt;" style="rounded=1;whiteSpace=wrap;html=1;fillColor=#FF77BF;strokeColor=none;arcSize=33;" parent="ISwjRsLXD4yoOcMXPSiY-12" vertex="1">
          <mxGeometry x="3" y="1" width="151" height="24" as="geometry" />
        </mxCell>
        <mxCell id="D1CTnjmkYU0Mq4A9S6dc-13" value="&lt;span style=&quot;font-size: 18px;&quot;&gt;&lt;i&gt;Стэк/Окружение&lt;/i&gt;&lt;/span&gt;" style="text;html=1;align=center;verticalAlign=middle;whiteSpace=wrap;rounded=1;shadow=0;fontSize=23;fontStyle=1" parent="ISwjRsLXD4yoOcMXPSiY-12" vertex="1">
          <mxGeometry width="157" height="17" as="geometry" />
        </mxCell>
        <mxCell id="ISwjRsLXD4yoOcMXPSiY-13" value="" style="group" parent="1" vertex="1" connectable="0">
          <mxGeometry x="868" y="1547" width="333" height="145" as="geometry" />
        </mxCell>
        <mxCell id="D1CTnjmkYU0Mq4A9S6dc-9" value="" style="rounded=1;whiteSpace=wrap;html=1;arcSize=5;fillColor=#fff2cc;strokeColor=#d6b656;" parent="ISwjRsLXD4yoOcMXPSiY-13" vertex="1">
          <mxGeometry width="333" height="145" as="geometry" />
        </mxCell>
        <mxCell id="D1CTnjmkYU0Mq4A9S6dc-10" value="&lt;span style=&quot;font-weight: normal;&quot;&gt;Внешний/Партнёрский сервис&lt;/span&gt;" style="text;html=1;align=center;verticalAlign=middle;whiteSpace=wrap;rounded=1;shadow=0;fontSize=23;fontStyle=1" parent="ISwjRsLXD4yoOcMXPSiY-13" vertex="1">
          <mxGeometry x="2" y="1" width="331" height="49" as="geometry" />
        </mxCell>
        <mxCell id="ISwjRsLXD4yoOcMXPSiY-14" value="" style="group" parent="1" vertex="1" connectable="0">
          <mxGeometry x="865" y="1379" width="331" height="143" as="geometry" />
        </mxCell>
        <mxCell id="D1CTnjmkYU0Mq4A9S6dc-5" value="" style="rounded=1;whiteSpace=wrap;html=1;arcSize=5;fillColor=#f5f5f5;strokeColor=#1C57CD;strokeWidth=3;" parent="ISwjRsLXD4yoOcMXPSiY-14" vertex="1">
          <mxGeometry width="331" height="143" as="geometry" />
        </mxCell>
        <mxCell id="D1CTnjmkYU0Mq4A9S6dc-6" value="&lt;font style=&quot;font-size: 23px;&quot;&gt;Система/Сервис&lt;/font&gt;" style="text;html=1;align=center;verticalAlign=middle;whiteSpace=wrap;rounded=1;fontSize=13;" parent="ISwjRsLXD4yoOcMXPSiY-14" vertex="1">
          <mxGeometry x="1" y="6" width="206" height="30" as="geometry" />
        </mxCell>
        <mxCell id="PlenrtrV-lZkWa3VHan3-24" value="" style="group" parent="1" vertex="1" connectable="0">
          <mxGeometry x="-449" y="652" width="790" height="415" as="geometry" />
        </mxCell>
        <mxCell id="PlenrtrV-lZkWa3VHan3-21" value="" style="rounded=1;whiteSpace=wrap;html=1;arcSize=3;movable=1;resizable=1;rotatable=1;deletable=1;editable=1;locked=0;connectable=1;fillColor=#f5f5f5;strokeColor=#FF0000;strokeWidth=3;fontColor=#333333;" parent="PlenrtrV-lZkWa3VHan3-24" vertex="1">
          <mxGeometry width="790" height="415" as="geometry" />
        </mxCell>
        <mxCell id="BZBJQn5B5M7l6MrAMs_o-40" value="" style="group" parent="PlenrtrV-lZkWa3VHan3-24" vertex="1" connectable="0">
          <mxGeometry x="30.00333333333333" y="303.9996765498653" width="353.7826086956522" height="43.62533692722372" as="geometry" />
        </mxCell>
        <mxCell id="cKbgiC5qh_IXnBO1eU4K-40" value="" style="rounded=1;whiteSpace=wrap;html=1;fillColor=#1C57CD;strokeColor=none;" parent="BZBJQn5B5M7l6MrAMs_o-40" vertex="1">
          <mxGeometry width="353.7826086956522" height="43.62533692722372" as="geometry" />
        </mxCell>
        <mxCell id="cKbgiC5qh_IXnBO1eU4K-41" value="" style="sketch=0;outlineConnect=0;fontColor=#232F3E;gradientColor=none;fillColor=#FFFFFF;strokeColor=none;dashed=0;verticalLabelPosition=bottom;verticalAlign=top;align=center;html=1;fontSize=12;fontStyle=0;aspect=fixed;pointerEvents=1;shape=mxgraph.aws4.gear;rounded=1;" parent="BZBJQn5B5M7l6MrAMs_o-40" vertex="1">
          <mxGeometry x="320.5797101449275" y="12.304582210242588" width="19.016172506738545" height="19.016172506738545" as="geometry" />
        </mxCell>
        <mxCell id="cKbgiC5qh_IXnBO1eU4K-42" value="Обновление статуса заявки" style="text;html=1;align=center;verticalAlign=middle;whiteSpace=wrap;rounded=1;fontSize=13;fontColor=#FFFFFF;strokeColor=none;" parent="BZBJQn5B5M7l6MrAMs_o-40" vertex="1">
          <mxGeometry x="9.159420289855072" y="4.474393530997305" width="201.5072463768116" height="33.55795148247979" as="geometry" />
        </mxCell>
        <mxCell id="BZBJQn5B5M7l6MrAMs_o-41" value="" style="group" parent="PlenrtrV-lZkWa3VHan3-24" vertex="1" connectable="0">
          <mxGeometry x="408.99797101449275" y="74.00078167115903" width="353.7826086956522" height="43.62533692722372" as="geometry" />
        </mxCell>
        <mxCell id="cKbgiC5qh_IXnBO1eU4K-34" value="" style="rounded=1;whiteSpace=wrap;html=1;fillColor=#1C57CD;strokeColor=none;" parent="BZBJQn5B5M7l6MrAMs_o-41" vertex="1">
          <mxGeometry width="353.7826086956522" height="43.62533692722372" as="geometry" />
        </mxCell>
        <mxCell id="cKbgiC5qh_IXnBO1eU4K-35" value="" style="sketch=0;outlineConnect=0;fontColor=#232F3E;gradientColor=none;fillColor=#FFFFFF;strokeColor=none;dashed=0;verticalLabelPosition=bottom;verticalAlign=top;align=center;html=1;fontSize=12;fontStyle=0;aspect=fixed;pointerEvents=1;shape=mxgraph.aws4.gear;rounded=1;" parent="BZBJQn5B5M7l6MrAMs_o-41" vertex="1">
          <mxGeometry x="320.5797101449275" y="12.304582210242588" width="19.016172506738545" height="19.016172506738545" as="geometry" />
        </mxCell>
        <mxCell id="cKbgiC5qh_IXnBO1eU4K-36" value="Регистрация заявки на техподдержку" style="text;html=1;align=center;verticalAlign=middle;whiteSpace=wrap;rounded=1;fontSize=13;fontColor=#FFFFFF;strokeColor=none;" parent="BZBJQn5B5M7l6MrAMs_o-41" vertex="1">
          <mxGeometry x="4.579710144927536" y="5.033692722371968" width="285.0869565217391" height="33.55795148247979" as="geometry" />
        </mxCell>
        <mxCell id="BZBJQn5B5M7l6MrAMs_o-42" value="" style="group" parent="PlenrtrV-lZkWa3VHan3-24" vertex="1" connectable="0">
          <mxGeometry x="25.00333333333333" y="250.0004851752022" width="353.7826086956522" height="43.62533692722372" as="geometry" />
        </mxCell>
        <mxCell id="cKbgiC5qh_IXnBO1eU4K-31" value="" style="rounded=1;whiteSpace=wrap;html=1;fillColor=#1C57CD;strokeColor=none;" parent="BZBJQn5B5M7l6MrAMs_o-42" vertex="1">
          <mxGeometry width="353.7826086956522" height="43.62533692722372" as="geometry" />
        </mxCell>
        <mxCell id="cKbgiC5qh_IXnBO1eU4K-32" value="" style="sketch=0;outlineConnect=0;fontColor=#232F3E;gradientColor=none;fillColor=#FFFFFF;strokeColor=none;dashed=0;verticalLabelPosition=bottom;verticalAlign=top;align=center;html=1;fontSize=12;fontStyle=0;aspect=fixed;pointerEvents=1;shape=mxgraph.aws4.gear;rounded=1;" parent="BZBJQn5B5M7l6MrAMs_o-42" vertex="1">
          <mxGeometry x="320.5797101449275" y="12.304582210242588" width="19.016172506738545" height="19.016172506738545" as="geometry" />
        </mxCell>
        <mxCell id="cKbgiC5qh_IXnBO1eU4K-33" value="Создать заявку на техподдержку" style="text;html=1;align=center;verticalAlign=middle;whiteSpace=wrap;rounded=1;fontSize=13;fontColor=#FFFFFF;strokeColor=none;" parent="BZBJQn5B5M7l6MrAMs_o-42" vertex="1">
          <mxGeometry y="5.033692722371968" width="263.3333333333333" height="33.55795148247979" as="geometry" />
        </mxCell>
        <mxCell id="BZBJQn5B5M7l6MrAMs_o-43" value="" style="group" parent="PlenrtrV-lZkWa3VHan3-24" vertex="1" connectable="0">
          <mxGeometry x="29.768115942028984" y="191.00388140161726" width="353.7826086956522" height="43.62533692722372" as="geometry" />
        </mxCell>
        <mxCell id="cKbgiC5qh_IXnBO1eU4K-28" value="" style="rounded=1;whiteSpace=wrap;html=1;fillColor=#1C57CD;strokeColor=none;" parent="BZBJQn5B5M7l6MrAMs_o-43" vertex="1">
          <mxGeometry width="353.7826086956522" height="43.62533692722372" as="geometry" />
        </mxCell>
        <mxCell id="cKbgiC5qh_IXnBO1eU4K-29" value="" style="sketch=0;outlineConnect=0;fontColor=#232F3E;gradientColor=none;fillColor=#FFFFFF;strokeColor=none;dashed=0;verticalLabelPosition=bottom;verticalAlign=top;align=center;html=1;fontSize=12;fontStyle=0;aspect=fixed;pointerEvents=1;shape=mxgraph.aws4.gear;rounded=1;" parent="BZBJQn5B5M7l6MrAMs_o-43" vertex="1">
          <mxGeometry x="320.5797101449275" y="12.304582210242588" width="19.016172506738545" height="19.016172506738545" as="geometry" />
        </mxCell>
        <mxCell id="cKbgiC5qh_IXnBO1eU4K-30" value="Обновить статус заявки на апелляцию" style="text;html=1;align=center;verticalAlign=middle;whiteSpace=wrap;rounded=1;fontSize=13;fontColor=#FFFFFF;strokeColor=none;" parent="BZBJQn5B5M7l6MrAMs_o-43" vertex="1">
          <mxGeometry x="3.4347826086956523" y="5.033692722371968" width="286.231884057971" height="33.55795148247979" as="geometry" />
        </mxCell>
        <mxCell id="BZBJQn5B5M7l6MrAMs_o-44" value="" style="group" parent="PlenrtrV-lZkWa3VHan3-24" vertex="1" connectable="0">
          <mxGeometry x="32.05797101449275" y="133.99778975741242" width="353.7826086956522" height="43.62533692722372" as="geometry" />
        </mxCell>
        <mxCell id="cKbgiC5qh_IXnBO1eU4K-25" value="" style="rounded=1;whiteSpace=wrap;html=1;fillColor=#1C57CD;strokeColor=none;" parent="BZBJQn5B5M7l6MrAMs_o-44" vertex="1">
          <mxGeometry width="353.7826086956522" height="43.62533692722372" as="geometry" />
        </mxCell>
        <mxCell id="cKbgiC5qh_IXnBO1eU4K-26" value="" style="sketch=0;outlineConnect=0;fontColor=#232F3E;gradientColor=none;fillColor=#FFFFFF;strokeColor=none;dashed=0;verticalLabelPosition=bottom;verticalAlign=top;align=center;html=1;fontSize=12;fontStyle=0;aspect=fixed;pointerEvents=1;shape=mxgraph.aws4.gear;rounded=1;" parent="BZBJQn5B5M7l6MrAMs_o-44" vertex="1">
          <mxGeometry x="320.5797101449275" y="12.304582210242588" width="19.016172506738545" height="19.016172506738545" as="geometry" />
        </mxCell>
        <mxCell id="cKbgiC5qh_IXnBO1eU4K-27" value="Регистрация заявки на апелляцию" style="text;html=1;align=center;verticalAlign=middle;whiteSpace=wrap;rounded=1;fontSize=13;fontColor=#FFFFFF;strokeColor=none;" parent="BZBJQn5B5M7l6MrAMs_o-44" vertex="1">
          <mxGeometry x="1.144927536231884" y="5.033692722371968" width="259.8985507246377" height="33.55795148247979" as="geometry" />
        </mxCell>
        <mxCell id="BZBJQn5B5M7l6MrAMs_o-45" value="" style="group" parent="PlenrtrV-lZkWa3VHan3-24" vertex="1" connectable="0">
          <mxGeometry x="32.05797101449275" y="76.06469002695418" width="353.7826086956522" height="43.62533692722372" as="geometry" />
        </mxCell>
        <mxCell id="cKbgiC5qh_IXnBO1eU4K-22" value="" style="rounded=1;whiteSpace=wrap;html=1;fillColor=#1C57CD;strokeColor=none;" parent="BZBJQn5B5M7l6MrAMs_o-45" vertex="1">
          <mxGeometry width="353.7826086956522" height="43.62533692722372" as="geometry" />
        </mxCell>
        <mxCell id="cKbgiC5qh_IXnBO1eU4K-23" value="" style="sketch=0;outlineConnect=0;fontColor=#232F3E;gradientColor=none;fillColor=#FFFFFF;strokeColor=none;dashed=0;verticalLabelPosition=bottom;verticalAlign=top;align=center;html=1;fontSize=12;fontStyle=0;aspect=fixed;pointerEvents=1;shape=mxgraph.aws4.gear;rounded=1;" parent="BZBJQn5B5M7l6MrAMs_o-45" vertex="1">
          <mxGeometry x="320.5797101449275" y="12.304582210242588" width="19.016172506738545" height="19.016172506738545" as="geometry" />
        </mxCell>
        <mxCell id="cKbgiC5qh_IXnBO1eU4K-24" value="Создать заявку на апелляцию&amp;nbsp;" style="text;html=1;align=center;verticalAlign=middle;whiteSpace=wrap;rounded=1;fontSize=13;fontColor=#FFFFFF;strokeColor=none;" parent="BZBJQn5B5M7l6MrAMs_o-45" vertex="1">
          <mxGeometry x="4.579710144927536" y="5.033692722371968" width="231.27536231884056" height="33.55795148247979" as="geometry" />
        </mxCell>
        <mxCell id="PlenrtrV-lZkWa3VHan3-22" value="Заявки" style="text;html=1;align=center;verticalAlign=middle;whiteSpace=wrap;rounded=1;shadow=0;fontSize=23;fontStyle=1" parent="PlenrtrV-lZkWa3VHan3-24" vertex="1">
          <mxGeometry x="8.014492753623188" y="13.423180592991915" width="247.30434782608694" height="54.81132075471699" as="geometry" />
        </mxCell>
        <mxCell id="PlenrtrV-lZkWa3VHan3-77" value="" style="strokeWidth=2;html=1;shape=mxgraph.flowchart.database;whiteSpace=wrap;rounded=1;movable=1;resizable=1;rotatable=1;deletable=1;editable=1;locked=0;connectable=1;" parent="PlenrtrV-lZkWa3VHan3-24" vertex="1">
          <mxGeometry x="455" y="135" width="216" height="240" as="geometry" />
        </mxCell>
        <mxCell id="PlenrtrV-lZkWa3VHan3-148" value="" style="group" parent="PlenrtrV-lZkWa3VHan3-24" vertex="1" connectable="0">
          <mxGeometry x="483" y="143" width="151" height="49" as="geometry" />
        </mxCell>
        <mxCell id="PlenrtrV-lZkWa3VHan3-149" value="&lt;p style=&quot;margin: 0px 0px 0px 13px; text-indent: -13px; font-variant-numeric: normal; font-variant-east-asian: normal; font-variant-alternates: normal; font-kerning: auto; font-optical-sizing: auto; font-feature-settings: normal; font-variation-settings: normal; font-variant-position: normal; font-stretch: normal; font-size: 14px; line-height: normal; color: rgb(14, 14, 14); text-align: start;&quot; class=&quot;p1&quot;&gt;&lt;br&gt;&lt;/p&gt;" style="rounded=1;whiteSpace=wrap;html=1;fillColor=#FF77BF;strokeColor=none;arcSize=50;" parent="PlenrtrV-lZkWa3VHan3-148" vertex="1">
          <mxGeometry y="9" width="151" height="33" as="geometry" />
        </mxCell>
        <mxCell id="PlenrtrV-lZkWa3VHan3-150" value="&lt;font style=&quot;font-size: 18px;&quot;&gt;&lt;i&gt;PostgreSQL&lt;/i&gt;&lt;/font&gt;" style="text;html=1;align=center;verticalAlign=middle;whiteSpace=wrap;rounded=1;shadow=0;fontSize=23;fontStyle=1" parent="PlenrtrV-lZkWa3VHan3-148" vertex="1">
          <mxGeometry x="31" width="89" height="49" as="geometry" />
        </mxCell>
        <mxCell id="PlenrtrV-lZkWa3VHan3-220" value="&lt;p style=&quot;margin: 0px 0px 0px 13px; text-indent: -13px; font-variant-numeric: normal; font-variant-east-asian: normal; font-variant-alternates: normal; font-kerning: auto; font-optical-sizing: auto; font-feature-settings: normal; font-variation-settings: normal; font-variant-position: normal; font-stretch: normal; font-size: 14px; line-height: normal; color: rgb(14, 14, 14); text-align: start;&quot; class=&quot;p1&quot;&gt;&lt;font face=&quot;Times New Roman&quot;&gt;Заявка.Info&lt;/font&gt;&lt;/p&gt;" style="rounded=1;whiteSpace=wrap;html=1;fillColor=#b1ddf0;strokeColor=#FF0000;" parent="PlenrtrV-lZkWa3VHan3-24" vertex="1">
          <mxGeometry x="482" y="253" width="151" height="21" as="geometry" />
        </mxCell>
        <mxCell id="PlenrtrV-lZkWa3VHan3-29" value="" style="endArrow=classic;html=1;rounded=1;dashed=1;entryX=0;entryY=0.25;entryDx=0;entryDy=0;" parent="1" target="PlenrtrV-lZkWa3VHan3-21" edge="1">
          <mxGeometry width="50" height="50" relative="1" as="geometry">
            <mxPoint x="-585" y="197" as="sourcePoint" />
            <mxPoint x="-397" y="103" as="targetPoint" />
            <Array as="points" />
          </mxGeometry>
        </mxCell>
        <mxCell id="PlenrtrV-lZkWa3VHan3-30" value="&lt;div&gt;Валидировать заявку&lt;/div&gt;" style="text;html=1;align=center;verticalAlign=middle;whiteSpace=wrap;rounded=1;fontSize=13;" parent="1" vertex="1">
          <mxGeometry x="-718" y="342" width="243" height="30" as="geometry" />
        </mxCell>
        <mxCell id="cKbgiC5qh_IXnBO1eU4K-94" value="&lt;font style=&quot;font-size: 18px;&quot;&gt;&lt;i&gt;PostgreSQL&lt;/i&gt;&lt;/font&gt;" style="text;html=1;align=center;verticalAlign=middle;whiteSpace=wrap;rounded=1;shadow=0;fontSize=23;fontStyle=1" parent="1" vertex="1">
          <mxGeometry x="2451" y="235" width="89" height="49" as="geometry" />
        </mxCell>
        <mxCell id="PlenrtrV-lZkWa3VHan3-175" value="" style="group" parent="1" vertex="1" connectable="0">
          <mxGeometry x="1932" y="71" width="151" height="36" as="geometry" />
        </mxCell>
        <mxCell id="PlenrtrV-lZkWa3VHan3-176" value="&lt;p style=&quot;margin: 0px 0px 0px 13px; text-indent: -13px; font-variant-numeric: normal; font-variant-east-asian: normal; font-variant-alternates: normal; font-kerning: auto; font-optical-sizing: auto; font-feature-settings: normal; font-variation-settings: normal; font-variant-position: normal; font-stretch: normal; font-size: 14px; line-height: normal; color: rgb(14, 14, 14); text-align: start;&quot; class=&quot;p1&quot;&gt;&lt;br&gt;&lt;/p&gt;" style="rounded=1;whiteSpace=wrap;html=1;fillColor=#FF77BF;strokeColor=none;arcSize=50;" parent="PlenrtrV-lZkWa3VHan3-175" vertex="1">
          <mxGeometry y="5" width="151" height="31" as="geometry" />
        </mxCell>
        <mxCell id="PlenrtrV-lZkWa3VHan3-177" value="&lt;font style=&quot;font-size: 18px;&quot;&gt;&lt;i&gt;Django/Python&lt;/i&gt;&lt;/font&gt;" style="text;html=1;align=center;verticalAlign=middle;whiteSpace=wrap;rounded=1;shadow=0;fontSize=23;fontStyle=1" parent="PlenrtrV-lZkWa3VHan3-175" vertex="1">
          <mxGeometry x="30" width="89" height="36" as="geometry" />
        </mxCell>
        <mxCell id="PlenrtrV-lZkWa3VHan3-184" value="" style="group" parent="1" vertex="1" connectable="0">
          <mxGeometry x="410" y="-87" width="151" height="36" as="geometry" />
        </mxCell>
        <mxCell id="PlenrtrV-lZkWa3VHan3-185" value="&lt;p style=&quot;margin: 0px 0px 0px 13px; text-indent: -13px; font-variant-numeric: normal; font-variant-east-asian: normal; font-variant-alternates: normal; font-kerning: auto; font-optical-sizing: auto; font-feature-settings: normal; font-variation-settings: normal; font-variant-position: normal; font-stretch: normal; font-size: 14px; line-height: normal; color: rgb(14, 14, 14); text-align: start;&quot; class=&quot;p1&quot;&gt;&lt;br&gt;&lt;/p&gt;" style="rounded=1;whiteSpace=wrap;html=1;fillColor=#FF77BF;strokeColor=none;arcSize=0;" parent="PlenrtrV-lZkWa3VHan3-184" vertex="1">
          <mxGeometry y="5" width="151" height="31" as="geometry" />
        </mxCell>
        <mxCell id="PlenrtrV-lZkWa3VHan3-186" value="&lt;font style=&quot;font-size: 18px;&quot;&gt;&lt;i&gt;Django/Python&lt;/i&gt;&lt;/font&gt;" style="text;html=1;align=center;verticalAlign=middle;whiteSpace=wrap;rounded=1;shadow=0;fontSize=23;fontStyle=1;arcSize=50;" parent="PlenrtrV-lZkWa3VHan3-184" vertex="1">
          <mxGeometry x="30" width="89" height="36" as="geometry" />
        </mxCell>
        <mxCell id="PlenrtrV-lZkWa3VHan3-187" value="" style="group" parent="1" vertex="1" connectable="0">
          <mxGeometry x="1425" y="-383" width="151" height="36" as="geometry" />
        </mxCell>
        <mxCell id="PlenrtrV-lZkWa3VHan3-188" value="&lt;p style=&quot;margin: 0px 0px 0px 13px; text-indent: -13px; font-variant-numeric: normal; font-variant-east-asian: normal; font-variant-alternates: normal; font-kerning: auto; font-optical-sizing: auto; font-feature-settings: normal; font-variation-settings: normal; font-variant-position: normal; font-stretch: normal; font-size: 14px; line-height: normal; color: rgb(14, 14, 14); text-align: start;&quot; class=&quot;p1&quot;&gt;&lt;br&gt;&lt;/p&gt;" style="rounded=1;whiteSpace=wrap;html=1;fillColor=#FF77BF;strokeColor=none;arcSize=50;" parent="PlenrtrV-lZkWa3VHan3-187" vertex="1">
          <mxGeometry y="5" width="151" height="31" as="geometry" />
        </mxCell>
        <mxCell id="PlenrtrV-lZkWa3VHan3-189" value="&lt;font style=&quot;font-size: 18px;&quot;&gt;&lt;i&gt;Django/Python&lt;/i&gt;&lt;/font&gt;" style="text;html=1;align=center;verticalAlign=middle;whiteSpace=wrap;rounded=1;shadow=0;fontSize=23;fontStyle=1" parent="PlenrtrV-lZkWa3VHan3-187" vertex="1">
          <mxGeometry x="30" width="89" height="36" as="geometry" />
        </mxCell>
        <mxCell id="PlenrtrV-lZkWa3VHan3-190" value="" style="group" parent="1" vertex="1" connectable="0">
          <mxGeometry x="-405" y="-114" width="151" height="36" as="geometry" />
        </mxCell>
        <mxCell id="PlenrtrV-lZkWa3VHan3-191" value="&lt;p style=&quot;margin: 0px 0px 0px 13px; text-indent: -13px; font-variant-numeric: normal; font-variant-east-asian: normal; font-variant-alternates: normal; font-kerning: auto; font-optical-sizing: auto; font-feature-settings: normal; font-variation-settings: normal; font-variant-position: normal; font-stretch: normal; font-size: 14px; line-height: normal; color: rgb(14, 14, 14); text-align: start;&quot; class=&quot;p1&quot;&gt;&lt;br&gt;&lt;/p&gt;" style="rounded=1;whiteSpace=wrap;html=1;fillColor=#FF77BF;strokeColor=none;arcSize=50;" parent="PlenrtrV-lZkWa3VHan3-190" vertex="1">
          <mxGeometry y="5" width="151" height="31" as="geometry" />
        </mxCell>
        <mxCell id="PlenrtrV-lZkWa3VHan3-192" value="&lt;font style=&quot;font-size: 18px;&quot;&gt;&lt;i&gt;Django/Python&lt;/i&gt;&lt;/font&gt;" style="text;html=1;align=center;verticalAlign=middle;whiteSpace=wrap;rounded=1;shadow=0;fontSize=23;fontStyle=1" parent="PlenrtrV-lZkWa3VHan3-190" vertex="1">
          <mxGeometry x="30" width="89" height="36" as="geometry" />
        </mxCell>
        <mxCell id="PlenrtrV-lZkWa3VHan3-195" value="" style="endArrow=classic;html=1;rounded=1;dashed=1;entryX=0.911;entryY=-0.005;entryDx=0;entryDy=0;entryPerimeter=0;fontSize=12;" parent="1" target="PlenrtrV-lZkWa3VHan3-1" edge="1">
          <mxGeometry width="50" height="50" relative="1" as="geometry">
            <mxPoint x="765" y="-473" as="sourcePoint" />
            <mxPoint x="1434.2600000000002" y="-475.48099999999977" as="targetPoint" />
            <Array as="points">
              <mxPoint x="235" y="-455" />
            </Array>
          </mxGeometry>
        </mxCell>
        <mxCell id="PlenrtrV-lZkWa3VHan3-196" value="Создать аукцион" style="text;html=1;align=center;verticalAlign=middle;whiteSpace=wrap;rounded=1;fontSize=13;" parent="1" vertex="1">
          <mxGeometry x="335" y="-505" width="243" height="30" as="geometry" />
        </mxCell>
        <mxCell id="PlenrtrV-lZkWa3VHan3-1" value="" style="rounded=1;whiteSpace=wrap;html=1;arcSize=3;movable=1;resizable=1;rotatable=1;deletable=1;editable=1;locked=0;connectable=1;fillColor=#f5f5f5;strokeColor=#FF0000;strokeWidth=3;fontColor=#333333;" parent="1" vertex="1">
          <mxGeometry x="-407" y="-73" width="683" height="402" as="geometry" />
        </mxCell>
        <mxCell id="BZBJQn5B5M7l6MrAMs_o-27" value="" style="group" parent="1" vertex="1" connectable="0">
          <mxGeometry x="-391" y="-1" width="309" height="39" as="geometry" />
        </mxCell>
        <mxCell id="Tz6aEU4ManMyac2rpAqn-135" value="" style="rounded=1;whiteSpace=wrap;html=1;fillColor=#1C57CD;strokeColor=none;" parent="BZBJQn5B5M7l6MrAMs_o-27" vertex="1">
          <mxGeometry width="309" height="39" as="geometry" />
        </mxCell>
        <mxCell id="Tz6aEU4ManMyac2rpAqn-136" value="" style="sketch=0;outlineConnect=0;fontColor=#232F3E;gradientColor=none;fillColor=#FFFFFF;strokeColor=none;dashed=0;verticalLabelPosition=bottom;verticalAlign=top;align=center;html=1;fontSize=12;fontStyle=0;aspect=fixed;pointerEvents=1;shape=mxgraph.aws4.gear;rounded=1;" parent="BZBJQn5B5M7l6MrAMs_o-27" vertex="1">
          <mxGeometry x="286" y="11" width="17" height="17" as="geometry" />
        </mxCell>
        <mxCell id="Tz6aEU4ManMyac2rpAqn-137" value="Создать аукцион" style="text;html=1;align=center;verticalAlign=middle;whiteSpace=wrap;rounded=1;fontSize=13;fontColor=#FFFFFF;strokeColor=none;" parent="BZBJQn5B5M7l6MrAMs_o-27" vertex="1">
          <mxGeometry x="3" y="4.5" width="113" height="30" as="geometry" />
        </mxCell>
        <mxCell id="BZBJQn5B5M7l6MrAMs_o-28" value="" style="group" parent="1" vertex="1" connectable="0">
          <mxGeometry x="-388" y="55" width="309" height="39" as="geometry" />
        </mxCell>
        <mxCell id="Tz6aEU4ManMyac2rpAqn-140" value="" style="rounded=1;whiteSpace=wrap;html=1;fillColor=#1C57CD;strokeColor=none;" parent="BZBJQn5B5M7l6MrAMs_o-28" vertex="1">
          <mxGeometry width="309" height="39" as="geometry" />
        </mxCell>
        <mxCell id="Tz6aEU4ManMyac2rpAqn-141" value="" style="sketch=0;outlineConnect=0;fontColor=#232F3E;gradientColor=none;fillColor=#FFFFFF;strokeColor=none;dashed=0;verticalLabelPosition=bottom;verticalAlign=top;align=center;html=1;fontSize=12;fontStyle=0;aspect=fixed;pointerEvents=1;shape=mxgraph.aws4.gear;rounded=1;" parent="BZBJQn5B5M7l6MrAMs_o-28" vertex="1">
          <mxGeometry x="286" y="11" width="17" height="17" as="geometry" />
        </mxCell>
        <mxCell id="Tz6aEU4ManMyac2rpAqn-142" value="Редактировать аукцион" style="text;html=1;align=center;verticalAlign=middle;whiteSpace=wrap;rounded=1;fontSize=13;fontColor=#FFFFFF;strokeColor=none;" parent="BZBJQn5B5M7l6MrAMs_o-28" vertex="1">
          <mxGeometry x="3" y="4.5" width="160" height="30" as="geometry" />
        </mxCell>
        <mxCell id="BZBJQn5B5M7l6MrAMs_o-29" value="" style="group" parent="1" vertex="1" connectable="0">
          <mxGeometry x="-389" y="107" width="309" height="39" as="geometry" />
        </mxCell>
        <mxCell id="Tz6aEU4ManMyac2rpAqn-143" value="" style="rounded=1;whiteSpace=wrap;html=1;fillColor=#1C57CD;strokeColor=none;" parent="BZBJQn5B5M7l6MrAMs_o-29" vertex="1">
          <mxGeometry width="309" height="39" as="geometry" />
        </mxCell>
        <mxCell id="Tz6aEU4ManMyac2rpAqn-144" value="" style="sketch=0;outlineConnect=0;fontColor=#232F3E;gradientColor=none;fillColor=#FFFFFF;strokeColor=none;dashed=0;verticalLabelPosition=bottom;verticalAlign=top;align=center;html=1;fontSize=12;fontStyle=0;aspect=fixed;pointerEvents=1;shape=mxgraph.aws4.gear;rounded=1;" parent="BZBJQn5B5M7l6MrAMs_o-29" vertex="1">
          <mxGeometry x="286" y="11" width="17" height="17" as="geometry" />
        </mxCell>
        <mxCell id="Tz6aEU4ManMyac2rpAqn-145" value="Обработать новую заявку на аукцион" style="text;html=1;align=center;verticalAlign=middle;whiteSpace=wrap;rounded=1;fontSize=13;fontColor=#FFFFFF;strokeColor=none;" parent="BZBJQn5B5M7l6MrAMs_o-29" vertex="1">
          <mxGeometry x="3" y="4.5" width="241" height="30" as="geometry" />
        </mxCell>
        <mxCell id="BZBJQn5B5M7l6MrAMs_o-30" value="" style="group" parent="1" vertex="1" connectable="0">
          <mxGeometry x="-392" y="159" width="309" height="39" as="geometry" />
        </mxCell>
        <mxCell id="Tz6aEU4ManMyac2rpAqn-146" value="" style="rounded=1;whiteSpace=wrap;html=1;fillColor=#1C57CD;strokeColor=none;" parent="BZBJQn5B5M7l6MrAMs_o-30" vertex="1">
          <mxGeometry width="309" height="39" as="geometry" />
        </mxCell>
        <mxCell id="Tz6aEU4ManMyac2rpAqn-147" value="" style="sketch=0;outlineConnect=0;fontColor=#232F3E;gradientColor=none;fillColor=#FFFFFF;strokeColor=none;dashed=0;verticalLabelPosition=bottom;verticalAlign=top;align=center;html=1;fontSize=12;fontStyle=0;aspect=fixed;pointerEvents=1;shape=mxgraph.aws4.gear;rounded=1;" parent="BZBJQn5B5M7l6MrAMs_o-30" vertex="1">
          <mxGeometry x="286" y="11" width="17" height="17" as="geometry" />
        </mxCell>
        <mxCell id="Tz6aEU4ManMyac2rpAqn-148" value="Обновление ставок аукциона" style="text;html=1;align=center;verticalAlign=middle;whiteSpace=wrap;rounded=1;fontSize=13;fontColor=#FFFFFF;strokeColor=none;" parent="BZBJQn5B5M7l6MrAMs_o-30" vertex="1">
          <mxGeometry x="4" y="4.5" width="189" height="30" as="geometry" />
        </mxCell>
        <mxCell id="BZBJQn5B5M7l6MrAMs_o-31" value="" style="group" parent="1" vertex="1" connectable="0">
          <mxGeometry x="-393" y="206" width="309" height="39" as="geometry" />
        </mxCell>
        <mxCell id="Tz6aEU4ManMyac2rpAqn-149" value="" style="rounded=1;whiteSpace=wrap;html=1;fillColor=#1C57CD;strokeColor=none;" parent="BZBJQn5B5M7l6MrAMs_o-31" vertex="1">
          <mxGeometry width="309" height="39" as="geometry" />
        </mxCell>
        <mxCell id="Tz6aEU4ManMyac2rpAqn-150" value="" style="sketch=0;outlineConnect=0;fontColor=#232F3E;gradientColor=none;fillColor=#FFFFFF;strokeColor=none;dashed=0;verticalLabelPosition=bottom;verticalAlign=top;align=center;html=1;fontSize=12;fontStyle=0;aspect=fixed;pointerEvents=1;shape=mxgraph.aws4.gear;rounded=1;" parent="BZBJQn5B5M7l6MrAMs_o-31" vertex="1">
          <mxGeometry x="286" y="11" width="17" height="17" as="geometry" />
        </mxCell>
        <mxCell id="Tz6aEU4ManMyac2rpAqn-151" value="Нотификация участника аукциона" style="text;html=1;align=center;verticalAlign=middle;whiteSpace=wrap;rounded=1;fontSize=13;fontColor=#FFFFFF;strokeColor=none;" parent="BZBJQn5B5M7l6MrAMs_o-31" vertex="1">
          <mxGeometry x="3" y="4.5" width="218" height="30" as="geometry" />
        </mxCell>
        <mxCell id="BZBJQn5B5M7l6MrAMs_o-37" value="" style="group" parent="1" vertex="1" connectable="0">
          <mxGeometry x="-57" y="-3" width="309" height="39" as="geometry" />
        </mxCell>
        <mxCell id="cKbgiC5qh_IXnBO1eU4K-37" value="" style="rounded=1;whiteSpace=wrap;html=1;fillColor=#1C57CD;strokeColor=none;" parent="BZBJQn5B5M7l6MrAMs_o-37" vertex="1">
          <mxGeometry width="309" height="39" as="geometry" />
        </mxCell>
        <mxCell id="cKbgiC5qh_IXnBO1eU4K-38" value="" style="sketch=0;outlineConnect=0;fontColor=#232F3E;gradientColor=none;fillColor=#FFFFFF;strokeColor=none;dashed=0;verticalLabelPosition=bottom;verticalAlign=top;align=center;html=1;fontSize=12;fontStyle=0;aspect=fixed;pointerEvents=1;shape=mxgraph.aws4.gear;rounded=1;" parent="BZBJQn5B5M7l6MrAMs_o-37" vertex="1">
          <mxGeometry x="280" y="11" width="17" height="17" as="geometry" />
        </mxCell>
        <mxCell id="cKbgiC5qh_IXnBO1eU4K-39" value="Обновление статуса аукциона" style="text;html=1;align=center;verticalAlign=middle;whiteSpace=wrap;rounded=1;fontSize=13;fontColor=#FFFFFF;strokeColor=none;" parent="BZBJQn5B5M7l6MrAMs_o-37" vertex="1">
          <mxGeometry y="4.5" width="202" height="30" as="geometry" />
        </mxCell>
        <mxCell id="BZBJQn5B5M7l6MrAMs_o-38" value="" style="group" parent="1" vertex="1" connectable="0">
          <mxGeometry x="-395" y="260" width="309" height="39" as="geometry" />
        </mxCell>
        <mxCell id="cKbgiC5qh_IXnBO1eU4K-19" value="" style="rounded=1;whiteSpace=wrap;html=1;fillColor=#1C57CD;strokeColor=none;" parent="BZBJQn5B5M7l6MrAMs_o-38" vertex="1">
          <mxGeometry width="309" height="39" as="geometry" />
        </mxCell>
        <mxCell id="cKbgiC5qh_IXnBO1eU4K-20" value="" style="sketch=0;outlineConnect=0;fontColor=#232F3E;gradientColor=none;fillColor=#FFFFFF;strokeColor=none;dashed=0;verticalLabelPosition=bottom;verticalAlign=top;align=center;html=1;fontSize=12;fontStyle=0;aspect=fixed;pointerEvents=1;shape=mxgraph.aws4.gear;rounded=1;" parent="BZBJQn5B5M7l6MrAMs_o-38" vertex="1">
          <mxGeometry x="280" y="11" width="17" height="17" as="geometry" />
        </mxCell>
        <mxCell id="cKbgiC5qh_IXnBO1eU4K-21" value="Обновление ставок аукциона" style="text;html=1;align=center;verticalAlign=middle;whiteSpace=wrap;rounded=1;fontSize=13;fontColor=#FFFFFF;strokeColor=none;" parent="BZBJQn5B5M7l6MrAMs_o-38" vertex="1">
          <mxGeometry y="4.5" width="202" height="30" as="geometry" />
        </mxCell>
        <mxCell id="PlenrtrV-lZkWa3VHan3-10" value="Аукционы" style="text;html=1;align=center;verticalAlign=middle;whiteSpace=wrap;rounded=1;shadow=0;fontSize=23;fontStyle=1" parent="1" vertex="1">
          <mxGeometry x="-386" y="-64" width="216" height="49" as="geometry" />
        </mxCell>
        <mxCell id="PlenrtrV-lZkWa3VHan3-32" value="" style="strokeWidth=2;html=1;shape=mxgraph.flowchart.database;whiteSpace=wrap;rounded=1;movable=1;resizable=1;rotatable=1;deletable=1;editable=1;locked=0;connectable=1;" parent="1" vertex="1">
          <mxGeometry x="-10" y="60" width="216" height="240" as="geometry" />
        </mxCell>
        <mxCell id="PlenrtrV-lZkWa3VHan3-33" value="" style="group" parent="1" vertex="1" connectable="0">
          <mxGeometry x="24" y="76" width="151" height="49" as="geometry" />
        </mxCell>
        <mxCell id="PlenrtrV-lZkWa3VHan3-34" value="&lt;p style=&quot;margin: 0px 0px 0px 13px; text-indent: -13px; font-variant-numeric: normal; font-variant-east-asian: normal; font-variant-alternates: normal; font-kerning: auto; font-optical-sizing: auto; font-feature-settings: normal; font-variation-settings: normal; font-variant-position: normal; font-stretch: normal; font-size: 14px; line-height: normal; color: rgb(14, 14, 14); text-align: start;&quot; class=&quot;p1&quot;&gt;&lt;br&gt;&lt;/p&gt;" style="rounded=1;whiteSpace=wrap;html=1;fillColor=#FF77BF;strokeColor=none;arcSize=50;" parent="PlenrtrV-lZkWa3VHan3-33" vertex="1">
          <mxGeometry y="9" width="151" height="33" as="geometry" />
        </mxCell>
        <mxCell id="PlenrtrV-lZkWa3VHan3-35" value="&lt;font style=&quot;font-size: 18px;&quot;&gt;&lt;i&gt;PostgreSQL&lt;/i&gt;&lt;/font&gt;" style="text;html=1;align=center;verticalAlign=middle;whiteSpace=wrap;rounded=1;shadow=0;fontSize=23;fontStyle=1" parent="PlenrtrV-lZkWa3VHan3-33" vertex="1">
          <mxGeometry x="31" width="89" height="49" as="geometry" />
        </mxCell>
        <mxCell id="Tz6aEU4ManMyac2rpAqn-7" value="&lt;p style=&quot;margin: 0px 0px 0px 13px; text-indent: -13px; font-variant-numeric: normal; font-variant-east-asian: normal; font-variant-alternates: normal; font-kerning: auto; font-optical-sizing: auto; font-feature-settings: normal; font-variation-settings: normal; font-variant-position: normal; font-stretch: normal; font-size: 14px; line-height: normal; color: rgb(14, 14, 14); text-align: start;&quot; class=&quot;p1&quot;&gt;&lt;font face=&quot;Times New Roman&quot;&gt;Заявка на аукцион.ID&lt;/font&gt;&lt;/p&gt;" style="rounded=1;whiteSpace=wrap;html=1;fillColor=#b1ddf0;strokeColor=#10739e;" parent="1" vertex="1">
          <mxGeometry x="13" y="156" width="151" height="21" as="geometry" />
        </mxCell>
        <mxCell id="PlenrtrV-lZkWa3VHan3-194" value="&lt;p style=&quot;margin: 0px 0px 0px 13px; text-indent: -13px; font-variant-numeric: normal; font-variant-east-asian: normal; font-variant-alternates: normal; font-kerning: auto; font-optical-sizing: auto; font-feature-settings: normal; font-variation-settings: normal; font-variant-position: normal; font-stretch: normal; font-size: 14px; line-height: normal; color: rgb(14, 14, 14); text-align: start;&quot; class=&quot;p1&quot;&gt;&lt;font face=&quot;Times New Roman&quot;&gt;Aукцион.Info&lt;/font&gt;&lt;/p&gt;" style="rounded=1;whiteSpace=wrap;html=1;fillColor=#b1ddf0;strokeColor=#FF0000;" parent="1" vertex="1">
          <mxGeometry x="16" y="193" width="151" height="21" as="geometry" />
        </mxCell>
        <mxCell id="PlenrtrV-lZkWa3VHan3-197" value="" style="group" parent="1" vertex="1" connectable="0">
          <mxGeometry x="764" y="-885" width="650" height="517" as="geometry" />
        </mxCell>
        <mxCell id="kQWFD41fJFxlXKQhT5sF-1" value="" style="group" parent="PlenrtrV-lZkWa3VHan3-197" vertex="1" connectable="0">
          <mxGeometry x="21" y="264" width="155" height="49" as="geometry" />
        </mxCell>
        <mxCell id="cKbgiC5qh_IXnBO1eU4K-166" value="&lt;p style=&quot;margin: 0px 0px 0px 13px; text-indent: -13px; font-variant-numeric: normal; font-variant-east-asian: normal; font-variant-alternates: normal; font-kerning: auto; font-optical-sizing: auto; font-feature-settings: normal; font-variation-settings: normal; font-variant-position: normal; font-stretch: normal; font-size: 14px; line-height: normal; color: rgb(14, 14, 14); text-align: start;&quot; class=&quot;p1&quot;&gt;&lt;br&gt;&lt;/p&gt;" style="rounded=1;whiteSpace=wrap;html=1;fillColor=#FF77BF;strokeColor=none;arcSize=33;" parent="kQWFD41fJFxlXKQhT5sF-1" vertex="1">
          <mxGeometry y="13" width="155" height="34" as="geometry" />
        </mxCell>
        <mxCell id="cKbgiC5qh_IXnBO1eU4K-165" value="&lt;font style=&quot;font-size: 18px;&quot;&gt;&lt;i&gt;React/HTML/CSS&lt;/i&gt;&lt;/font&gt;" style="text;html=1;align=center;verticalAlign=middle;whiteSpace=wrap;rounded=1;shadow=0;fontSize=23;fontStyle=1" parent="kQWFD41fJFxlXKQhT5sF-1" vertex="1">
          <mxGeometry x="29" width="89" height="49" as="geometry" />
        </mxCell>
        <mxCell id="cKbgiC5qh_IXnBO1eU4K-163" value="" style="rounded=1;whiteSpace=wrap;html=1;arcSize=3;fillColor=#f5f5f5;strokeColor=#1C57CD;strokeWidth=3;align=center;verticalAlign=middle;fontFamily=Helvetica;fontSize=12;fontColor=#333333;resizable=1;" parent="PlenrtrV-lZkWa3VHan3-197" vertex="1">
          <mxGeometry y="307" width="650" height="210" as="geometry" />
        </mxCell>
        <mxCell id="cKbgiC5qh_IXnBO1eU4K-164" value="Портал электронной площадки" style="text;html=1;align=center;verticalAlign=middle;whiteSpace=wrap;rounded=1;shadow=0;fontSize=23;fontStyle=1" parent="PlenrtrV-lZkWa3VHan3-197" vertex="1">
          <mxGeometry x="67" y="309" width="380" height="49" as="geometry" />
        </mxCell>
        <mxCell id="Tz6aEU4ManMyac2rpAqn-4" value="Клиент" style="shape=umlActor;verticalLabelPosition=bottom;verticalAlign=top;html=1;outlineConnect=0;rounded=1;" parent="PlenrtrV-lZkWa3VHan3-197" vertex="1">
          <mxGeometry x="283" width="65" height="141" as="geometry" />
        </mxCell>
        <mxCell id="Tz6aEU4ManMyac2rpAqn-10" value="" style="endArrow=classic;html=1;rounded=1;dashed=1;entryX=0.727;entryY=0.031;entryDx=0;entryDy=0;entryPerimeter=0;fontSize=12;" parent="PlenrtrV-lZkWa3VHan3-197" source="Tz6aEU4ManMyac2rpAqn-4" edge="1">
          <mxGeometry width="50" height="50" relative="1" as="geometry">
            <mxPoint x="315" y="47" as="sourcePoint" />
            <mxPoint x="316.2600000000002" y="310.51900000000023" as="targetPoint" />
            <Array as="points" />
          </mxGeometry>
        </mxCell>
        <mxCell id="BZBJQn5B5M7l6MrAMs_o-1" value="" style="group" parent="PlenrtrV-lZkWa3VHan3-197" vertex="1" connectable="0">
          <mxGeometry x="10" y="367" width="309" height="39" as="geometry" />
        </mxCell>
        <mxCell id="BZBJQn5B5M7l6MrAMs_o-53" value="" style="group" parent="BZBJQn5B5M7l6MrAMs_o-1" vertex="1" connectable="0">
          <mxGeometry width="309" height="39" as="geometry" />
        </mxCell>
        <mxCell id="cKbgiC5qh_IXnBO1eU4K-175" value="" style="rounded=1;whiteSpace=wrap;html=1;fillColor=#1C57CD;strokeColor=none;" parent="BZBJQn5B5M7l6MrAMs_o-53" vertex="1">
          <mxGeometry width="309" height="39" as="geometry" />
        </mxCell>
        <mxCell id="cKbgiC5qh_IXnBO1eU4K-176" value="" style="sketch=0;outlineConnect=0;fontColor=#FFFFFF;gradientColor=none;fillColor=#FFFFFF;strokeColor=none;dashed=0;verticalLabelPosition=bottom;verticalAlign=top;align=center;html=1;fontSize=12;fontStyle=0;aspect=fixed;pointerEvents=1;shape=mxgraph.aws4.gear;rounded=1;" parent="BZBJQn5B5M7l6MrAMs_o-53" vertex="1">
          <mxGeometry x="280" y="11" width="17" height="17" as="geometry" />
        </mxCell>
        <mxCell id="cKbgiC5qh_IXnBO1eU4K-177" value="Зарегистрироваться на площадке" style="text;html=1;align=center;verticalAlign=middle;whiteSpace=wrap;rounded=1;fontSize=13;fontColor=#FFFFFF;" parent="BZBJQn5B5M7l6MrAMs_o-53" vertex="1">
          <mxGeometry x="9" y="4.5" width="218" height="30" as="geometry" />
        </mxCell>
        <mxCell id="BZBJQn5B5M7l6MrAMs_o-2" value="" style="group" parent="PlenrtrV-lZkWa3VHan3-197" vertex="1" connectable="0">
          <mxGeometry x="10" y="417" width="309" height="39" as="geometry" />
        </mxCell>
        <mxCell id="BZBJQn5B5M7l6MrAMs_o-54" value="" style="group" parent="BZBJQn5B5M7l6MrAMs_o-2" vertex="1" connectable="0">
          <mxGeometry width="309" height="39" as="geometry" />
        </mxCell>
        <mxCell id="cKbgiC5qh_IXnBO1eU4K-178" value="" style="rounded=1;whiteSpace=wrap;html=1;fillColor=#1C57CD;strokeColor=none;" parent="BZBJQn5B5M7l6MrAMs_o-54" vertex="1">
          <mxGeometry width="309" height="39" as="geometry" />
        </mxCell>
        <mxCell id="cKbgiC5qh_IXnBO1eU4K-179" value="" style="sketch=0;outlineConnect=0;fontColor=#FFFFFF;gradientColor=none;fillColor=#FFFFFF;strokeColor=none;dashed=0;verticalLabelPosition=bottom;verticalAlign=top;align=center;html=1;fontSize=12;fontStyle=0;aspect=fixed;pointerEvents=1;shape=mxgraph.aws4.gear;rounded=1;" parent="BZBJQn5B5M7l6MrAMs_o-54" vertex="1">
          <mxGeometry x="280" y="11" width="17" height="17" as="geometry" />
        </mxCell>
        <mxCell id="cKbgiC5qh_IXnBO1eU4K-180" value="Редактировать профиль" style="text;html=1;align=center;verticalAlign=middle;whiteSpace=wrap;rounded=1;fontSize=13;fontColor=#FFFFFF;" parent="BZBJQn5B5M7l6MrAMs_o-54" vertex="1">
          <mxGeometry x="8" y="4.5" width="164" height="30" as="geometry" />
        </mxCell>
        <mxCell id="BZBJQn5B5M7l6MrAMs_o-3" value="" style="group" parent="PlenrtrV-lZkWa3VHan3-197" vertex="1" connectable="0">
          <mxGeometry x="10" y="467" width="309" height="39" as="geometry" />
        </mxCell>
        <mxCell id="BZBJQn5B5M7l6MrAMs_o-55" value="" style="group" parent="BZBJQn5B5M7l6MrAMs_o-3" vertex="1" connectable="0">
          <mxGeometry width="309" height="39" as="geometry" />
        </mxCell>
        <mxCell id="cKbgiC5qh_IXnBO1eU4K-181" value="" style="rounded=1;whiteSpace=wrap;html=1;fillColor=#1C57CD;strokeColor=none;" parent="BZBJQn5B5M7l6MrAMs_o-55" vertex="1">
          <mxGeometry width="309" height="39" as="geometry" />
        </mxCell>
        <mxCell id="cKbgiC5qh_IXnBO1eU4K-182" value="" style="sketch=0;outlineConnect=0;fontColor=#FFFFFF;gradientColor=none;fillColor=#FFFFFF;strokeColor=none;dashed=0;verticalLabelPosition=bottom;verticalAlign=top;align=center;html=1;fontSize=12;fontStyle=0;aspect=fixed;pointerEvents=1;shape=mxgraph.aws4.gear;rounded=1;" parent="BZBJQn5B5M7l6MrAMs_o-55" vertex="1">
          <mxGeometry x="280" y="11" width="17" height="17" as="geometry" />
        </mxCell>
        <mxCell id="cKbgiC5qh_IXnBO1eU4K-183" value="Разместить заказ" style="text;html=1;align=center;verticalAlign=middle;whiteSpace=wrap;rounded=1;fontSize=13;fontColor=#FFFFFF;" parent="BZBJQn5B5M7l6MrAMs_o-55" vertex="1">
          <mxGeometry x="14" y="3" width="117" height="30" as="geometry" />
        </mxCell>
        <mxCell id="BZBJQn5B5M7l6MrAMs_o-4" value="" style="group" parent="PlenrtrV-lZkWa3VHan3-197" vertex="1" connectable="0">
          <mxGeometry x="330" y="367" width="309" height="39" as="geometry" />
        </mxCell>
        <mxCell id="BZBJQn5B5M7l6MrAMs_o-56" value="" style="group" parent="BZBJQn5B5M7l6MrAMs_o-4" vertex="1" connectable="0">
          <mxGeometry width="309" height="39" as="geometry" />
        </mxCell>
        <mxCell id="cKbgiC5qh_IXnBO1eU4K-184" value="" style="rounded=1;whiteSpace=wrap;html=1;fillColor=#1C57CD;strokeColor=none;" parent="BZBJQn5B5M7l6MrAMs_o-56" vertex="1">
          <mxGeometry width="309" height="39" as="geometry" />
        </mxCell>
        <mxCell id="cKbgiC5qh_IXnBO1eU4K-185" value="" style="sketch=0;outlineConnect=0;fontColor=#FFFFFF;gradientColor=none;fillColor=#FFFFFF;strokeColor=none;dashed=0;verticalLabelPosition=bottom;verticalAlign=top;align=center;html=1;fontSize=12;fontStyle=0;aspect=fixed;pointerEvents=1;shape=mxgraph.aws4.gear;rounded=1;" parent="BZBJQn5B5M7l6MrAMs_o-56" vertex="1">
          <mxGeometry x="280" y="11" width="17" height="17" as="geometry" />
        </mxCell>
        <mxCell id="cKbgiC5qh_IXnBO1eU4K-186" value="Разместить услугу" style="text;html=1;align=center;verticalAlign=middle;whiteSpace=wrap;rounded=1;fontSize=13;fontColor=#FFFFFF;" parent="BZBJQn5B5M7l6MrAMs_o-56" vertex="1">
          <mxGeometry x="6" y="4.5" width="132" height="30" as="geometry" />
        </mxCell>
        <mxCell id="BZBJQn5B5M7l6MrAMs_o-5" value="" style="group" parent="PlenrtrV-lZkWa3VHan3-197" vertex="1" connectable="0">
          <mxGeometry x="330" y="417" width="309" height="39" as="geometry" />
        </mxCell>
        <mxCell id="BZBJQn5B5M7l6MrAMs_o-57" value="" style="group" parent="BZBJQn5B5M7l6MrAMs_o-5" vertex="1" connectable="0">
          <mxGeometry width="309" height="39" as="geometry" />
        </mxCell>
        <mxCell id="cKbgiC5qh_IXnBO1eU4K-187" value="" style="rounded=1;whiteSpace=wrap;html=1;fillColor=#1C57CD;strokeColor=none;" parent="BZBJQn5B5M7l6MrAMs_o-57" vertex="1">
          <mxGeometry width="309" height="39" as="geometry" />
        </mxCell>
        <mxCell id="cKbgiC5qh_IXnBO1eU4K-188" value="" style="sketch=0;outlineConnect=0;fontColor=#FFFFFF;gradientColor=none;fillColor=#FFFFFF;strokeColor=none;dashed=0;verticalLabelPosition=bottom;verticalAlign=top;align=center;html=1;fontSize=12;fontStyle=0;aspect=fixed;pointerEvents=1;shape=mxgraph.aws4.gear;rounded=1;" parent="BZBJQn5B5M7l6MrAMs_o-57" vertex="1">
          <mxGeometry x="280" y="11" width="17" height="17" as="geometry" />
        </mxCell>
        <mxCell id="cKbgiC5qh_IXnBO1eU4K-189" value="Создать аукцион" style="text;html=1;align=center;verticalAlign=middle;whiteSpace=wrap;rounded=1;fontSize=13;fontColor=#FFFFFF;" parent="BZBJQn5B5M7l6MrAMs_o-57" vertex="1">
          <mxGeometry x="10" y="4.5" width="110" height="30" as="geometry" />
        </mxCell>
        <mxCell id="BZBJQn5B5M7l6MrAMs_o-6" value="" style="group" parent="PlenrtrV-lZkWa3VHan3-197" vertex="1" connectable="0">
          <mxGeometry x="330" y="467" width="309" height="39" as="geometry" />
        </mxCell>
        <mxCell id="BZBJQn5B5M7l6MrAMs_o-58" value="" style="group" parent="BZBJQn5B5M7l6MrAMs_o-6" vertex="1" connectable="0">
          <mxGeometry width="309" height="39" as="geometry" />
        </mxCell>
        <mxCell id="cKbgiC5qh_IXnBO1eU4K-190" value="" style="rounded=1;whiteSpace=wrap;html=1;fillColor=#1C57CD;strokeColor=none;" parent="BZBJQn5B5M7l6MrAMs_o-58" vertex="1">
          <mxGeometry width="309" height="39" as="geometry" />
        </mxCell>
        <mxCell id="cKbgiC5qh_IXnBO1eU4K-191" value="" style="sketch=0;outlineConnect=0;fontColor=#FFFFFF;gradientColor=none;fillColor=#FFFFFF;strokeColor=none;dashed=0;verticalLabelPosition=bottom;verticalAlign=top;align=center;html=1;fontSize=12;fontStyle=0;aspect=fixed;pointerEvents=1;shape=mxgraph.aws4.gear;rounded=1;" parent="BZBJQn5B5M7l6MrAMs_o-58" vertex="1">
          <mxGeometry x="280" y="11" width="17" height="17" as="geometry" />
        </mxCell>
        <mxCell id="cKbgiC5qh_IXnBO1eU4K-192" value="Подать заявку на аукцион" style="text;html=1;align=center;verticalAlign=middle;whiteSpace=wrap;rounded=1;fontSize=13;fontColor=#FFFFFF;" parent="BZBJQn5B5M7l6MrAMs_o-58" vertex="1">
          <mxGeometry x="10" y="4.5" width="167" height="30" as="geometry" />
        </mxCell>
        <mxCell id="PlenrtrV-lZkWa3VHan3-199" value="" style="group" parent="1" vertex="1" connectable="0">
          <mxGeometry x="1343" y="-344" width="690" height="406" as="geometry" />
        </mxCell>
        <mxCell id="PlenrtrV-lZkWa3VHan3-19" value="" style="rounded=1;whiteSpace=wrap;html=1;arcSize=3;movable=1;resizable=1;rotatable=1;deletable=1;editable=1;locked=0;connectable=1;fillColor=#f5f5f5;strokeColor=#FF0000;strokeWidth=3;fontColor=#333333;" parent="PlenrtrV-lZkWa3VHan3-199" vertex="1">
          <mxGeometry width="690" height="404" as="geometry" />
        </mxCell>
        <mxCell id="2AGFnVR7y4NEZtL3Teil-1" value="" style="group" parent="PlenrtrV-lZkWa3VHan3-199" vertex="1" connectable="0">
          <mxGeometry x="14" y="73" width="309" height="39" as="geometry" />
        </mxCell>
        <mxCell id="BZBJQn5B5M7l6MrAMs_o-7" value="" style="group" parent="2AGFnVR7y4NEZtL3Teil-1" vertex="1" connectable="0">
          <mxGeometry width="309" height="39" as="geometry" />
        </mxCell>
        <mxCell id="aNh6FEuhw9lsT8rE3H5J-122" value="" style="rounded=1;whiteSpace=wrap;html=1;gradientColor=none;fillColor=#1C57CD;strokeColor=none;movable=1;resizable=1;rotatable=1;deletable=1;editable=1;locked=0;connectable=1;" parent="BZBJQn5B5M7l6MrAMs_o-7" vertex="1">
          <mxGeometry width="309" height="39" as="geometry" />
        </mxCell>
        <mxCell id="aNh6FEuhw9lsT8rE3H5J-123" value="" style="sketch=0;outlineConnect=0;dashed=0;verticalLabelPosition=bottom;verticalAlign=top;align=center;html=1;fontSize=12;fontStyle=0;aspect=fixed;pointerEvents=1;shape=mxgraph.aws4.gear;rounded=1;strokeColor=none;fillColor=default;" parent="BZBJQn5B5M7l6MrAMs_o-7" vertex="1">
          <mxGeometry x="280" y="11" width="17" height="17" as="geometry" />
        </mxCell>
        <mxCell id="aNh6FEuhw9lsT8rE3H5J-93" value="Регистрация пользователя" style="text;html=1;align=center;verticalAlign=middle;whiteSpace=wrap;rounded=1;fontSize=13;fontColor=#FFFFFF;strokeColor=none;movable=1;resizable=1;rotatable=1;deletable=1;editable=1;locked=0;connectable=1;" parent="BZBJQn5B5M7l6MrAMs_o-7" vertex="1">
          <mxGeometry x="3" y="4.5" width="172" height="30" as="geometry" />
        </mxCell>
        <mxCell id="BZBJQn5B5M7l6MrAMs_o-8" value="" style="group" parent="PlenrtrV-lZkWa3VHan3-199" vertex="1" connectable="0">
          <mxGeometry x="18" y="129" width="309" height="39" as="geometry" />
        </mxCell>
        <mxCell id="Tz6aEU4ManMyac2rpAqn-42" value="" style="rounded=1;whiteSpace=wrap;html=1;fillColor=#1C57CD;strokeColor=none;" parent="BZBJQn5B5M7l6MrAMs_o-8" vertex="1">
          <mxGeometry width="309" height="39" as="geometry" />
        </mxCell>
        <mxCell id="Tz6aEU4ManMyac2rpAqn-43" value="" style="sketch=0;outlineConnect=0;fontColor=#232F3E;gradientColor=none;fillColor=default;strokeColor=none;dashed=0;verticalLabelPosition=bottom;verticalAlign=top;align=center;html=1;fontSize=12;fontStyle=0;aspect=fixed;pointerEvents=1;shape=mxgraph.aws4.gear;rounded=1;" parent="BZBJQn5B5M7l6MrAMs_o-8" vertex="1">
          <mxGeometry x="280" y="11" width="17" height="17" as="geometry" />
        </mxCell>
        <mxCell id="Tz6aEU4ManMyac2rpAqn-44" value="Аутентификация" style="text;html=1;align=center;verticalAlign=middle;whiteSpace=wrap;rounded=1;fontSize=13;fontColor=#FFFFFF;strokeColor=none;" parent="BZBJQn5B5M7l6MrAMs_o-8" vertex="1">
          <mxGeometry x="2" y="4.5" width="114" height="30" as="geometry" />
        </mxCell>
        <mxCell id="BZBJQn5B5M7l6MrAMs_o-9" value="" style="group" parent="PlenrtrV-lZkWa3VHan3-199" vertex="1" connectable="0">
          <mxGeometry x="21" y="184" width="309" height="39" as="geometry" />
        </mxCell>
        <mxCell id="Tz6aEU4ManMyac2rpAqn-45" value="" style="rounded=1;whiteSpace=wrap;html=1;fillColor=#1C57CD;strokeColor=none;" parent="BZBJQn5B5M7l6MrAMs_o-9" vertex="1">
          <mxGeometry width="309" height="39" as="geometry" />
        </mxCell>
        <mxCell id="Tz6aEU4ManMyac2rpAqn-46" value="" style="sketch=0;outlineConnect=0;fontColor=#232F3E;gradientColor=none;fillColor=default;strokeColor=none;dashed=0;verticalLabelPosition=bottom;verticalAlign=top;align=center;html=1;fontSize=12;fontStyle=0;aspect=fixed;pointerEvents=1;shape=mxgraph.aws4.gear;rounded=1;" parent="BZBJQn5B5M7l6MrAMs_o-9" vertex="1">
          <mxGeometry x="280" y="11" width="17" height="17" as="geometry" />
        </mxCell>
        <mxCell id="Tz6aEU4ManMyac2rpAqn-47" value="Присвоение ролей" style="text;html=1;align=center;verticalAlign=middle;whiteSpace=wrap;rounded=1;fontSize=13;fontColor=#FFFFFF;strokeColor=none;" parent="BZBJQn5B5M7l6MrAMs_o-9" vertex="1">
          <mxGeometry x="3" y="5" width="122" height="30" as="geometry" />
        </mxCell>
        <mxCell id="BZBJQn5B5M7l6MrAMs_o-10" value="" style="group" parent="PlenrtrV-lZkWa3VHan3-199" vertex="1" connectable="0">
          <mxGeometry x="15" y="237" width="309" height="39" as="geometry" />
        </mxCell>
        <mxCell id="Tz6aEU4ManMyac2rpAqn-72" value="" style="rounded=1;whiteSpace=wrap;html=1;fillColor=#1C57CD;strokeColor=none;" parent="BZBJQn5B5M7l6MrAMs_o-10" vertex="1">
          <mxGeometry width="309" height="39" as="geometry" />
        </mxCell>
        <mxCell id="Tz6aEU4ManMyac2rpAqn-73" value="" style="sketch=0;outlineConnect=0;fontColor=#232F3E;gradientColor=none;fillColor=default;strokeColor=none;dashed=0;verticalLabelPosition=bottom;verticalAlign=top;align=center;html=1;fontSize=12;fontStyle=0;aspect=fixed;pointerEvents=1;shape=mxgraph.aws4.gear;rounded=1;" parent="BZBJQn5B5M7l6MrAMs_o-10" vertex="1">
          <mxGeometry x="280" y="11" width="17" height="17" as="geometry" />
        </mxCell>
        <mxCell id="Tz6aEU4ManMyac2rpAqn-74" value="Нотификация нового пользователя" style="text;html=1;align=center;verticalAlign=middle;whiteSpace=wrap;rounded=1;fontSize=13;fontColor=#FFFFFF;strokeColor=none;" parent="BZBJQn5B5M7l6MrAMs_o-10" vertex="1">
          <mxGeometry x="3" y="4.5" width="227" height="30" as="geometry" />
        </mxCell>
        <mxCell id="BZBJQn5B5M7l6MrAMs_o-11" value="" style="group" parent="PlenrtrV-lZkWa3VHan3-199" vertex="1" connectable="0">
          <mxGeometry x="18" y="343" width="309" height="39" as="geometry" />
        </mxCell>
        <mxCell id="Tz6aEU4ManMyac2rpAqn-48" value="" style="rounded=1;whiteSpace=wrap;html=1;fillColor=#1C57CD;strokeColor=none;" parent="BZBJQn5B5M7l6MrAMs_o-11" vertex="1">
          <mxGeometry width="309" height="39" as="geometry" />
        </mxCell>
        <mxCell id="Tz6aEU4ManMyac2rpAqn-49" value="" style="sketch=0;outlineConnect=0;fontColor=#232F3E;gradientColor=none;fillColor=default;strokeColor=none;dashed=0;verticalLabelPosition=bottom;verticalAlign=top;align=center;html=1;fontSize=12;fontStyle=0;aspect=fixed;pointerEvents=1;shape=mxgraph.aws4.gear;rounded=1;" parent="BZBJQn5B5M7l6MrAMs_o-11" vertex="1">
          <mxGeometry x="280" y="11" width="17" height="17" as="geometry" />
        </mxCell>
        <mxCell id="Tz6aEU4ManMyac2rpAqn-50" value="Валидация токена безопасности" style="text;html=1;align=center;verticalAlign=middle;whiteSpace=wrap;rounded=1;fontSize=13;fontColor=#FFFFFF;strokeColor=none;" parent="BZBJQn5B5M7l6MrAMs_o-11" vertex="1">
          <mxGeometry x="3" y="4.5" width="209" height="30" as="geometry" />
        </mxCell>
        <mxCell id="BZBJQn5B5M7l6MrAMs_o-39" value="" style="group" parent="PlenrtrV-lZkWa3VHan3-199" vertex="1" connectable="0">
          <mxGeometry x="20" y="290" width="309" height="39" as="geometry" />
        </mxCell>
        <mxCell id="cKbgiC5qh_IXnBO1eU4K-16" value="" style="rounded=1;whiteSpace=wrap;html=1;fillColor=#1C57CD;strokeColor=none;" parent="BZBJQn5B5M7l6MrAMs_o-39" vertex="1">
          <mxGeometry width="309" height="39" as="geometry" />
        </mxCell>
        <mxCell id="cKbgiC5qh_IXnBO1eU4K-17" value="" style="sketch=0;outlineConnect=0;fontColor=#232F3E;gradientColor=none;fillColor=#FFFFFF;strokeColor=none;dashed=0;verticalLabelPosition=bottom;verticalAlign=top;align=center;html=1;fontSize=12;fontStyle=0;aspect=fixed;pointerEvents=1;shape=mxgraph.aws4.gear;rounded=1;" parent="BZBJQn5B5M7l6MrAMs_o-39" vertex="1">
          <mxGeometry x="280" y="11" width="17" height="17" as="geometry" />
        </mxCell>
        <mxCell id="cKbgiC5qh_IXnBO1eU4K-18" value="Сгенерировать отчёт активности пользователей" style="text;html=1;align=center;verticalAlign=middle;whiteSpace=wrap;rounded=1;fontSize=13;fontColor=#FFFFFF;strokeColor=none;" parent="BZBJQn5B5M7l6MrAMs_o-39" vertex="1">
          <mxGeometry x="5" y="6" width="215" height="30" as="geometry" />
        </mxCell>
        <mxCell id="PlenrtrV-lZkWa3VHan3-20" value="Профиль пользователя" style="text;html=1;align=center;verticalAlign=middle;whiteSpace=wrap;rounded=1;shadow=0;fontSize=23;fontStyle=1" parent="PlenrtrV-lZkWa3VHan3-199" vertex="1">
          <mxGeometry x="22" y="21" width="306" height="49" as="geometry" />
        </mxCell>
        <mxCell id="PlenrtrV-lZkWa3VHan3-161" value="" style="strokeWidth=2;html=1;shape=mxgraph.flowchart.database;whiteSpace=wrap;rounded=1;movable=1;resizable=1;rotatable=1;deletable=1;editable=1;locked=0;connectable=1;" parent="PlenrtrV-lZkWa3VHan3-199" vertex="1">
          <mxGeometry x="336" y="40" width="323" height="338" as="geometry" />
        </mxCell>
        <mxCell id="PlenrtrV-lZkWa3VHan3-162" value="" style="group" parent="PlenrtrV-lZkWa3VHan3-199" vertex="1" connectable="0">
          <mxGeometry x="434" y="69" width="151" height="49" as="geometry" />
        </mxCell>
        <mxCell id="PlenrtrV-lZkWa3VHan3-163" value="&lt;p style=&quot;margin: 0px 0px 0px 13px; text-indent: -13px; font-variant-numeric: normal; font-variant-east-asian: normal; font-variant-alternates: normal; font-kerning: auto; font-optical-sizing: auto; font-feature-settings: normal; font-variation-settings: normal; font-variant-position: normal; font-stretch: normal; font-size: 14px; line-height: normal; color: rgb(14, 14, 14); text-align: start;&quot; class=&quot;p1&quot;&gt;&lt;br&gt;&lt;/p&gt;" style="rounded=1;whiteSpace=wrap;html=1;fillColor=#FF77BF;strokeColor=none;arcSize=50;" parent="PlenrtrV-lZkWa3VHan3-162" vertex="1">
          <mxGeometry y="9" width="151" height="33" as="geometry" />
        </mxCell>
        <mxCell id="PlenrtrV-lZkWa3VHan3-164" value="&lt;font style=&quot;font-size: 18px;&quot;&gt;&lt;i&gt;PostgreSQL&lt;/i&gt;&lt;/font&gt;" style="text;html=1;align=center;verticalAlign=middle;whiteSpace=wrap;rounded=1;shadow=0;fontSize=23;fontStyle=1" parent="PlenrtrV-lZkWa3VHan3-162" vertex="1">
          <mxGeometry x="31" width="89" height="49" as="geometry" />
        </mxCell>
        <mxCell id="PlenrtrV-lZkWa3VHan3-165" style="edgeStyle=orthogonalEdgeStyle;rounded=0;orthogonalLoop=1;jettySize=auto;html=1;exitX=0.5;exitY=1;exitDx=0;exitDy=0;" parent="PlenrtrV-lZkWa3VHan3-199" source="PlenrtrV-lZkWa3VHan3-19" target="PlenrtrV-lZkWa3VHan3-19" edge="1">
          <mxGeometry relative="1" as="geometry" />
        </mxCell>
        <mxCell id="cKbgiC5qh_IXnBO1eU4K-57" value="&lt;p style=&quot;margin: 0px 0px 0px 13px; text-indent: -13px; font-variant-numeric: normal; font-variant-east-asian: normal; font-variant-alternates: normal; font-kerning: auto; font-optical-sizing: auto; font-feature-settings: normal; font-variation-settings: normal; font-variant-position: normal; font-stretch: normal; font-size: 14px; line-height: normal; color: rgb(14, 14, 14); text-align: start;&quot; class=&quot;p1&quot;&gt;&lt;font face=&quot;Times New Roman&quot;&gt;Пользователь.Фамилия&lt;/font&gt;&lt;/p&gt;" style="rounded=1;whiteSpace=wrap;html=1;fillColor=#b1ddf0;strokeColor=#10739e;" parent="PlenrtrV-lZkWa3VHan3-199" vertex="1">
          <mxGeometry x="340" y="167" width="151" height="21" as="geometry" />
        </mxCell>
        <mxCell id="cKbgiC5qh_IXnBO1eU4K-69" value="&lt;p style=&quot;margin: 0px 0px 0px 13px; text-indent: -13px; font-variant-numeric: normal; font-variant-east-asian: normal; font-variant-alternates: normal; font-kerning: auto; font-optical-sizing: auto; font-feature-settings: normal; font-variation-settings: normal; font-variant-position: normal; font-stretch: normal; font-size: 14px; line-height: normal; color: rgb(14, 14, 14); text-align: start;&quot; class=&quot;p1&quot;&gt;&lt;font face=&quot;Times New Roman&quot;&gt;Пользователь.Статус&lt;/font&gt;&lt;/p&gt;" style="rounded=1;whiteSpace=wrap;html=1;fillColor=#b1ddf0;strokeColor=#10739e;" parent="PlenrtrV-lZkWa3VHan3-199" vertex="1">
          <mxGeometry x="343" y="194" width="136" height="21" as="geometry" />
        </mxCell>
        <mxCell id="cKbgiC5qh_IXnBO1eU4K-71" value="&lt;p style=&quot;margin: 0px 0px 0px 13px; text-indent: -13px; font-variant-numeric: normal; font-variant-east-asian: normal; font-variant-alternates: normal; font-kerning: auto; font-optical-sizing: auto; font-feature-settings: normal; font-variation-settings: normal; font-variant-position: normal; font-stretch: normal; font-size: 14px; line-height: normal; color: rgb(14, 14, 14); text-align: start;&quot; class=&quot;p1&quot;&gt;&lt;font face=&quot;Times New Roman&quot;&gt;Пользователь.Номер телефона&lt;/font&gt;&lt;/p&gt;" style="rounded=1;whiteSpace=wrap;html=1;fillColor=#b1ddf0;strokeColor=#10739e;" parent="PlenrtrV-lZkWa3VHan3-199" vertex="1">
          <mxGeometry x="339" y="219" width="190" height="21" as="geometry" />
        </mxCell>
        <mxCell id="cKbgiC5qh_IXnBO1eU4K-60" value="&lt;p style=&quot;margin: 0px 0px 0px 13px; text-indent: -13px; font-variant-numeric: normal; font-variant-east-asian: normal; font-variant-alternates: normal; font-kerning: auto; font-optical-sizing: auto; font-feature-settings: normal; font-variation-settings: normal; font-variant-position: normal; font-stretch: normal; font-size: 14px; line-height: normal; color: rgb(14, 14, 14); text-align: start;&quot; class=&quot;p1&quot;&gt;&lt;font face=&quot;Times New Roman&quot;&gt;Пользователь.Адрес&lt;/font&gt;&lt;/p&gt;" style="rounded=1;whiteSpace=wrap;html=1;fillColor=#b1ddf0;strokeColor=#10739e;" parent="PlenrtrV-lZkWa3VHan3-199" vertex="1">
          <mxGeometry x="508" y="161" width="130" height="21" as="geometry" />
        </mxCell>
        <mxCell id="cKbgiC5qh_IXnBO1eU4K-49" value="&lt;p style=&quot;margin: 0px 0px 0px 13px; text-indent: -13px; font-variant-numeric: normal; font-variant-east-asian: normal; font-variant-alternates: normal; font-kerning: auto; font-optical-sizing: auto; font-feature-settings: normal; font-variation-settings: normal; font-variant-position: normal; font-stretch: normal; font-size: 14px; line-height: normal; color: rgb(14, 14, 14); text-align: start;&quot; class=&quot;p1&quot;&gt;&lt;font face=&quot;Times New Roman&quot;&gt;Пользователь.Роль&lt;/font&gt;&lt;/p&gt;" style="rounded=1;whiteSpace=wrap;html=1;fillColor=#b1ddf0;strokeColor=#10739e;arcSize=0;" parent="PlenrtrV-lZkWa3VHan3-199" vertex="1">
          <mxGeometry x="498" y="194" width="151" height="21" as="geometry" />
        </mxCell>
        <mxCell id="cKbgiC5qh_IXnBO1eU4K-56" value="&lt;p style=&quot;margin: 0px 0px 0px 13px; text-indent: -13px; font-variant-numeric: normal; font-variant-east-asian: normal; font-variant-alternates: normal; font-kerning: auto; font-optical-sizing: auto; font-feature-settings: normal; font-variation-settings: normal; font-variant-position: normal; font-stretch: normal; font-size: 14px; line-height: normal; color: rgb(14, 14, 14); text-align: start;&quot; class=&quot;p1&quot;&gt;&lt;font face=&quot;Times New Roman&quot;&gt;Пользователь.Имя&lt;/font&gt;&lt;/p&gt;" style="rounded=1;whiteSpace=wrap;html=1;fillColor=#b1ddf0;strokeColor=#10739e;" parent="PlenrtrV-lZkWa3VHan3-199" vertex="1">
          <mxGeometry x="345" y="251" width="119" height="21" as="geometry" />
        </mxCell>
        <mxCell id="cKbgiC5qh_IXnBO1eU4K-68" value="&lt;p style=&quot;margin: 0px 0px 0px 13px; text-indent: -13px; font-variant-numeric: normal; font-variant-east-asian: normal; font-variant-alternates: normal; font-kerning: auto; font-optical-sizing: auto; font-feature-settings: normal; font-variation-settings: normal; font-variant-position: normal; font-stretch: normal; font-size: 14px; line-height: normal; color: rgb(14, 14, 14); text-align: start;&quot; class=&quot;p1&quot;&gt;&lt;font face=&quot;Times New Roman&quot;&gt;Пользователь.Дата регистрации&lt;/font&gt;&lt;/p&gt;" style="rounded=1;whiteSpace=wrap;html=1;fillColor=#b1ddf0;strokeColor=#10739e;" parent="PlenrtrV-lZkWa3VHan3-199" vertex="1">
          <mxGeometry x="342" y="285" width="199" height="21" as="geometry" />
        </mxCell>
        <mxCell id="cKbgiC5qh_IXnBO1eU4K-50" value="&lt;p style=&quot;margin: 0px 0px 0px 13px; text-indent: -13px; font-variant-numeric: normal; font-variant-east-asian: normal; font-variant-alternates: normal; font-kerning: auto; font-optical-sizing: auto; font-feature-settings: normal; font-variation-settings: normal; font-variant-position: normal; font-stretch: normal; font-size: 14px; line-height: normal; color: rgb(14, 14, 14); text-align: start;&quot; class=&quot;p1&quot;&gt;&lt;font face=&quot;Times New Roman&quot;&gt;Пользователь.ID&lt;/font&gt;&lt;/p&gt;" style="rounded=1;whiteSpace=wrap;html=1;fillColor=#b1ddf0;strokeColor=#10739e;" parent="PlenrtrV-lZkWa3VHan3-199" vertex="1">
          <mxGeometry x="478" y="251" width="151" height="21" as="geometry" />
        </mxCell>
        <mxCell id="cKbgiC5qh_IXnBO1eU4K-70" value="&lt;p style=&quot;margin: 0px 0px 0px 13px; text-indent: -13px; font-variant-numeric: normal; font-variant-east-asian: normal; font-variant-alternates: normal; font-kerning: auto; font-optical-sizing: auto; font-feature-settings: normal; font-variation-settings: normal; font-variant-position: normal; font-stretch: normal; font-size: 14px; line-height: normal; color: rgb(14, 14, 14); text-align: start;&quot; class=&quot;p1&quot;&gt;&lt;font face=&quot;Times New Roman&quot;&gt;Пользователь.Электронная почта&lt;/font&gt;&lt;/p&gt;" style="rounded=1;whiteSpace=wrap;html=1;fillColor=#b1ddf0;strokeColor=#10739e;" parent="PlenrtrV-lZkWa3VHan3-199" vertex="1">
          <mxGeometry x="356" y="312" width="209" height="21" as="geometry" />
        </mxCell>
        <mxCell id="cKbgiC5qh_IXnBO1eU4K-46" value="&lt;p style=&quot;margin: 0px 0px 0px 13px; text-indent: -13px; font-variant-numeric: normal; font-variant-east-asian: normal; font-variant-alternates: normal; font-kerning: auto; font-optical-sizing: auto; font-feature-settings: normal; font-variation-settings: normal; font-variant-position: normal; font-stretch: normal; line-height: normal; color: rgb(14, 14, 14); text-align: start;&quot; class=&quot;p1&quot;&gt;&lt;font face=&quot;Times New Roman&quot;&gt;&lt;span style=&quot;font-size: 14px;&quot;&gt;JWT&lt;/span&gt;&lt;/font&gt;&lt;/p&gt;" style="rounded=1;whiteSpace=wrap;html=1;fillColor=#b1ddf0;strokeColor=#10739e;" parent="PlenrtrV-lZkWa3VHan3-199" vertex="1">
          <mxGeometry x="573" y="294" width="49" height="21" as="geometry" />
        </mxCell>
        <mxCell id="cKbgiC5qh_IXnBO1eU4K-77" value="&lt;p style=&quot;margin: 0px 0px 0px 13px; text-indent: -13px; font-variant-numeric: normal; font-variant-east-asian: normal; font-variant-alternates: normal; font-kerning: auto; font-optical-sizing: auto; font-feature-settings: normal; font-variation-settings: normal; font-variant-position: normal; font-stretch: normal; font-size: 14px; line-height: normal; color: rgb(14, 14, 14); text-align: start;&quot; class=&quot;p1&quot;&gt;&lt;font face=&quot;Times New Roman&quot;&gt;Пользователь.Активен&lt;/font&gt;&lt;/p&gt;" style="rounded=1;whiteSpace=wrap;html=1;fillColor=#b1ddf0;strokeColor=#10739e;" parent="PlenrtrV-lZkWa3VHan3-199" vertex="1">
          <mxGeometry x="416" y="339" width="147" height="21" as="geometry" />
        </mxCell>
        <mxCell id="PlenrtrV-lZkWa3VHan3-226" value="2" style="ellipse;whiteSpace=wrap;html=1;aspect=fixed;rounded=1;fillColor=#FF77BF;" parent="PlenrtrV-lZkWa3VHan3-199" vertex="1">
          <mxGeometry x="-13" y="383" width="23" height="23" as="geometry" />
        </mxCell>
        <mxCell id="PlenrtrV-lZkWa3VHan3-201" value="" style="endArrow=classic;html=1;rounded=1;dashed=1;entryX=0.5;entryY=0;entryDx=0;entryDy=0;fontSize=12;exitX=0.998;exitY=0.442;exitDx=0;exitDy=0;exitPerimeter=0;" parent="1" source="cKbgiC5qh_IXnBO1eU4K-163" target="PlenrtrV-lZkWa3VHan3-19" edge="1">
          <mxGeometry width="50" height="50" relative="1" as="geometry">
            <mxPoint x="842" y="-360" as="sourcePoint" />
            <mxPoint x="828" y="-65" as="targetPoint" />
            <Array as="points">
              <mxPoint x="1693" y="-485" />
            </Array>
          </mxGeometry>
        </mxCell>
        <mxCell id="PlenrtrV-lZkWa3VHan3-202" value="Зарегистрироваться&lt;div&gt;Редактировать профиль&lt;/div&gt;" style="text;html=1;align=center;verticalAlign=middle;whiteSpace=wrap;rounded=1;fontSize=13;" parent="1" vertex="1">
          <mxGeometry x="1427" y="-544" width="243" height="43" as="geometry" />
        </mxCell>
        <mxCell id="PlenrtrV-lZkWa3VHan3-205" value="" style="group" parent="1" vertex="1" connectable="0">
          <mxGeometry x="410" y="-51" width="691" height="483" as="geometry" />
        </mxCell>
        <mxCell id="PlenrtrV-lZkWa3VHan3-11" value="" style="rounded=1;whiteSpace=wrap;html=1;arcSize=3;movable=1;resizable=1;rotatable=1;deletable=1;editable=1;locked=0;connectable=1;fillColor=#f5f5f5;strokeColor=#FF0000;strokeWidth=3;fontColor=#333333;" parent="PlenrtrV-lZkWa3VHan3-205" vertex="1">
          <mxGeometry x="1" width="690" height="456" as="geometry" />
        </mxCell>
        <mxCell id="BZBJQn5B5M7l6MrAMs_o-14" value="" style="group" parent="PlenrtrV-lZkWa3VHan3-205" vertex="1" connectable="0">
          <mxGeometry x="24" y="86" width="309" height="39" as="geometry" />
        </mxCell>
        <mxCell id="Tz6aEU4ManMyac2rpAqn-75" value="" style="rounded=1;whiteSpace=wrap;html=1;fillColor=#1C57CD;strokeColor=none;" parent="BZBJQn5B5M7l6MrAMs_o-14" vertex="1">
          <mxGeometry width="309" height="39" as="geometry" />
        </mxCell>
        <mxCell id="Tz6aEU4ManMyac2rpAqn-76" value="" style="sketch=0;outlineConnect=0;fontColor=#232F3E;gradientColor=none;fillColor=default;strokeColor=none;dashed=0;verticalLabelPosition=bottom;verticalAlign=top;align=center;html=1;fontSize=12;fontStyle=0;aspect=fixed;pointerEvents=1;shape=mxgraph.aws4.gear;rounded=1;" parent="BZBJQn5B5M7l6MrAMs_o-14" vertex="1">
          <mxGeometry x="282" y="11" width="17" height="17" as="geometry" />
        </mxCell>
        <mxCell id="Tz6aEU4ManMyac2rpAqn-77" value="Создание заказа" style="text;html=1;align=center;verticalAlign=middle;whiteSpace=wrap;rounded=1;fontSize=13;fontColor=#FFFFFF;strokeColor=none;" parent="BZBJQn5B5M7l6MrAMs_o-14" vertex="1">
          <mxGeometry x="5" y="4.5" width="110" height="30" as="geometry" />
        </mxCell>
        <mxCell id="BZBJQn5B5M7l6MrAMs_o-15" value="" style="group" parent="PlenrtrV-lZkWa3VHan3-205" vertex="1" connectable="0">
          <mxGeometry x="21" y="145" width="309" height="39" as="geometry" />
        </mxCell>
        <mxCell id="Tz6aEU4ManMyac2rpAqn-78" value="" style="rounded=1;whiteSpace=wrap;html=1;fillColor=#1C57CD;strokeColor=none;" parent="BZBJQn5B5M7l6MrAMs_o-15" vertex="1">
          <mxGeometry width="309" height="39" as="geometry" />
        </mxCell>
        <mxCell id="Tz6aEU4ManMyac2rpAqn-79" value="" style="sketch=0;outlineConnect=0;fontColor=#232F3E;gradientColor=none;fillColor=default;strokeColor=none;dashed=0;verticalLabelPosition=bottom;verticalAlign=top;align=center;html=1;fontSize=12;fontStyle=0;aspect=fixed;pointerEvents=1;shape=mxgraph.aws4.gear;rounded=1;" parent="BZBJQn5B5M7l6MrAMs_o-15" vertex="1">
          <mxGeometry x="282" y="11" width="17" height="17" as="geometry" />
        </mxCell>
        <mxCell id="Tz6aEU4ManMyac2rpAqn-80" value="Редактирование заказа" style="text;html=1;align=center;verticalAlign=middle;whiteSpace=wrap;rounded=1;fontSize=13;fontColor=#FFFFFF;strokeColor=none;" parent="BZBJQn5B5M7l6MrAMs_o-15" vertex="1">
          <mxGeometry x="3" y="4.5" width="154" height="30" as="geometry" />
        </mxCell>
        <mxCell id="BZBJQn5B5M7l6MrAMs_o-16" value="" style="group" parent="PlenrtrV-lZkWa3VHan3-205" vertex="1" connectable="0">
          <mxGeometry x="21" y="201" width="309" height="39" as="geometry" />
        </mxCell>
        <mxCell id="Tz6aEU4ManMyac2rpAqn-81" value="" style="rounded=1;whiteSpace=wrap;html=1;fillColor=#1C57CD;strokeColor=none;" parent="BZBJQn5B5M7l6MrAMs_o-16" vertex="1">
          <mxGeometry width="309" height="39" as="geometry" />
        </mxCell>
        <mxCell id="Tz6aEU4ManMyac2rpAqn-82" value="" style="sketch=0;outlineConnect=0;fontColor=#232F3E;gradientColor=none;fillColor=default;strokeColor=none;dashed=0;verticalLabelPosition=bottom;verticalAlign=top;align=center;html=1;fontSize=12;fontStyle=0;aspect=fixed;pointerEvents=1;shape=mxgraph.aws4.gear;rounded=1;" parent="BZBJQn5B5M7l6MrAMs_o-16" vertex="1">
          <mxGeometry x="282" y="11" width="17" height="17" as="geometry" />
        </mxCell>
        <mxCell id="Tz6aEU4ManMyac2rpAqn-83" value="Сохранение заказа" style="text;html=1;align=center;verticalAlign=middle;whiteSpace=wrap;rounded=1;fontSize=13;fontColor=#FFFFFF;strokeColor=none;" parent="BZBJQn5B5M7l6MrAMs_o-16" vertex="1">
          <mxGeometry x="4" y="4" width="126" height="30" as="geometry" />
        </mxCell>
        <mxCell id="BZBJQn5B5M7l6MrAMs_o-17" value="" style="group" parent="PlenrtrV-lZkWa3VHan3-205" vertex="1" connectable="0">
          <mxGeometry x="16" y="259" width="309" height="39" as="geometry" />
        </mxCell>
        <mxCell id="Tz6aEU4ManMyac2rpAqn-84" value="" style="rounded=1;whiteSpace=wrap;html=1;fillColor=#1C57CD;strokeColor=none;" parent="BZBJQn5B5M7l6MrAMs_o-17" vertex="1">
          <mxGeometry width="309" height="39" as="geometry" />
        </mxCell>
        <mxCell id="Tz6aEU4ManMyac2rpAqn-85" value="" style="sketch=0;outlineConnect=0;fontColor=#232F3E;gradientColor=none;fillColor=default;strokeColor=none;dashed=0;verticalLabelPosition=bottom;verticalAlign=top;align=center;html=1;fontSize=12;fontStyle=0;aspect=fixed;pointerEvents=1;shape=mxgraph.aws4.gear;rounded=1;" parent="BZBJQn5B5M7l6MrAMs_o-17" vertex="1">
          <mxGeometry x="281.5" y="11" width="17" height="17" as="geometry" />
        </mxCell>
        <mxCell id="Tz6aEU4ManMyac2rpAqn-86" value="Подтверждение заказа" style="text;html=1;align=center;verticalAlign=middle;whiteSpace=wrap;rounded=1;fontSize=13;fontColor=#FFFFFF;strokeColor=none;" parent="BZBJQn5B5M7l6MrAMs_o-17" vertex="1">
          <mxGeometry x="4" y="4.5" width="152" height="30" as="geometry" />
        </mxCell>
        <mxCell id="BZBJQn5B5M7l6MrAMs_o-18" value="" style="group" parent="PlenrtrV-lZkWa3VHan3-205" vertex="1" connectable="0">
          <mxGeometry x="21" y="310" width="309" height="39" as="geometry" />
        </mxCell>
        <mxCell id="Tz6aEU4ManMyac2rpAqn-87" value="" style="rounded=1;whiteSpace=wrap;html=1;fillColor=#1C57CD;strokeColor=none;" parent="BZBJQn5B5M7l6MrAMs_o-18" vertex="1">
          <mxGeometry width="309" height="39" as="geometry" />
        </mxCell>
        <mxCell id="Tz6aEU4ManMyac2rpAqn-88" value="" style="sketch=0;outlineConnect=0;fontColor=#232F3E;gradientColor=none;fillColor=default;strokeColor=none;dashed=0;verticalLabelPosition=bottom;verticalAlign=top;align=center;html=1;fontSize=12;fontStyle=0;aspect=fixed;pointerEvents=1;shape=mxgraph.aws4.gear;rounded=1;" parent="BZBJQn5B5M7l6MrAMs_o-18" vertex="1">
          <mxGeometry x="281.5" y="11" width="17" height="17" as="geometry" />
        </mxCell>
        <mxCell id="Tz6aEU4ManMyac2rpAqn-89" value="Размещение заказа" style="text;html=1;align=center;verticalAlign=middle;whiteSpace=wrap;rounded=1;fontSize=13;fontColor=#FFFFFF;strokeColor=none;" parent="BZBJQn5B5M7l6MrAMs_o-18" vertex="1">
          <mxGeometry x="3" y="4.5" width="130.5" height="30" as="geometry" />
        </mxCell>
        <mxCell id="BZBJQn5B5M7l6MrAMs_o-19" value="" style="group" parent="PlenrtrV-lZkWa3VHan3-205" vertex="1" connectable="0">
          <mxGeometry x="19" y="360" width="309" height="39" as="geometry" />
        </mxCell>
        <mxCell id="Tz6aEU4ManMyac2rpAqn-90" value="" style="rounded=1;whiteSpace=wrap;html=1;fillColor=#1C57CD;strokeColor=none;" parent="BZBJQn5B5M7l6MrAMs_o-19" vertex="1">
          <mxGeometry width="309" height="39" as="geometry" />
        </mxCell>
        <mxCell id="Tz6aEU4ManMyac2rpAqn-91" value="" style="sketch=0;outlineConnect=0;fontColor=#232F3E;gradientColor=none;fillColor=default;strokeColor=none;dashed=0;verticalLabelPosition=bottom;verticalAlign=top;align=center;html=1;fontSize=12;fontStyle=0;aspect=fixed;pointerEvents=1;shape=mxgraph.aws4.gear;rounded=1;" parent="BZBJQn5B5M7l6MrAMs_o-19" vertex="1">
          <mxGeometry x="281.5" y="11" width="17" height="17" as="geometry" />
        </mxCell>
        <mxCell id="Tz6aEU4ManMyac2rpAqn-92" value="Отобразить все заказы" style="text;html=1;align=center;verticalAlign=middle;whiteSpace=wrap;rounded=1;fontSize=13;fontColor=#FFFFFF;strokeColor=none;" parent="BZBJQn5B5M7l6MrAMs_o-19" vertex="1">
          <mxGeometry x="3" y="4.5" width="152" height="30" as="geometry" />
        </mxCell>
        <mxCell id="BZBJQn5B5M7l6MrAMs_o-20" value="" style="group" parent="PlenrtrV-lZkWa3VHan3-205" vertex="1" connectable="0">
          <mxGeometry x="21" y="410" width="309" height="39" as="geometry" />
        </mxCell>
        <mxCell id="Tz6aEU4ManMyac2rpAqn-93" value="" style="rounded=1;whiteSpace=wrap;html=1;fillColor=#1C57CD;strokeColor=none;" parent="BZBJQn5B5M7l6MrAMs_o-20" vertex="1">
          <mxGeometry width="309" height="39" as="geometry" />
        </mxCell>
        <mxCell id="Tz6aEU4ManMyac2rpAqn-94" value="" style="sketch=0;outlineConnect=0;fontColor=#232F3E;gradientColor=none;fillColor=default;strokeColor=none;dashed=0;verticalLabelPosition=bottom;verticalAlign=top;align=center;html=1;fontSize=12;fontStyle=0;aspect=fixed;pointerEvents=1;shape=mxgraph.aws4.gear;rounded=1;" parent="BZBJQn5B5M7l6MrAMs_o-20" vertex="1">
          <mxGeometry x="282" y="11" width="17" height="17" as="geometry" />
        </mxCell>
        <mxCell id="Tz6aEU4ManMyac2rpAqn-95" value="Отобразить детали заказа" style="text;html=1;align=center;verticalAlign=middle;whiteSpace=wrap;rounded=1;fontSize=13;fontColor=#FFFFFF;strokeColor=none;" parent="BZBJQn5B5M7l6MrAMs_o-20" vertex="1">
          <mxGeometry x="5" y="5" width="169" height="30" as="geometry" />
        </mxCell>
        <mxCell id="BZBJQn5B5M7l6MrAMs_o-21" value="" style="group" parent="PlenrtrV-lZkWa3VHan3-205" vertex="1" connectable="0">
          <mxGeometry x="357" y="89" width="309" height="39" as="geometry" />
        </mxCell>
        <mxCell id="Tz6aEU4ManMyac2rpAqn-96" value="" style="rounded=1;whiteSpace=wrap;html=1;fillColor=#1C57CD;strokeColor=none;" parent="BZBJQn5B5M7l6MrAMs_o-21" vertex="1">
          <mxGeometry width="309" height="39" as="geometry" />
        </mxCell>
        <mxCell id="Tz6aEU4ManMyac2rpAqn-97" value="" style="sketch=0;outlineConnect=0;fontColor=#232F3E;gradientColor=none;fillColor=default;strokeColor=none;dashed=0;verticalLabelPosition=bottom;verticalAlign=top;align=center;html=1;fontSize=12;fontStyle=0;aspect=fixed;pointerEvents=1;shape=mxgraph.aws4.gear;rounded=1;" parent="BZBJQn5B5M7l6MrAMs_o-21" vertex="1">
          <mxGeometry x="282" y="11" width="17" height="17" as="geometry" />
        </mxCell>
        <mxCell id="Tz6aEU4ManMyac2rpAqn-98" value="Нотификация об изменении состояния заказа" style="text;html=1;align=center;verticalAlign=middle;whiteSpace=wrap;rounded=1;fontSize=13;fontColor=#FFFFFF;strokeColor=none;" parent="BZBJQn5B5M7l6MrAMs_o-21" vertex="1">
          <mxGeometry x="6" y="4.5" width="247" height="30" as="geometry" />
        </mxCell>
        <mxCell id="BZBJQn5B5M7l6MrAMs_o-36" value="" style="group" parent="PlenrtrV-lZkWa3VHan3-205" vertex="1" connectable="0">
          <mxGeometry x="357" y="148" width="309" height="39" as="geometry" />
        </mxCell>
        <mxCell id="cKbgiC5qh_IXnBO1eU4K-13" value="" style="rounded=1;whiteSpace=wrap;html=1;fillColor=#1C57CD;strokeColor=none;" parent="BZBJQn5B5M7l6MrAMs_o-36" vertex="1">
          <mxGeometry width="309" height="39" as="geometry" />
        </mxCell>
        <mxCell id="cKbgiC5qh_IXnBO1eU4K-14" value="" style="sketch=0;outlineConnect=0;fontColor=#232F3E;gradientColor=none;fillColor=#FFFFFF;strokeColor=none;dashed=0;verticalLabelPosition=bottom;verticalAlign=top;align=center;html=1;fontSize=12;fontStyle=0;aspect=fixed;pointerEvents=1;shape=mxgraph.aws4.gear;rounded=1;" parent="BZBJQn5B5M7l6MrAMs_o-36" vertex="1">
          <mxGeometry x="286" y="11" width="17" height="17" as="geometry" />
        </mxCell>
        <mxCell id="cKbgiC5qh_IXnBO1eU4K-15" value="Отобразить статистику заказов" style="text;html=1;align=center;verticalAlign=middle;whiteSpace=wrap;rounded=1;fontSize=13;fontColor=#FFFFFF;strokeColor=none;" parent="BZBJQn5B5M7l6MrAMs_o-36" vertex="1">
          <mxGeometry x="6.5" y="4.5" width="202" height="30" as="geometry" />
        </mxCell>
        <mxCell id="PlenrtrV-lZkWa3VHan3-12" value="Заказы" style="text;html=1;align=center;verticalAlign=middle;whiteSpace=wrap;rounded=1;shadow=0;fontSize=23;fontStyle=1" parent="PlenrtrV-lZkWa3VHan3-205" vertex="1">
          <mxGeometry y="9" width="216" height="49" as="geometry" />
        </mxCell>
        <mxCell id="PlenrtrV-lZkWa3VHan3-171" value="" style="strokeWidth=2;html=1;shape=mxgraph.flowchart.database;whiteSpace=wrap;rounded=1;movable=1;resizable=1;rotatable=1;deletable=1;editable=1;locked=0;connectable=1;" parent="PlenrtrV-lZkWa3VHan3-205" vertex="1">
          <mxGeometry x="359" y="200" width="290" height="229" as="geometry" />
        </mxCell>
        <mxCell id="PlenrtrV-lZkWa3VHan3-172" value="" style="group" parent="PlenrtrV-lZkWa3VHan3-205" vertex="1" connectable="0">
          <mxGeometry x="422" y="210" width="151" height="49" as="geometry" />
        </mxCell>
        <mxCell id="PlenrtrV-lZkWa3VHan3-173" value="&lt;p style=&quot;margin: 0px 0px 0px 13px; text-indent: -13px; font-variant-numeric: normal; font-variant-east-asian: normal; font-variant-alternates: normal; font-kerning: auto; font-optical-sizing: auto; font-feature-settings: normal; font-variation-settings: normal; font-variant-position: normal; font-stretch: normal; font-size: 14px; line-height: normal; color: rgb(14, 14, 14); text-align: start;&quot; class=&quot;p1&quot;&gt;&lt;br&gt;&lt;/p&gt;" style="rounded=1;whiteSpace=wrap;html=1;fillColor=#FF77BF;strokeColor=none;arcSize=50;" parent="PlenrtrV-lZkWa3VHan3-172" vertex="1">
          <mxGeometry y="9" width="151" height="33" as="geometry" />
        </mxCell>
        <mxCell id="PlenrtrV-lZkWa3VHan3-174" value="&lt;font style=&quot;font-size: 18px;&quot;&gt;&lt;i&gt;PostgreSQL&lt;/i&gt;&lt;/font&gt;" style="text;html=1;align=center;verticalAlign=middle;whiteSpace=wrap;rounded=1;shadow=0;fontSize=23;fontStyle=1" parent="PlenrtrV-lZkWa3VHan3-172" vertex="1">
          <mxGeometry x="31" width="89" height="49" as="geometry" />
        </mxCell>
        <mxCell id="PlenrtrV-lZkWa3VHan3-170" value="&lt;p style=&quot;margin: 0px 0px 0px 13px; text-indent: -13px; font-variant-numeric: normal; font-variant-east-asian: normal; font-variant-alternates: normal; font-kerning: auto; font-optical-sizing: auto; font-feature-settings: normal; font-variation-settings: normal; font-variant-position: normal; font-stretch: normal; font-size: 14px; line-height: normal; color: rgb(14, 14, 14); text-align: start;&quot; class=&quot;p1&quot;&gt;&lt;font face=&quot;Times New Roman&quot;&gt;Пользователь.ID&lt;/font&gt;&lt;/p&gt;" style="rounded=1;whiteSpace=wrap;html=1;fillColor=#CCCCCC;strokeColor=#FF0000;" parent="PlenrtrV-lZkWa3VHan3-205" vertex="1">
          <mxGeometry x="389" y="309" width="151" height="21" as="geometry" />
        </mxCell>
        <mxCell id="PlenrtrV-lZkWa3VHan3-204" value="&lt;p style=&quot;margin: 0px 0px 0px 13px; text-indent: -13px; font-variant-numeric: normal; font-variant-east-asian: normal; font-variant-alternates: normal; font-kerning: auto; font-optical-sizing: auto; font-feature-settings: normal; font-variation-settings: normal; font-variant-position: normal; font-stretch: normal; font-size: 14px; line-height: normal; color: rgb(14, 14, 14); text-align: start;&quot; class=&quot;p1&quot;&gt;&lt;font face=&quot;Times New Roman&quot;&gt;Заказ.Info&lt;/font&gt;&lt;/p&gt;" style="rounded=1;whiteSpace=wrap;html=1;fillColor=#b1ddf0;strokeColor=#FF0000;" parent="PlenrtrV-lZkWa3VHan3-205" vertex="1">
          <mxGeometry x="391" y="347" width="107" height="21" as="geometry" />
        </mxCell>
        <mxCell id="PlenrtrV-lZkWa3VHan3-238" value="&lt;p style=&quot;margin: 0px 0px 0px 13px; text-indent: -13px; font-variant-numeric: normal; font-variant-east-asian: normal; font-variant-alternates: normal; font-kerning: auto; font-optical-sizing: auto; font-feature-settings: normal; font-variation-settings: normal; font-variant-position: normal; font-stretch: normal; font-size: 14px; line-height: normal; color: rgb(14, 14, 14); text-align: start;&quot; class=&quot;p1&quot;&gt;&lt;font face=&quot;Times New Roman&quot;&gt;Платеж.Id&lt;/font&gt;&lt;/p&gt;" style="rounded=1;whiteSpace=wrap;html=1;fillColor=#CCCCCC;strokeColor=#FF0000;" parent="PlenrtrV-lZkWa3VHan3-205" vertex="1">
          <mxGeometry x="520" y="354" width="107" height="21" as="geometry" />
        </mxCell>
        <mxCell id="PlenrtrV-lZkWa3VHan3-240" value="1" style="ellipse;whiteSpace=wrap;html=1;aspect=fixed;rounded=1;fillColor=#FF77BF;" parent="PlenrtrV-lZkWa3VHan3-205" vertex="1">
          <mxGeometry x="49" y="449" width="23" height="23" as="geometry" />
        </mxCell>
        <mxCell id="PlenrtrV-lZkWa3VHan3-241" value="2" style="ellipse;whiteSpace=wrap;html=1;aspect=fixed;rounded=1;fillColor=#FF77BF;" parent="PlenrtrV-lZkWa3VHan3-205" vertex="1">
          <mxGeometry x="140" y="460" width="23" height="23" as="geometry" />
        </mxCell>
        <mxCell id="PlenrtrV-lZkWa3VHan3-206" value="" style="group" parent="1" vertex="1" connectable="0">
          <mxGeometry x="1056" y="450" width="721" height="456" as="geometry" />
        </mxCell>
        <mxCell id="PlenrtrV-lZkWa3VHan3-17" value="" style="rounded=1;whiteSpace=wrap;html=1;arcSize=3;movable=1;resizable=1;rotatable=1;deletable=1;editable=1;locked=0;connectable=1;fillColor=#f5f5f5;strokeColor=#FF0000;strokeWidth=3;fontColor=#333333;" parent="PlenrtrV-lZkWa3VHan3-206" vertex="1">
          <mxGeometry width="721" height="456" as="geometry" />
        </mxCell>
        <mxCell id="BZBJQn5B5M7l6MrAMs_o-12" value="" style="group" parent="PlenrtrV-lZkWa3VHan3-206" vertex="1" connectable="0">
          <mxGeometry x="35" y="398" width="309" height="39" as="geometry" />
        </mxCell>
        <mxCell id="Tz6aEU4ManMyac2rpAqn-66" value="" style="rounded=1;whiteSpace=wrap;html=1;fillColor=#1C57CD;strokeColor=none;" parent="BZBJQn5B5M7l6MrAMs_o-12" vertex="1">
          <mxGeometry width="309" height="39" as="geometry" />
        </mxCell>
        <mxCell id="Tz6aEU4ManMyac2rpAqn-67" value="" style="sketch=0;outlineConnect=0;fontColor=#232F3E;gradientColor=none;fillColor=default;strokeColor=none;dashed=0;verticalLabelPosition=bottom;verticalAlign=top;align=center;html=1;fontSize=12;fontStyle=0;aspect=fixed;pointerEvents=1;shape=mxgraph.aws4.gear;rounded=1;" parent="BZBJQn5B5M7l6MrAMs_o-12" vertex="1">
          <mxGeometry x="282" y="11" width="17" height="17" as="geometry" />
        </mxCell>
        <mxCell id="Tz6aEU4ManMyac2rpAqn-68" value="Удалить услугу пользователя" style="text;html=1;align=center;verticalAlign=middle;whiteSpace=wrap;rounded=1;fontSize=13;fontColor=#FFFFFF;strokeColor=none;" parent="BZBJQn5B5M7l6MrAMs_o-12" vertex="1">
          <mxGeometry x="3" y="4.5" width="189" height="30" as="geometry" />
        </mxCell>
        <mxCell id="BZBJQn5B5M7l6MrAMs_o-13" value="" style="group" parent="PlenrtrV-lZkWa3VHan3-206" vertex="1" connectable="0">
          <mxGeometry x="359" y="63" width="309" height="39" as="geometry" />
        </mxCell>
        <mxCell id="Tz6aEU4ManMyac2rpAqn-69" value="" style="rounded=1;whiteSpace=wrap;html=1;fillColor=#1C57CD;strokeColor=none;" parent="BZBJQn5B5M7l6MrAMs_o-13" vertex="1">
          <mxGeometry width="309" height="39" as="geometry" />
        </mxCell>
        <mxCell id="Tz6aEU4ManMyac2rpAqn-70" value="" style="sketch=0;outlineConnect=0;fontColor=#232F3E;gradientColor=none;fillColor=default;strokeColor=none;dashed=0;verticalLabelPosition=bottom;verticalAlign=top;align=center;html=1;fontSize=12;fontStyle=0;aspect=fixed;pointerEvents=1;shape=mxgraph.aws4.gear;rounded=1;" parent="BZBJQn5B5M7l6MrAMs_o-13" vertex="1">
          <mxGeometry x="282" y="11" width="17" height="17" as="geometry" />
        </mxCell>
        <mxCell id="Tz6aEU4ManMyac2rpAqn-71" value="Удалить товар пользователя" style="text;html=1;align=center;verticalAlign=middle;whiteSpace=wrap;rounded=1;fontSize=13;fontColor=#FFFFFF;strokeColor=none;" parent="BZBJQn5B5M7l6MrAMs_o-13" vertex="1">
          <mxGeometry x="2" y="4.5" width="188" height="30" as="geometry" />
        </mxCell>
        <mxCell id="BZBJQn5B5M7l6MrAMs_o-23" value="" style="group" parent="PlenrtrV-lZkWa3VHan3-206" vertex="1" connectable="0">
          <mxGeometry x="32" y="65" width="309" height="39" as="geometry" />
        </mxCell>
        <mxCell id="Tz6aEU4ManMyac2rpAqn-54" value="" style="rounded=1;whiteSpace=wrap;html=1;fillColor=#1C57CD;strokeColor=none;" parent="BZBJQn5B5M7l6MrAMs_o-23" vertex="1">
          <mxGeometry width="309" height="39" as="geometry" />
        </mxCell>
        <mxCell id="Tz6aEU4ManMyac2rpAqn-55" value="" style="sketch=0;outlineConnect=0;fontColor=#232F3E;gradientColor=none;fillColor=#FFFFFF;strokeColor=none;dashed=0;verticalLabelPosition=bottom;verticalAlign=top;align=center;html=1;fontSize=12;fontStyle=0;aspect=fixed;pointerEvents=1;shape=mxgraph.aws4.gear;rounded=1;" parent="BZBJQn5B5M7l6MrAMs_o-23" vertex="1">
          <mxGeometry x="286" y="11" width="17" height="17" as="geometry" />
        </mxCell>
        <mxCell id="Tz6aEU4ManMyac2rpAqn-56" value="Добавить товар в профиль пользователя" style="text;html=1;align=center;verticalAlign=middle;whiteSpace=wrap;rounded=1;fontSize=13;fontColor=#FFFFFF;strokeColor=none;" parent="BZBJQn5B5M7l6MrAMs_o-23" vertex="1">
          <mxGeometry x="8" y="4" width="262" height="30" as="geometry" />
        </mxCell>
        <mxCell id="BZBJQn5B5M7l6MrAMs_o-24" value="" style="group" parent="PlenrtrV-lZkWa3VHan3-206" vertex="1" connectable="0">
          <mxGeometry x="34" y="111" width="309" height="39" as="geometry" />
        </mxCell>
        <mxCell id="Tz6aEU4ManMyac2rpAqn-57" value="" style="rounded=1;whiteSpace=wrap;html=1;fillColor=#1C57CD;strokeColor=none;" parent="BZBJQn5B5M7l6MrAMs_o-24" vertex="1">
          <mxGeometry width="309" height="39" as="geometry" />
        </mxCell>
        <mxCell id="Tz6aEU4ManMyac2rpAqn-58" value="" style="sketch=0;outlineConnect=0;fontColor=#232F3E;gradientColor=none;fillColor=#FFFFFF;strokeColor=none;dashed=0;verticalLabelPosition=bottom;verticalAlign=top;align=center;html=1;fontSize=12;fontStyle=0;aspect=fixed;pointerEvents=1;shape=mxgraph.aws4.gear;rounded=1;" parent="BZBJQn5B5M7l6MrAMs_o-24" vertex="1">
          <mxGeometry x="286" y="10" width="17" height="17" as="geometry" />
        </mxCell>
        <mxCell id="Tz6aEU4ManMyac2rpAqn-59" value="Добавить услугу в профиль пользователя" style="text;html=1;align=center;verticalAlign=middle;whiteSpace=wrap;rounded=1;fontSize=13;fontColor=#FFFFFF;strokeColor=none;" parent="BZBJQn5B5M7l6MrAMs_o-24" vertex="1">
          <mxGeometry x="2" y="5" width="273" height="30" as="geometry" />
        </mxCell>
        <mxCell id="BZBJQn5B5M7l6MrAMs_o-25" value="" style="group" parent="PlenrtrV-lZkWa3VHan3-206" vertex="1" connectable="0">
          <mxGeometry x="34" y="155" width="309" height="39" as="geometry" />
        </mxCell>
        <mxCell id="Tz6aEU4ManMyac2rpAqn-60" value="" style="rounded=1;whiteSpace=wrap;html=1;fillColor=#1C57CD;strokeColor=none;" parent="BZBJQn5B5M7l6MrAMs_o-25" vertex="1">
          <mxGeometry width="309" height="39" as="geometry" />
        </mxCell>
        <mxCell id="Tz6aEU4ManMyac2rpAqn-61" value="" style="sketch=0;outlineConnect=0;fontColor=#232F3E;gradientColor=none;fillColor=#FFFFFF;strokeColor=none;dashed=0;verticalLabelPosition=bottom;verticalAlign=top;align=center;html=1;fontSize=12;fontStyle=0;aspect=fixed;pointerEvents=1;shape=mxgraph.aws4.gear;rounded=1;" parent="BZBJQn5B5M7l6MrAMs_o-25" vertex="1">
          <mxGeometry x="286" y="11" width="17" height="17" as="geometry" />
        </mxCell>
        <mxCell id="Tz6aEU4ManMyac2rpAqn-62" value="Изменить товар пользователя" style="text;html=1;align=center;verticalAlign=middle;whiteSpace=wrap;rounded=1;fontSize=13;fontColor=#FFFFFF;strokeColor=none;" parent="BZBJQn5B5M7l6MrAMs_o-25" vertex="1">
          <mxGeometry x="7" y="3" width="195" height="30" as="geometry" />
        </mxCell>
        <mxCell id="BZBJQn5B5M7l6MrAMs_o-26" value="" style="group" parent="PlenrtrV-lZkWa3VHan3-206" vertex="1" connectable="0">
          <mxGeometry x="34" y="204" width="309" height="39" as="geometry" />
        </mxCell>
        <mxCell id="Tz6aEU4ManMyac2rpAqn-63" value="" style="rounded=1;whiteSpace=wrap;html=1;fillColor=#1C57CD;strokeColor=none;" parent="BZBJQn5B5M7l6MrAMs_o-26" vertex="1">
          <mxGeometry width="309" height="39" as="geometry" />
        </mxCell>
        <mxCell id="Tz6aEU4ManMyac2rpAqn-64" value="" style="sketch=0;outlineConnect=0;fontColor=#232F3E;gradientColor=none;fillColor=#FFFFFF;strokeColor=none;dashed=0;verticalLabelPosition=bottom;verticalAlign=top;align=center;html=1;fontSize=12;fontStyle=0;aspect=fixed;pointerEvents=1;shape=mxgraph.aws4.gear;rounded=1;" parent="BZBJQn5B5M7l6MrAMs_o-26" vertex="1">
          <mxGeometry x="286" y="11" width="17" height="17" as="geometry" />
        </mxCell>
        <mxCell id="Tz6aEU4ManMyac2rpAqn-65" value="Изменить услугу пользователя" style="text;html=1;align=center;verticalAlign=middle;whiteSpace=wrap;rounded=1;fontSize=13;fontColor=#FFFFFF;strokeColor=none;" parent="BZBJQn5B5M7l6MrAMs_o-26" vertex="1">
          <mxGeometry x="4" y="4.5" width="195" height="30" as="geometry" />
        </mxCell>
        <mxCell id="BZBJQn5B5M7l6MrAMs_o-32" value="" style="group" parent="PlenrtrV-lZkWa3VHan3-206" vertex="1" connectable="0">
          <mxGeometry x="38" y="250" width="309" height="39" as="geometry" />
        </mxCell>
        <mxCell id="cKbgiC5qh_IXnBO1eU4K-1" value="" style="rounded=1;whiteSpace=wrap;html=1;fillColor=#1C57CD;strokeColor=none;" parent="BZBJQn5B5M7l6MrAMs_o-32" vertex="1">
          <mxGeometry width="309" height="39" as="geometry" />
        </mxCell>
        <mxCell id="cKbgiC5qh_IXnBO1eU4K-2" value="" style="sketch=0;outlineConnect=0;fontColor=#232F3E;gradientColor=none;fillColor=#FFFFFF;strokeColor=none;dashed=0;verticalLabelPosition=bottom;verticalAlign=top;align=center;html=1;fontSize=12;fontStyle=0;aspect=fixed;pointerEvents=1;shape=mxgraph.aws4.gear;rounded=1;" parent="BZBJQn5B5M7l6MrAMs_o-32" vertex="1">
          <mxGeometry x="286" y="11" width="17" height="17" as="geometry" />
        </mxCell>
        <mxCell id="cKbgiC5qh_IXnBO1eU4K-3" value="Поиск товаров" style="text;html=1;align=center;verticalAlign=middle;whiteSpace=wrap;rounded=1;fontSize=13;fontColor=#FFFFFF;strokeColor=none;" parent="BZBJQn5B5M7l6MrAMs_o-32" vertex="1">
          <mxGeometry x="3" y="4.5" width="99" height="30" as="geometry" />
        </mxCell>
        <mxCell id="BZBJQn5B5M7l6MrAMs_o-33" value="" style="group" parent="PlenrtrV-lZkWa3VHan3-206" vertex="1" connectable="0">
          <mxGeometry x="35" y="296" width="309" height="39" as="geometry" />
        </mxCell>
        <mxCell id="cKbgiC5qh_IXnBO1eU4K-4" value="" style="rounded=1;whiteSpace=wrap;html=1;fillColor=#1C57CD;strokeColor=none;" parent="BZBJQn5B5M7l6MrAMs_o-33" vertex="1">
          <mxGeometry width="309" height="39" as="geometry" />
        </mxCell>
        <mxCell id="cKbgiC5qh_IXnBO1eU4K-5" value="" style="sketch=0;outlineConnect=0;fontColor=#232F3E;gradientColor=none;fillColor=#FFFFFF;strokeColor=none;dashed=0;verticalLabelPosition=bottom;verticalAlign=top;align=center;html=1;fontSize=12;fontStyle=0;aspect=fixed;pointerEvents=1;shape=mxgraph.aws4.gear;rounded=1;" parent="BZBJQn5B5M7l6MrAMs_o-33" vertex="1">
          <mxGeometry x="286" y="11" width="17" height="17" as="geometry" />
        </mxCell>
        <mxCell id="cKbgiC5qh_IXnBO1eU4K-6" value="Поиск услуг" style="text;html=1;align=center;verticalAlign=middle;whiteSpace=wrap;rounded=1;fontSize=13;fontColor=#FFFFFF;strokeColor=none;" parent="BZBJQn5B5M7l6MrAMs_o-33" vertex="1">
          <mxGeometry x="4" y="4" width="81" height="30" as="geometry" />
        </mxCell>
        <mxCell id="BZBJQn5B5M7l6MrAMs_o-34" value="" style="group" parent="PlenrtrV-lZkWa3VHan3-206" vertex="1" connectable="0">
          <mxGeometry x="40" y="347" width="309" height="39" as="geometry" />
        </mxCell>
        <mxCell id="cKbgiC5qh_IXnBO1eU4K-7" value="" style="rounded=1;whiteSpace=wrap;html=1;fillColor=#1C57CD;strokeColor=none;" parent="BZBJQn5B5M7l6MrAMs_o-34" vertex="1">
          <mxGeometry width="309" height="39" as="geometry" />
        </mxCell>
        <mxCell id="cKbgiC5qh_IXnBO1eU4K-8" value="" style="sketch=0;outlineConnect=0;fontColor=#232F3E;gradientColor=none;fillColor=#FFFFFF;strokeColor=none;dashed=0;verticalLabelPosition=bottom;verticalAlign=top;align=center;html=1;fontSize=12;fontStyle=0;aspect=fixed;pointerEvents=1;shape=mxgraph.aws4.gear;rounded=1;" parent="BZBJQn5B5M7l6MrAMs_o-34" vertex="1">
          <mxGeometry x="286" y="11" width="17" height="17" as="geometry" />
        </mxCell>
        <mxCell id="cKbgiC5qh_IXnBO1eU4K-9" value="Фильтрация и сортировка результатов" style="text;html=1;align=center;verticalAlign=middle;whiteSpace=wrap;rounded=1;fontSize=13;fontColor=#FFFFFF;strokeColor=none;" parent="BZBJQn5B5M7l6MrAMs_o-34" vertex="1">
          <mxGeometry x="5" y="4.5" width="248" height="30" as="geometry" />
        </mxCell>
        <mxCell id="BZBJQn5B5M7l6MrAMs_o-35" value="" style="group" parent="PlenrtrV-lZkWa3VHan3-206" vertex="1" connectable="0">
          <mxGeometry x="359" y="116" width="309" height="40" as="geometry" />
        </mxCell>
        <mxCell id="cKbgiC5qh_IXnBO1eU4K-10" value="" style="rounded=1;whiteSpace=wrap;html=1;fillColor=#1C57CD;strokeColor=none;" parent="BZBJQn5B5M7l6MrAMs_o-35" vertex="1">
          <mxGeometry width="295" height="40" as="geometry" />
        </mxCell>
        <mxCell id="cKbgiC5qh_IXnBO1eU4K-11" value="" style="sketch=0;outlineConnect=0;fontColor=#232F3E;gradientColor=none;fillColor=#FFFFFF;strokeColor=none;dashed=0;verticalLabelPosition=bottom;verticalAlign=top;align=center;html=1;fontSize=12;fontStyle=0;aspect=fixed;pointerEvents=1;shape=mxgraph.aws4.gear;rounded=1;" parent="BZBJQn5B5M7l6MrAMs_o-35" vertex="1">
          <mxGeometry x="269" y="12" width="17" height="17" as="geometry" />
        </mxCell>
        <mxCell id="cKbgiC5qh_IXnBO1eU4K-12" value="Сгенерировать отчёт по продажам" style="text;html=1;align=center;verticalAlign=middle;whiteSpace=wrap;rounded=1;fontSize=13;fontColor=#FFFFFF;strokeColor=none;" parent="BZBJQn5B5M7l6MrAMs_o-35" vertex="1">
          <mxGeometry x="6" y="4.5" width="226" height="30" as="geometry" />
        </mxCell>
        <mxCell id="PlenrtrV-lZkWa3VHan3-18" value="Товары и услуги" style="text;html=1;align=center;verticalAlign=middle;whiteSpace=wrap;rounded=1;shadow=0;fontSize=23;fontStyle=1" parent="PlenrtrV-lZkWa3VHan3-206" vertex="1">
          <mxGeometry x="16" y="22" width="216" height="49" as="geometry" />
        </mxCell>
        <mxCell id="PlenrtrV-lZkWa3VHan3-155" value="" style="strokeWidth=2;html=1;shape=mxgraph.flowchart.database;whiteSpace=wrap;rounded=1;movable=1;resizable=1;rotatable=1;deletable=1;editable=1;locked=0;connectable=1;" parent="PlenrtrV-lZkWa3VHan3-206" vertex="1">
          <mxGeometry x="371" y="184" width="290" height="260" as="geometry" />
        </mxCell>
        <mxCell id="PlenrtrV-lZkWa3VHan3-156" value="" style="group" parent="PlenrtrV-lZkWa3VHan3-206" vertex="1" connectable="0">
          <mxGeometry x="432" y="208" width="151" height="49" as="geometry" />
        </mxCell>
        <mxCell id="PlenrtrV-lZkWa3VHan3-157" value="&lt;p style=&quot;margin: 0px 0px 0px 13px; text-indent: -13px; font-variant-numeric: normal; font-variant-east-asian: normal; font-variant-alternates: normal; font-kerning: auto; font-optical-sizing: auto; font-feature-settings: normal; font-variation-settings: normal; font-variant-position: normal; font-stretch: normal; font-size: 14px; line-height: normal; color: rgb(14, 14, 14); text-align: start;&quot; class=&quot;p1&quot;&gt;&lt;br&gt;&lt;/p&gt;" style="rounded=1;whiteSpace=wrap;html=1;fillColor=#FF77BF;strokeColor=none;arcSize=50;" parent="PlenrtrV-lZkWa3VHan3-156" vertex="1">
          <mxGeometry y="9" width="151" height="33" as="geometry" />
        </mxCell>
        <mxCell id="PlenrtrV-lZkWa3VHan3-158" value="&lt;font style=&quot;font-size: 18px;&quot;&gt;&lt;i&gt;PostgreSQL&lt;/i&gt;&lt;/font&gt;" style="text;html=1;align=center;verticalAlign=middle;whiteSpace=wrap;rounded=1;shadow=0;fontSize=23;fontStyle=1" parent="PlenrtrV-lZkWa3VHan3-156" vertex="1">
          <mxGeometry x="31" width="89" height="49" as="geometry" />
        </mxCell>
        <mxCell id="cKbgiC5qh_IXnBO1eU4K-84" value="&lt;p style=&quot;margin: 0px 0px 0px 13px; text-indent: -13px; font-variant-numeric: normal; font-variant-east-asian: normal; font-variant-alternates: normal; font-kerning: auto; font-optical-sizing: auto; font-feature-settings: normal; font-variation-settings: normal; font-variant-position: normal; font-stretch: normal; font-size: 14px; line-height: normal; color: rgb(14, 14, 14); text-align: start;&quot; class=&quot;p1&quot;&gt;&lt;font face=&quot;Times New Roman&quot;&gt;Услуга.ID&lt;/font&gt;&lt;/p&gt;" style="rounded=1;whiteSpace=wrap;html=1;fillColor=#b1ddf0;strokeColor=#10739e;arcSize=0;" parent="PlenrtrV-lZkWa3VHan3-206" vertex="1">
          <mxGeometry x="377" y="275" width="87" height="21" as="geometry" />
        </mxCell>
        <mxCell id="cKbgiC5qh_IXnBO1eU4K-85" value="&lt;p style=&quot;margin: 0px 0px 0px 13px; text-indent: -13px; font-variant-numeric: normal; font-variant-east-asian: normal; font-variant-alternates: normal; font-kerning: auto; font-optical-sizing: auto; font-feature-settings: normal; font-variation-settings: normal; font-variant-position: normal; font-stretch: normal; font-size: 14px; line-height: normal; color: rgb(14, 14, 14); text-align: start;&quot; class=&quot;p1&quot;&gt;&lt;font face=&quot;Times New Roman&quot;&gt;Услуга.Название&lt;/font&gt;&lt;/p&gt;" style="rounded=1;whiteSpace=wrap;html=1;fillColor=#b1ddf0;strokeColor=#10739e;" parent="PlenrtrV-lZkWa3VHan3-206" vertex="1">
          <mxGeometry x="380" y="309" width="110" height="21" as="geometry" />
        </mxCell>
        <mxCell id="cKbgiC5qh_IXnBO1eU4K-86" value="&lt;p style=&quot;margin: 0px 0px 0px 13px; text-indent: -13px; font-variant-numeric: normal; font-variant-east-asian: normal; font-variant-alternates: normal; font-kerning: auto; font-optical-sizing: auto; font-feature-settings: normal; font-variation-settings: normal; font-variant-position: normal; font-stretch: normal; font-size: 14px; line-height: normal; color: rgb(14, 14, 14); text-align: start;&quot; class=&quot;p1&quot;&gt;&lt;font face=&quot;Times New Roman&quot;&gt;Услуга. Описание&lt;/font&gt;&lt;/p&gt;" style="rounded=1;whiteSpace=wrap;html=1;fillColor=#b1ddf0;strokeColor=#10739e;" parent="PlenrtrV-lZkWa3VHan3-206" vertex="1">
          <mxGeometry x="378" y="343" width="112" height="21" as="geometry" />
        </mxCell>
        <mxCell id="cKbgiC5qh_IXnBO1eU4K-87" value="&lt;p style=&quot;margin: 0px 0px 0px 13px; text-indent: -13px; font-variant-numeric: normal; font-variant-east-asian: normal; font-variant-alternates: normal; font-kerning: auto; font-optical-sizing: auto; font-feature-settings: normal; font-variation-settings: normal; font-variant-position: normal; font-stretch: normal; font-size: 14px; line-height: normal; color: rgb(14, 14, 14); text-align: start;&quot; class=&quot;p1&quot;&gt;&lt;font face=&quot;Times New Roman&quot;&gt;Товар.ID&lt;/font&gt;&lt;/p&gt;" style="rounded=1;whiteSpace=wrap;html=1;fillColor=#b1ddf0;strokeColor=#10739e;" parent="PlenrtrV-lZkWa3VHan3-206" vertex="1">
          <mxGeometry x="529" y="289" width="78" height="21" as="geometry" />
        </mxCell>
        <mxCell id="cKbgiC5qh_IXnBO1eU4K-89" value="&lt;p style=&quot;margin: 0px 0px 0px 13px; text-indent: -13px; font-variant-numeric: normal; font-variant-east-asian: normal; font-variant-alternates: normal; font-kerning: auto; font-optical-sizing: auto; font-feature-settings: normal; font-variation-settings: normal; font-variant-position: normal; font-stretch: normal; font-size: 14px; line-height: normal; color: rgb(14, 14, 14); text-align: start;&quot; class=&quot;p1&quot;&gt;&lt;font face=&quot;Times New Roman&quot;&gt;Товар.Описание&lt;/font&gt;&lt;/p&gt;" style="rounded=1;whiteSpace=wrap;html=1;fillColor=#b1ddf0;strokeColor=#10739e;" parent="PlenrtrV-lZkWa3VHan3-206" vertex="1">
          <mxGeometry x="518" y="327" width="107" height="21" as="geometry" />
        </mxCell>
        <mxCell id="cKbgiC5qh_IXnBO1eU4K-88" value="&lt;p style=&quot;margin: 0px 0px 0px 13px; text-indent: -13px; font-variant-numeric: normal; font-variant-east-asian: normal; font-variant-alternates: normal; font-kerning: auto; font-optical-sizing: auto; font-feature-settings: normal; font-variation-settings: normal; font-variant-position: normal; font-stretch: normal; font-size: 14px; line-height: normal; color: rgb(14, 14, 14); text-align: start;&quot; class=&quot;p1&quot;&gt;&lt;font face=&quot;Times New Roman&quot;&gt;Товар.Название&lt;/font&gt;&lt;/p&gt;" style="rounded=1;whiteSpace=wrap;html=1;fillColor=#b1ddf0;strokeColor=#10739e;" parent="PlenrtrV-lZkWa3VHan3-206" vertex="1">
          <mxGeometry x="506" y="357" width="111" height="21" as="geometry" />
        </mxCell>
        <mxCell id="PlenrtrV-lZkWa3VHan3-168" value="&lt;p style=&quot;margin: 0px 0px 0px 13px; text-indent: -13px; font-variant-numeric: normal; font-variant-east-asian: normal; font-variant-alternates: normal; font-kerning: auto; font-optical-sizing: auto; font-feature-settings: normal; font-variation-settings: normal; font-variant-position: normal; font-stretch: normal; font-size: 14px; line-height: normal; color: rgb(14, 14, 14); text-align: start;&quot; class=&quot;p1&quot;&gt;&lt;font face=&quot;Times New Roman&quot;&gt;Пользователь.ID&lt;/font&gt;&lt;/p&gt;" style="rounded=1;whiteSpace=wrap;html=1;fillColor=#CCCCCC;strokeColor=#FF0000;" parent="PlenrtrV-lZkWa3VHan3-206" vertex="1">
          <mxGeometry x="404" y="397" width="151" height="21" as="geometry" />
        </mxCell>
        <mxCell id="PlenrtrV-lZkWa3VHan3-207" value="" style="endArrow=classic;html=1;rounded=1;dashed=1;fontSize=12;exitX=0.75;exitY=1;exitDx=0;exitDy=0;entryX=-0.003;entryY=0.386;entryDx=0;entryDy=0;entryPerimeter=0;" parent="1" source="cKbgiC5qh_IXnBO1eU4K-163" target="PlenrtrV-lZkWa3VHan3-19" edge="1">
          <mxGeometry width="50" height="50" relative="1" as="geometry">
            <mxPoint x="1423" y="-475" as="sourcePoint" />
            <mxPoint x="1279" y="448" as="targetPoint" />
            <Array as="points">
              <mxPoint x="1239" y="-188" />
            </Array>
          </mxGeometry>
        </mxCell>
        <mxCell id="PlenrtrV-lZkWa3VHan3-208" value="Разместить услугу/товар" style="text;html=1;align=center;verticalAlign=middle;whiteSpace=wrap;rounded=1;fontSize=13;" parent="1" vertex="1">
          <mxGeometry x="1034" y="-313" width="243" height="43" as="geometry" />
        </mxCell>
        <mxCell id="PlenrtrV-lZkWa3VHan3-214" value="" style="endArrow=classic;html=1;rounded=1;exitX=0.417;exitY=0.996;exitDx=0;exitDy=0;curved=0;entryX=0.75;entryY=0;entryDx=0;entryDy=0;exitPerimeter=0;" parent="1" source="PlenrtrV-lZkWa3VHan3-19" target="PlenrtrV-lZkWa3VHan3-17" edge="1">
          <mxGeometry width="50" height="50" relative="1" as="geometry">
            <mxPoint x="1427" y="460" as="sourcePoint" />
            <mxPoint x="1508" y="68" as="targetPoint" />
            <Array as="points" />
          </mxGeometry>
        </mxCell>
        <mxCell id="PlenrtrV-lZkWa3VHan3-216" value="ID Пользователя&lt;br&gt;&lt;br&gt;Услуги/товары" style="text;html=1;align=center;verticalAlign=middle;whiteSpace=wrap;rounded=1;fontSize=13;" parent="1" vertex="1">
          <mxGeometry x="1596" y="169" width="183" height="43" as="geometry" />
        </mxCell>
        <mxCell id="PlenrtrV-lZkWa3VHan3-217" value="" style="endArrow=classic;html=1;rounded=1;dashed=1;fontSize=12;exitX=0.128;exitY=0.988;exitDx=0;exitDy=0;exitPerimeter=0;entryX=0;entryY=0.5;entryDx=0;entryDy=0;" parent="1" source="cKbgiC5qh_IXnBO1eU4K-163" target="PlenrtrV-lZkWa3VHan3-19" edge="1">
          <mxGeometry width="50" height="50" relative="1" as="geometry">
            <mxPoint x="1262" y="-358" as="sourcePoint" />
            <mxPoint x="1289" y="458" as="targetPoint" />
            <Array as="points">
              <mxPoint x="838" y="-133" />
            </Array>
          </mxGeometry>
        </mxCell>
        <mxCell id="PlenrtrV-lZkWa3VHan3-218" value="Разместить заказ" style="text;html=1;align=center;verticalAlign=middle;whiteSpace=wrap;rounded=1;fontSize=13;" parent="1" vertex="1">
          <mxGeometry x="671" y="-225" width="190" height="43" as="geometry" />
        </mxCell>
        <mxCell id="PlenrtrV-lZkWa3VHan3-223" value="" style="endArrow=classic;html=1;rounded=1;curved=0;entryX=1.001;entryY=0.208;entryDx=0;entryDy=0;entryPerimeter=0;" parent="1" target="PlenrtrV-lZkWa3VHan3-11" edge="1">
          <mxGeometry width="50" height="50" relative="1" as="geometry">
            <mxPoint x="1338" y="37" as="sourcePoint" />
            <mxPoint x="1607" y="460" as="targetPoint" />
            <Array as="points" />
          </mxGeometry>
        </mxCell>
        <mxCell id="PlenrtrV-lZkWa3VHan3-227" value="" style="endArrow=classic;html=1;rounded=1;curved=0;entryX=0.595;entryY=0.993;entryDx=0;entryDy=0;entryPerimeter=0;strokeColor=#FF0000;" parent="1" target="aNh6FEuhw9lsT8rE3H5J-120" edge="1">
          <mxGeometry width="50" height="50" relative="1" as="geometry">
            <mxPoint x="491" y="404" as="sourcePoint" />
            <mxPoint x="1508" y="68" as="targetPoint" />
            <Array as="points">
              <mxPoint x="471" y="1122" />
              <mxPoint x="2409" y="1135" />
            </Array>
          </mxGeometry>
        </mxCell>
        <mxCell id="PlenrtrV-lZkWa3VHan3-229" value="&lt;span style=&quot;text-wrap: wrap;&quot;&gt;&lt;font style=&quot;font-size: 12px;&quot;&gt;Инициировать платёж&lt;/font&gt;&lt;/span&gt;" style="edgeLabel;html=1;align=center;verticalAlign=middle;resizable=0;points=[];rounded=1;" parent="1" vertex="1" connectable="0">
          <mxGeometry x="2851.9422133205753" y="125.85390944488654" as="geometry" />
        </mxCell>
        <mxCell id="PlenrtrV-lZkWa3VHan3-230" value="Оплатить заказ&lt;br&gt;&lt;br&gt;(Id пользователя, заказа)" style="text;html=1;align=center;verticalAlign=middle;whiteSpace=wrap;rounded=1;fontSize=13;" parent="1" vertex="1">
          <mxGeometry x="1200" y="1066" width="243" height="43" as="geometry" />
        </mxCell>
        <mxCell id="PlenrtrV-lZkWa3VHan3-232" value="&lt;p style=&quot;margin: 0px 0px 0px 13px; text-indent: -13px; font-variant-numeric: normal; font-variant-east-asian: normal; font-variant-alternates: normal; font-kerning: auto; font-optical-sizing: auto; font-feature-settings: normal; font-variation-settings: normal; font-variant-position: normal; font-stretch: normal; font-size: 14px; line-height: normal; color: rgb(14, 14, 14); text-align: start;&quot; class=&quot;p1&quot;&gt;&lt;font face=&quot;Times New Roman&quot;&gt;Товары.ID&lt;/font&gt;&lt;/p&gt;" style="rounded=1;whiteSpace=wrap;html=1;fillColor=#CCCCCC;strokeColor=#FF0000;" parent="1" vertex="1">
          <mxGeometry x="27" y="232" width="151" height="21" as="geometry" />
        </mxCell>
        <mxCell id="PlenrtrV-lZkWa3VHan3-233" value="" style="endArrow=classic;html=1;rounded=1;exitX=0.578;exitY=0.992;exitDx=0;exitDy=0;curved=0;exitPerimeter=0;" parent="1" source="PlenrtrV-lZkWa3VHan3-1" edge="1">
          <mxGeometry width="50" height="50" relative="1" as="geometry">
            <mxPoint x="1427" y="460" as="sourcePoint" />
            <mxPoint x="1048" y="573" as="targetPoint" />
            <Array as="points">
              <mxPoint x="-7" y="558" />
            </Array>
          </mxGeometry>
        </mxCell>
        <mxCell id="PlenrtrV-lZkWa3VHan3-234" value="Получить товары аукциона" style="text;html=1;align=center;verticalAlign=middle;whiteSpace=wrap;rounded=1;fontSize=13;" parent="1" vertex="1">
          <mxGeometry x="173" y="493" width="190" height="43" as="geometry" />
        </mxCell>
        <mxCell id="PlenrtrV-lZkWa3VHan3-236" value="Запросить статус платежа&lt;br&gt;&lt;br&gt;(Id платежа)" style="text;html=1;align=center;verticalAlign=middle;whiteSpace=wrap;rounded=1;fontSize=13;" parent="1" vertex="1">
          <mxGeometry x="1035" y="979" width="243" height="43" as="geometry" />
        </mxCell>
        <mxCell id="PlenrtrV-lZkWa3VHan3-237" value="&lt;p style=&quot;margin: 0px 0px 0px 13px; text-indent: -13px; font-variant-numeric: normal; font-variant-east-asian: normal; font-variant-alternates: normal; font-kerning: auto; font-optical-sizing: auto; font-feature-settings: normal; font-variation-settings: normal; font-variant-position: normal; font-stretch: normal; font-size: 14px; line-height: normal; color: rgb(14, 14, 14); text-align: start;&quot; class=&quot;p1&quot;&gt;&lt;font face=&quot;Times New Roman&quot;&gt;Платеж.Id&lt;/font&gt;&lt;/p&gt;" style="rounded=1;whiteSpace=wrap;html=1;fillColor=#b1ddf0;strokeColor=#FF0000;" parent="1" vertex="1">
          <mxGeometry x="2336" y="429" width="107" height="21" as="geometry" />
        </mxCell>
        <mxCell id="PlenrtrV-lZkWa3VHan3-239" value="" style="endArrow=classic;html=1;rounded=1;curved=0;entryX=0.5;entryY=1;entryDx=0;entryDy=0;strokeColor=#FF0000;" parent="1" target="aNh6FEuhw9lsT8rE3H5J-120" edge="1">
          <mxGeometry width="50" height="50" relative="1" as="geometry">
            <mxPoint x="546" y="414" as="sourcePoint" />
            <mxPoint x="2419" y="779" as="targetPoint" />
            <Array as="points">
              <mxPoint x="546" y="1038" />
              <mxPoint x="2326" y="1052" />
            </Array>
          </mxGeometry>
        </mxCell>
        <mxCell id="PlenrtrV-lZkWa3VHan3-245" value="&lt;font style=&quot;font-size: 20px;&quot;&gt;Описание микросервисов&lt;/font&gt;" style="text;html=1;align=center;verticalAlign=middle;whiteSpace=wrap;rounded=0;" parent="1" vertex="1">
          <mxGeometry x="2916" y="829" width="310" height="30" as="geometry" />
        </mxCell>
        <mxCell id="PlenrtrV-lZkWa3VHan3-246" value="&lt;h1 style=&quot;margin-top: 0px; font-size: 15px;&quot;&gt;&lt;p class=&quot;p1&quot; style=&quot;margin: 0px 0px 0px 21px; text-indent: -21px; font-variant-numeric: normal; font-variant-east-asian: normal; font-variant-alternates: normal; font-kerning: auto; font-optical-sizing: auto; font-feature-settings: normal; font-variation-settings: normal; font-variant-position: normal; font-stretch: normal; font-size: 15px; line-height: normal; color: rgb(14, 14, 14);&quot;&gt;&lt;font face=&quot;Times New Roman&quot;&gt;Профиль пользователя &lt;span style=&quot;font-weight: normal;&quot;&gt;- хранит в себе всю информацию о пользователе. Через него проходит авторизация. Другие микросервисы хранят в себе только ID пользователя (если, например, нужно хранить услуги пользователя).&lt;/span&gt;&lt;/font&gt;&lt;/p&gt;&lt;p class=&quot;p1&quot; style=&quot;margin: 0px 0px 0px 21px; text-indent: -21px; font-variant-numeric: normal; font-variant-east-asian: normal; font-variant-alternates: normal; font-kerning: auto; font-optical-sizing: auto; font-feature-settings: normal; font-variation-settings: normal; font-variant-position: normal; font-stretch: normal; font-size: 15px; line-height: normal; color: rgb(14, 14, 14);&quot;&gt;&lt;font face=&quot;Times New Roman&quot;&gt;Товары/услуги &lt;span style=&quot;font-weight: 400;&quot;&gt;- хранит в себе информацию о товарах и услугах, отдает их на страничке пользователя. Если пользователь хочет добавить товар в свой профиль, микрос профиля идет в микрос товаров и создает там товар. Отвечает за хранение, удаление, поиск товаров, если нужно добавить новую сущность на продажу (кроме товаров и услуг), нужно добавить новую сущность только в этом микросе.&lt;/span&gt;&lt;/font&gt;&lt;/p&gt;&lt;p class=&quot;p1&quot; style=&quot;margin: 0px 0px 0px 21px; text-indent: -21px; font-variant-numeric: normal; font-variant-east-asian: normal; font-variant-alternates: normal; font-kerning: auto; font-optical-sizing: auto; font-feature-settings: normal; font-variation-settings: normal; font-variant-position: normal; font-stretch: normal; font-size: 15px; line-height: normal; color: rgb(14, 14, 14);&quot;&gt;&lt;font face=&quot;Times New Roman&quot;&gt;Заказы&lt;span style=&quot;font-weight: 400;&quot;&gt; - хранят в себе инфу о заказах, заказы размещает пользователь через профиль, профиль создает заказ в микросе заказов.&lt;/span&gt;&lt;/font&gt;&lt;/p&gt;&lt;p class=&quot;p1&quot; style=&quot;margin: 0px 0px 0px 21px; text-indent: -21px; font-variant-numeric: normal; font-variant-east-asian: normal; font-variant-alternates: normal; font-kerning: auto; font-optical-sizing: auto; font-feature-settings: normal; font-variation-settings: normal; font-variant-position: normal; font-stretch: normal; font-size: 15px; line-height: normal; color: rgb(14, 14, 14);&quot;&gt;&lt;font face=&quot;Times New Roman&quot;&gt;Платежная система&lt;span style=&quot;font-weight: 400;&quot;&gt; - отвечает за взаимодействие с сервисами оплат. Если нужно будет заменить Я Пэй на другой сервис, изменения пройдут только через этот микрос. Для оплаты заказов микрос заказов ходит в платежный микрос, дальше вся работа с транзакциями осуществляется платежным микросом.&lt;/span&gt;&lt;/font&gt;&lt;/p&gt;&lt;p class=&quot;p1&quot; style=&quot;margin: 0px 0px 0px 21px; text-indent: -21px; font-variant-numeric: normal; font-variant-east-asian: normal; font-variant-alternates: normal; font-kerning: auto; font-optical-sizing: auto; font-feature-settings: normal; font-variation-settings: normal; font-variant-position: normal; font-stretch: normal; font-size: 15px; line-height: normal; color: rgb(14, 14, 14);&quot;&gt;&lt;font face=&quot;Times New Roman&quot;&gt;Аукционы &lt;span style=&quot;font-weight: normal;&quot;&gt;- отвечают за создание редактирование и пр для аукционов. Список товаров и услуг, их описание получают через микрос товаров.&lt;/span&gt;&lt;/font&gt;&lt;/p&gt;&lt;p class=&quot;p1&quot; style=&quot;margin: 0px 0px 0px 21px; text-indent: -21px; font-variant-numeric: normal; font-variant-east-asian: normal; font-variant-alternates: normal; font-kerning: auto; font-optical-sizing: auto; font-feature-settings: normal; font-variation-settings: normal; font-variant-position: normal; font-stretch: normal; font-size: 15px; line-height: normal; color: rgb(14, 14, 14);&quot;&gt;&lt;font face=&quot;Times New Roman&quot;&gt;Заявки&lt;span style=&quot;font-weight: 400;&quot;&gt; - Тут размещаются заявки в службу поддержки, служба поддержки может с ними работать (отвечать, закрывать, передавать дургим операторам).&lt;/span&gt;&lt;/font&gt;&lt;/p&gt;&lt;p class=&quot;p1&quot; style=&quot;margin: 0px 0px 0px 21px; text-indent: -21px; font-variant-numeric: normal; font-variant-east-asian: normal; font-variant-alternates: normal; font-kerning: auto; font-optical-sizing: auto; font-feature-settings: normal; font-variation-settings: normal; font-variant-position: normal; font-stretch: normal; font-size: 15px; line-height: normal; color: rgb(14, 14, 14);&quot;&gt;&lt;font face=&quot;Times New Roman&quot;&gt;&lt;span style=&quot;font-weight: 400;&quot;&gt;&amp;nbsp;&lt;/span&gt;&lt;/font&gt;&lt;/p&gt;&lt;p class=&quot;p1&quot; style=&quot;margin: 0px 0px 0px 21px; text-indent: -21px; font-variant-numeric: normal; font-variant-east-asian: normal; font-variant-alternates: normal; font-kerning: auto; font-optical-sizing: auto; font-feature-settings: normal; font-variation-settings: normal; font-variant-position: normal; font-stretch: normal; font-size: 15px; line-height: normal; color: rgb(14, 14, 14);&quot;&gt;&lt;font face=&quot;Times New Roman&quot;&gt;&lt;span style=&quot;font-weight: 400;&quot;&gt;&lt;br&gt;&lt;/span&gt;&lt;/font&gt;&lt;/p&gt;&lt;/h1&gt;" style="text;html=1;whiteSpace=wrap;overflow=hidden;rounded=0;fontSize=15;" parent="1" vertex="1">
          <mxGeometry x="2541" y="874" width="904" height="249" as="geometry" />
        </mxCell>
        <mxCell id="PlenrtrV-lZkWa3VHan3-248" value="Разместить услугу/товар" style="text;html=1;align=center;verticalAlign=middle;whiteSpace=wrap;rounded=1;fontSize=13;" parent="1" vertex="1">
          <mxGeometry x="1589" y="100" width="243" height="43" as="geometry" />
        </mxCell>
        <mxCell id="PlenrtrV-lZkWa3VHan3-249" value="ID Пользователя&lt;br&gt;&lt;br&gt;Заказ" style="text;html=1;align=center;verticalAlign=middle;whiteSpace=wrap;rounded=1;fontSize=13;" parent="1" vertex="1">
          <mxGeometry x="1134" y="72" width="183" height="43" as="geometry" />
        </mxCell>
        <mxCell id="PlenrtrV-lZkWa3VHan3-250" value="Разместить заказ" style="text;html=1;align=center;verticalAlign=middle;whiteSpace=wrap;rounded=1;fontSize=13;" parent="1" vertex="1">
          <mxGeometry x="1116" y="-5" width="190" height="43" as="geometry" />
        </mxCell>
      </root>
    </mxGraphModel>
  </diagram>
</mxfile>
